<?xml version="1.0" encoding="UTF-8" standalone="no"?>
<svg
   xmlns:dc="http://purl.org/dc/elements/1.1/"
   xmlns:cc="http://creativecommons.org/ns#"
   xmlns:rdf="http://www.w3.org/1999/02/22-rdf-syntax-ns#"
   xmlns:svg="http://www.w3.org/2000/svg"
   xmlns="http://www.w3.org/2000/svg"
   xmlns:sodipodi="http://sodipodi.sourceforge.net/DTD/sodipodi-0.dtd"
   xmlns:inkscape="http://www.inkscape.org/namespaces/inkscape"
   height="512"
   width="512"
   version="1.1"
   viewBox="0 0 135.46666 135.46667"
   id="svg4567"
   sodipodi:docname="logo.svg"
   inkscape:version="0.92.1 r15371">
  <metadata
     id="metadata4573">
    <rdf:RDF>
      <cc:Work
         rdf:about="">
        <dc:format>image/svg+xml</dc:format>
        <dc:type
           rdf:resource="http://purl.org/dc/dcmitype/StillImage" />
        <dc:title />
      </cc:Work>
    </rdf:RDF>
  </metadata>
  <defs
     id="defs4571" />
  <sodipodi:namedview
     pagecolor="#ffffff"
     bordercolor="#666666"
     borderopacity="1"
     objecttolerance="10"
     gridtolerance="10"
     guidetolerance="10"
     inkscape:pageopacity="0"
     inkscape:pageshadow="2"
     inkscape:window-width="1362"
     inkscape:window-height="725"
     id="namedview4569"
     showgrid="false"
     inkscape:zoom="0.48632813"
     inkscape:cx="352.52486"
     inkscape:cy="215.31546"
     inkscape:window-x="0"
     inkscape:window-y="20"
     inkscape:window-maximized="0"
     inkscape:current-layer="svg4567"
     inkscape:snap-bbox="true"
     inkscape:snap-page="true" />
  <rect
     style="fill:#02838c;fill-rule:evenodd;stroke-width:0;fill-opacity:1"
     id="rect4549"
     x="2.7271001e-06"
     y="2.7271001e-06"
     width="135.47"
     height="135.47"
     ry="1.0981e-13"
     rx="35.563999" />
  <path
     d="m 61.11868,70.202639 a 19.843599,10.847834 0 0 0 -19.8436,10.847834 v 10.318672 a 2.8222008,2.8222008 0 0 0 2.822201,2.8222 h 47.271864 a 2.8222008,2.8222008 0 0 0 2.8222,-2.8222 V 81.050473 A 19.843599,10.847834 0 0 0 74.347746,70.202639 h -6.614533 z"
     id="path4551"
     inkscape:connector-curvature="0"
     style="fill:#ffffff;fill-rule:evenodd;stroke-width:0.25779042" />
  <path
     d="M 80.433623,53.97549 A 12.700063,12.700063 0 0 1 67.733559,66.675554 12.700063,12.700063 0 0 1 55.033496,53.97549 12.700063,12.700063 0 0 1 67.733559,41.275427 12.700063,12.700063 0 0 1 80.433623,53.97549 Z"
     id="path4553"
     inkscape:connector-curvature="0"
     style="fill:#ffffff;fill-rule:evenodd;stroke-width:0.17106086" />
  <g
     aria-label="{"
     transform="matrix(0.9886671,0,0,0.95685587,1.9973714,0.0981112)"
     style="font-size:110.8628006px;line-height:1.25;font-family:sans-serif;letter-spacing:0px;word-spacing:0px;fill:#ffffff;stroke-width:1.00002527"
     id="text4559">
    <path
       d="m 46.685881,114.04477 v 7.79504 h -3.356198 q -13.478925,0 -18.080164,-4.00578 -4.547107,-4.00578 -4.547107,-15.96901 V 88.927421 q 0,-8.173966 -2.92314,-11.313635 -2.92314,-3.13967 -10.6099166,-3.13967 H 3.8672895 v -7.740908 h 3.3020659 q 7.7409086,0 10.6099166,-3.085537 2.92314,-3.139669 2.92314,-11.205371 V 39.450566 q 0,-11.963222 4.547107,-15.914875 4.601239,-4.005785 18.080164,-4.005785 h 3.356198 v 7.740909 H 43.00489 q -7.632644,0 -9.96033,2.381818 -2.327686,2.381818 -2.327686,10.014462 v 13.424792 q 0,8.498759 -2.490082,12.342148 -2.435951,3.843388 -8.390496,5.196693 6.008678,1.46157 8.444628,5.304959 2.43595,3.843388 2.43595,12.288015 v 13.424788 q 0,7.63265 2.327686,10.01447 2.327686,2.38181 9.96033,2.38181 z"
       style="fill:#ffffff;stroke-width:0.83147103"
       id="path4599"
       inkscape:connector-curvature="0" />
  </g>
  <g
     aria-label="{"
     transform="matrix(-0.98866716,0,0,0.95685587,5.1257438,0.0981112)"
     style="font-size:110.8628006px;line-height:1.25;font-family:sans-serif;letter-spacing:0px;word-spacing:0px;fill:#ffffff;stroke-width:1.00002527"
     id="text4563">
    <path
       d="m -83.128841,114.04477 v 7.79504 h -3.356198 q -13.478925,0 -18.080161,-4.00578 -4.54711,-4.00578 -4.54711,-15.96901 V 88.927421 q 0,-8.173966 -2.92314,-11.313635 -2.92314,-3.13967 -10.60992,-3.13967 h -3.30206 v -7.740908 h 3.30206 q 7.74091,0 10.60992,-3.085537 2.92314,-3.139669 2.92314,-11.205371 V 39.450566 q 0,-11.963222 4.54711,-15.914875 4.601236,-4.005785 18.080161,-4.005785 h 3.356198 v 7.740909 h -3.680992 q -7.632643,0 -9.960329,2.381818 -2.327686,2.381818 -2.327686,10.014462 v 13.424792 q 0,8.498759 -2.490082,12.342148 -2.43595,3.843388 -8.3905,5.196693 6.00868,1.46157 8.44463,5.304959 2.435952,3.843388 2.435952,12.288015 v 13.424788 q 0,7.63265 2.327686,10.01447 2.327686,2.38181 9.960329,2.38181 z"
       style="fill:#ffffff;stroke-width:0.83147103"
       id="path4602"
       inkscape:connector-curvature="0" />
  </g>
</svg>
