<svg xmlns="http://www.w3.org/2000/svg" height="512" width="512" version="1.1" viewBox="0 0 135.46666 135.46667">
 <rect fill-rule="evenodd" rx="35.564" ry="1.0981e-13" height="135.47" width="135.47" y=".0000027271" x=".0000027271" stroke-width="0" fill="#00646b"/>
 <g fill="#fff">
  <path d="m61.119 70.203a19.844 10.848 0 0 0 -19.844 10.848v10.319a2.8222 2.8222 0 0 0 2.8222 2.8222h47.272a2.8222 2.8222 0 0 0 2.8222 -2.8222v-10.32a19.844 10.848 0 0 0 -19.843 -10.847h-6.6145z" fill-rule="evenodd" stroke-width=".25779"/>
  <path d="m80.434 53.975a12.7 12.7 0 0 1 -12.7 12.701 12.7 12.7 0 0 1 -12.701 -12.701 12.7 12.7 0 0 1 12.701 -12.7 12.7 12.7 0 0 1 12.7 12.7z" fill-rule="evenodd" stroke-width=".17106"/>
  <g aria-label="{" transform="matrix(.98867 0 0 .95686 1.9974 .098111)">
   <path stroke-width=".83147" fill="#fff" d="m46.686 114.04v7.795h-3.3562q-13.479 0-18.08-4.0058-4.5471-4.0058-4.5471-15.969v-12.933q0-8.174-2.9231-11.314-2.9231-3.1397-10.61-3.1397h-3.3027v-7.7409h3.3021q7.7409 0 10.61-3.0855 2.9231-3.1397 2.9231-11.205v-12.991q0-11.963 4.5471-15.915 4.6012-4.0058 18.08-4.0058h3.3562v7.7409h-3.68q-7.6326 0-9.9603 2.3818t-2.3277 10.014v13.425q0 8.4988-2.4901 12.342-2.436 3.8434-8.3905 5.1967 6.0087 1.4616 8.4446 5.305 2.436 3.8434 2.436 12.288v13.425q0 7.6326 2.3277 10.014 2.3277 2.3818 9.9603 2.3818z"/>
  </g>
  <g aria-label="{" transform="matrix(-.98867 0 0 .95686 5.1257 .098111)">
   <path stroke-width=".83147" fill="#fff" d="m-83.129 114.04v7.795h-3.3562q-13.479 0-18.08-4.0058-4.5471-4.0058-4.5471-15.969v-12.933q0-8.174-2.9231-11.314-2.9231-3.1397-10.61-3.1397h-3.3021v-7.7409h3.3021q7.7409 0 10.61-3.0855 2.9231-3.1397 2.9231-11.205v-12.991q0-11.963 4.5471-15.915 4.6012-4.0058 18.08-4.0058h3.3562v7.7409h-3.681q-7.6326 0-9.9603 2.3818t-2.3277 10.014v13.425q0 8.4988-2.4901 12.342-2.436 3.8434-8.3905 5.1967 6.0087 1.4616 8.4446 5.305 2.436 3.8434 2.436 12.288v13.425q0 7.6326 2.3277 10.014 2.3277 2.3818 9.9603 2.3818z"/>
  </g>
 </g>
</svg>
