<?xml version="1.0" encoding="UTF-8" standalone="no"?>
<!-- Created with Inkscape (http://www.inkscape.org/) -->
<svg xmlns="http://www.w3.org/2000/svg" height="512" width="512" version="1.1" viewBox="0 0 135.46666 135.46667">
 <path d="m67.691 24.236s-42.339 0.000038-52.965 2.5339c-5.6898 1.459-10.375 5.758-11.965 11.056-2.7609 9.751-2.761 29.946-2.761 29.946s0.00008 20.271 2.7613 29.869c1.5898 5.298 6.1912 9.5205 11.965 10.979 10.71 2.6106 52.965 2.6107 52.965 2.6107s42.423-0.00004 53.049-2.5339c5.7735-1.4589 10.375-5.6047 11.881-10.979 2.8449-9.6747 2.845-29.869 2.845-29.869s0.0835-20.271-2.845-30.023c-1.5061-5.298-6.1075-9.5205-11.881-10.903-10.626-2.6874-53.049-2.6875-53.049-2.6875z" fill="#fff"/>
 <g transform="matrix(.86095 0 0 .86095 9.4339 9.4186)">
  <path d="m28.907 83.848h23.915v10.294h-37.535z" fill="#fbbc05"/>
  <path d="m15.287 41.324h13.62v42.523l-13.62 10.295z" fill="#4285f4"/>
  <path d="m107.23 41.324c2.9397 0.000038 12.913 0.000094 12.913 0.000094l-0.00009 52.818h-12.913z" fill="#4285f4"/>
  <path d="m61.419 41.324c2.9397 0.000038 12.913 0.000094 12.913 0.000094l-0.0001 52.818h-12.913z" fill="#34a853"/>
  <path d="m74.331 41.324 4.422-0.000094 12.028 28.266 12.099-28.266 4.4222 0.000094v14.187l-12.167 28.478h-8.632l-12.17-28.478c-0.000099 0 0-14.186 0-14.186z" fill="#ea4335"/>
 </g>
</svg>
