<svg xmlns="http://www.w3.org/2000/svg" height="612" width="1275" version="1.1" viewBox="0 0 337.34375 161.925">
 <g transform="translate(0 -135.07)">
  <g transform="translate(30.908 .54554)">
   <g style="stroke:#999">
    <path d="m181 183.1h15.399l12.31 12.312 14.97 0.00073" style="stroke:#999;stroke-width:1.0583;fill:none"/>
    <path d="m218.31 190.15h5.3321" style="stroke:#999;stroke-width:1.0583;fill:none"/>
    <circle cx="217.12" cy="190.05" r="1.1691" style="stroke:#999;stroke-width:.66173;fill:none"/>
    <path d="m183.65 211.5 10.816-10.801h29.174" style="stroke:#999;stroke-width:1.0583;fill:none"/>
    <circle cx="182.88" cy="212.39" r="1.1691" style="stroke:#999;stroke-width:.66173;fill:none"/>
    <path d="m211.78 184.79h11.833" style="stroke:#999;stroke-width:1.0583;fill:none"/>
    <circle cx="210.52" cy="184.75" r="1.1691" style="stroke:#999;stroke-width:.66173;fill:none"/>
    <circle cx="269.21" cy="220.8" r="1.1691" style="stroke:#999;stroke-width:.66173;fill:none"/>
    <path d="m229.92 255.89h-38.624l-6.6421 6.652h-48.009" style="stroke:#999;stroke-width:1.0583;fill:none"/>
    <path d="m229.99 248.58h-39.165l-10.843 10.873h-43.373" style="stroke:#999;stroke-width:1.0583;fill:none"/>
    <path d="m179.14 246.01-13.087 0.00032" style="stroke:#999;stroke-width:1.0583;fill:none"/>
    <circle cx="180.47" cy="245.97" r="1.1691" style="stroke:#999;stroke-width:.66173;fill:none"/>
    <circle cx="164.7" cy="246" r="1.1691" style="stroke:#999;stroke-width:.66173;fill:none"/>
    <path d="m179.05 240.32h-12.558l-6.1959 5.9935" style="stroke:#999;stroke-width:1.0583;fill:none"/>
    <circle cx="159.48" cy="247.29" r="1.1691" style="stroke:#999;stroke-width:.66173;fill:none"/>
    <path d="m162.33 239.32-7.9255 7.934h-11.373l-2.9064 3.0194h-3.4405" style="stroke:#999;stroke-width:1.0583;fill:none"/>
    <circle cx="163.13" cy="238.28" r="1.1691" style="stroke:#999;stroke-width:.66173;fill:none"/>
    <path d="m155.6 240.83-3.628 3.681h-10.596l-2.399 2.6887h-2.3109" style="stroke:#999;stroke-width:1.0583;fill:none"/>
    <circle cx="156.42" cy="239.82" r="1.1691" style="stroke:#999;stroke-width:.66173;fill:none"/>
    <circle cx="180.47" cy="240.29" r="1.1691" style="stroke:#999;stroke-width:.66173;fill:none"/>
    <path d="m179.09 234.56-22.582 0.00019-6.4712 6.5302h-13.394" style="stroke:#999;stroke-width:1.0583;fill:none"/>
    <circle cx="180.47" cy="234.54" r="1.1691" style="stroke:#999;stroke-width:.66173;fill:none"/>
    <path d="m233.2 237.9v-1.6143l-7.5355-7.5306h-70.909l-6.0412 6.1584h-12.083" style="stroke:#999;stroke-width:1.0583;fill:none"/>
    <path d="m241.04 237.76v-2.4875l-12.355-12.363h-72.329l-8.8358 8.9592h-10.88" style="stroke:#999;stroke-width:1.0583;fill:none"/>
    <path d="m179.22 192.67v2.8466l-33.221 33.301-9.3219-0.0233" style="stroke:#999;stroke-width:1.0583;fill:none"/>
    <path d="m160.34 206.86-15.806 15.78h-7.9494" style="stroke:#999;stroke-width:1.0583;fill:none"/>
    <circle cx="161.27" cy="205.88" r="1.1691" style="stroke:#999;stroke-width:.66173;fill:none"/>
    <path d="m152.65 208.8-10.829 10.836h-5.1547" style="stroke:#999;stroke-width:1.0583;fill:none"/>
    <circle cx="153.5" cy="207.85" r="1.1691" style="stroke:#999;stroke-width:.66173;fill:none"/>
    <path d="m147.13 208.81-7.7031 7.6608h-2.7404" style="stroke:#999;stroke-width:1.0583;fill:none"/>
    <circle cx="148.07" cy="207.81" r="1.1691" style="stroke:#999;stroke-width:.66173;fill:none"/>
    <path d="m134.98 183.07h5.3321" style="stroke:#999;stroke-width:1.0583;fill:none"/>
    <circle cx="133.62" cy="183.08" r="1.1691" style="stroke:#999;stroke-width:.66173;fill:none"/>
    <path d="m35.983 152.01v-3.9688l-5.5562-5.5562v-3.7042" style="stroke:#999;stroke-width:1.0583;fill:none"/>
    <path d="m40.423 152.01v-4.4979l-4.7625-4.7625v-3.9688" style="stroke:#999;stroke-width:1.0583;fill:none"/>
    <path d="m49.411 152.01v-4.5" style="stroke:#999;stroke-width:1.0583;fill:none"/>
    <path d="m53.876 152.01v-4.5" style="stroke:#999;stroke-width:1.0583;fill:none"/>
    <circle cx="35.663" cy="137.58" r="1.1691" style="stroke:#999;stroke-width:.66173;fill:none"/>
    <circle cx="30.394" cy="137.58" r="1.1691" style="stroke:#999;stroke-width:.66173;fill:none"/>
    <circle cx="53.835" cy="146.32" r="1.1691" style="stroke:#999;stroke-width:.66173;fill:none"/>
    <circle cx="49.345" cy="146.32" r="1.1691" style="stroke:#999;stroke-width:.66173;fill:none"/>
    <path d="m27.029 201.3v4.4901l-11.563 11.634" style="stroke:#999;stroke-width:1.0583;fill:none"/>
    <path d="m-28.038 263.46v-14.288l13.533-13.474" style="stroke:#999;stroke-width:1.0583;fill:none"/>
    <path d="m-15.451 216.47h-4.155" style="stroke:#999;stroke-width:.98196;fill:none"/>
    <circle cx="-20.993" cy="216.4" r="1.1691" style="stroke:#999;stroke-width:.66173;fill:none"/>
    <path d="m32.877 272.43h-9.776l-15.481-15.45v-5.8925" style="stroke:#999;stroke-width:1.0583;fill:none"/>
    <circle cx="34.16" cy="272.52" r="1.1691" style="stroke:#999;stroke-width:.66173;fill:none"/>
    <circle cx="-28.024" cy="264.38" r="1.1691" style="stroke:#999;stroke-width:.66173;fill:none"/>
    <path d="m31.506 201.34v28.902l-7.6281 7.6442h-6.4908" style="stroke:#999;stroke-width:1.0583;fill:none"/>
    <path d="m78.035 234.91h-5.086" style="stroke:#999;stroke-width:1.0583;fill:none"/>
    <circle cx="71.655" cy="234.89" r="1.1691" style="stroke:#999;stroke-width:.66173;fill:none"/>
    <path d="m78.023 231.84h-10.951l-3.5277 3.5719" style="stroke:#999;stroke-width:1.0583;fill:none"/>
    <circle cx="62.572" cy="236.33" r="1.1691" style="stroke:#999;stroke-width:.66173;fill:none"/>
    <path d="m78.049 228.79h-16.54l-2.6624 2.5429" style="stroke:#999;stroke-width:1.0583;fill:none"/>
    <circle cx="57.897" cy="232.18" r="1.1691" style="stroke:#999;stroke-width:.66173;fill:none"/>
    <circle style="stroke:#999;stroke-width:.66173;fill:none" transform="matrix(0,-1,-1,0,0,0)" cy="-64.697" cx="-212.75" r="1.1691"/>
    <circle style="stroke:#999;stroke-width:.66173;fill:none" transform="matrix(0,-1,-1,0,0,0)" cy="-71.49" cx="-212.86" r="1.1691"/>
    <path d="m44.867 201.33-0.000057 4.1759 20.094 20.21 13.124-0.00013" style="stroke:#999;stroke-width:1.0583;fill:none"/>
    <path d="m49.365 201.36 0.01654 2.9853 18.33 18.312 10.335 0.0265" style="stroke:#999;stroke-width:1.0583;fill:none"/>
    <path d="m78.005 216.51-2.9853-0.0165-2.6695-2.6713" style="stroke:#999;stroke-width:1.0583;fill:none"/>
    <path d="m78.039 219.52h-6.7556l-5.8798-5.8388" style="stroke:#999;stroke-width:1.0583;fill:none"/>
    <path d="m63.777 286.31h18.619l2.606-2.5971v-4.0963h-7.9685l-0.000105-4.823 2.2168-2.0951 3.3271 0.00006 1.773-1.7351v-2.1663" style="stroke:#999;stroke-width:1.0583;fill:none"/>
    <circle cx="62.454" cy="286.3" r="1.1691" style="stroke:#999;stroke-width:.66173;fill:none"/>
    <path d="m87.391 271.37 0.000086-2.5484" style="stroke:#999;stroke-width:1.0583;fill:none"/>
    <circle cx="87.379" cy="272.58" r="1.1691" style="stroke:#999;stroke-width:.66173;fill:none"/>
    <path d="m93.533 271.24 0.000086-2.5484" style="stroke:#999;stroke-width:1.0583;fill:none"/>
    <circle cx="93.521" cy="272.45" r="1.1691" style="stroke:#999;stroke-width:.66173;fill:none"/>
    <path d="m105.79 271.27 0.00009-2.5484" style="stroke:#999;stroke-width:1.0583;fill:none"/>
    <circle cx="105.78" cy="272.47" r="1.1691" style="stroke:#999;stroke-width:.66173;fill:none"/>
    <path d="m120.65 293.31h-7.7604l-9.3236-9.2657v-4.4601h-8.2785v-4.6029l4.4023-4.4306v-1.7694" style="stroke:#999;stroke-width:1.0583;fill:none"/>
    <path d="m124.19 271.24 0.00009-2.5484" style="stroke:#999;stroke-width:1.0583;fill:none"/>
    <circle cx="124.18" cy="272.45" r="1.1691" style="stroke:#999;stroke-width:.66173;fill:none"/>
    <circle cx="121.75" cy="293.4" r="1.1691" style="stroke:#999;stroke-width:.66173;fill:none"/>
    <path d="m138.93 290.54h-10.66l-6.3068-6.1787v-4.6706l-8.0447 0.00004v-4.3925l4.1685-4.1032 0.00004-2.4242" style="stroke:#999;stroke-width:1.0583;fill:none"/>
    <circle cx="140.05" cy="290.6" r="1.1691" style="stroke:#999;stroke-width:.66173;fill:none"/>
    <path d="m154.43 275.24h-5.4294l-4.2628 4.635h-12.344l0.00004-4.4422-5.125-5.178v-1.432" style="stroke:#999;stroke-width:1.0583;fill:none"/>
    <circle cx="155.56" cy="275.34" r="1.1691" style="stroke:#999;stroke-width:.66173;fill:none"/>
    <path d="m74.973 269.35v-4.81l2.0372-1.9944h1.0056" style="stroke:#999;stroke-width:1.0583;fill:none"/>
    <circle cx="74.999" cy="270.55" r="1.1691" style="stroke:#999;stroke-width:.66173;fill:none"/>
    <path d="m71.591 265.61v-5.1374l4.2123-4.0757h2.2451" style="stroke:#999;stroke-width:1.0583;fill:none"/>
    <circle cx="71.608" cy="266.74" r="1.1691" style="stroke:#999;stroke-width:.66173;fill:none"/>
    <path d="m40.426 201.29v30.067l12.178 12.114h18.752l5.4552-5.4458 1.3429-0.00012" style="stroke:#999;stroke-width:1.0583;fill:none"/>
    <path d="m35.963 201.35v33.623l15.311 15.32h26.867" style="stroke:#999;stroke-width:1.0583;fill:none"/>
    <path d="m27.054 151.97v-4.4979" style="stroke:#999;stroke-width:1.0583;fill:none"/>
    <circle cx="26.987" cy="146.28" r="1.1691" style="stroke:#999;stroke-width:.66173;fill:none"/>
    <path d="m84.36 210.32v-6.3588l-3.8078-3.8411h-17.606" style="stroke:#999;stroke-width:1.0583;fill:none"/>
    <path d="m140.29 190.53h-7.0866l-4.175 4.1646v9.5534l-1.76 1.7305v4.1919" style="stroke:#999;stroke-width:1.0583;fill:none"/>
    <path d="m140.29 175.66h-8.4934l-6.8033 6.6121v20.897l-3.86 3.781-0.00002 3.2658" style="stroke:#999;stroke-width:1.0583;fill:none"/>
    <path d="m87.423 210.21v-7.882l-8.122-8.1075v-4.1086" style="stroke:#999;stroke-width:1.0583;fill:none"/>
    <circle cx="79.292" cy="188.88" r="1.1691" style="stroke:#999;stroke-width:.66173;fill:none"/>
    <path d="m93.556 210.23v-11.917l3.207-3.0103v-4.348" style="stroke:#999;stroke-width:1.0583;fill:none"/>
    <circle cx="96.748" cy="189.68" r="1.1691" style="stroke:#999;stroke-width:.66173;fill:none"/>
    <path d="m96.64 210.18v-10.594l4.009-3.9694v-7.5007" style="stroke:#999;stroke-width:1.0583;fill:none"/>
    <circle cx="100.61" cy="186.85" r="1.1691" style="stroke:#999;stroke-width:.66173;fill:none"/>
    <path d="m102.74 210.21v-8.7693" style="stroke:#999;stroke-width:1.0583;fill:none"/>
    <circle cx="102.75" cy="200.15" r="1.1691" style="stroke:#999;stroke-width:.66173;fill:none"/>
    <path d="m111.96 210.21v-4.1613l3.529-3.4237v-37.308l11.964-11.88h12.84" style="stroke:#999;stroke-width:1.0583;fill:none"/>
    <path d="m114.99 210.22v-4.1613l3.2948-3.2133v-36.326l2.8675-2.8301h11.155l3.0062-2.923h4.8996" style="stroke:#999;stroke-width:1.0583;fill:none"/>
    <path d="m248.87 237.74v-4.0619l-3.093-3.0715v-3.4351" style="stroke:#999;stroke-width:1.0583;fill:none"/>
    <circle cx="245.78" cy="225.84" r="1.1691" style="stroke:#999;stroke-width:.66173;fill:none"/>
    <path d="m256.68 237.72-0.00032-2.612 5.4543-5.4101v-7.6446" style="stroke:#999;stroke-width:1.0583;fill:none"/>
    <circle cx="262.13" cy="220.83" r="1.1691" style="stroke:#999;stroke-width:.66173;fill:none"/>
    <path d="m264.62 237.72v-2.1159l4.594-4.5998v-8.8353" style="stroke:#999;stroke-width:1.0583;fill:none"/>
    <path d="m272.4 237.75v-1.882l4.875-4.9272v-8.7417" style="stroke:#999;stroke-width:1.0583;fill:none"/>
    <circle cx="277.28" cy="220.83" r="1.1691" style="stroke:#999;stroke-width:.66173;fill:none"/>
    <path d="m288.1 237.65v-2.916l16.41-16.405 0.0117-55.28-4.4541-4.4836h-11.767" style="stroke:#999;stroke-width:1.0583;fill:none"/>
    <path d="m280.33 237.65v-3.6436l20.655-20.682 0.00005-18.658-4.4541-4.4836h-8.3994" style="stroke:#999;stroke-width:1.0583;fill:none"/>
    <path d="m288.23 200.65h5.3321" style="stroke:#999;stroke-width:1.0583;fill:none"/>
    <path d="m288.16 195.34h5.3321" style="stroke:#999;stroke-width:1.0583;fill:none"/>
    <circle cx="294.78" cy="200.68" r="1.1691" style="stroke:#999;stroke-width:.66173;fill:none"/>
    <circle cx="294.78" cy="195.27" r="1.1691" style="stroke:#999;stroke-width:.66173;fill:none"/>
    <path d="m288.13 184.82h5.3321" style="stroke:#999;stroke-width:1.0583;fill:none"/>
    <circle cx="294.78" cy="184.75" r="1.1691" style="stroke:#999;stroke-width:.66173;fill:none"/>
    <path d="m181.08 168.3h22.743l9.874-9.881h10.051" style="stroke:#999;stroke-width:1.0583;fill:none"/>
    <path d="m180.91 160.99 20.72-0.0116 7.728-7.7288h14.325" style="stroke:#999;stroke-width:1.0583;fill:none"/>
    <path d="m208.07 173.72 9.874-9.881h5.8578" style="stroke:#999;stroke-width:1.0583;fill:none"/>
    <circle cx="207.15" cy="174.69" r="1.1691" style="stroke:#999;stroke-width:.66173;fill:none"/>
    <path d="m201.05 143.9 4.0932 4.069h18.568" style="stroke:#999;stroke-width:1.0583;fill:none"/>
    <circle cx="200.26" cy="142.91" r="1.1691" style="stroke:#999;stroke-width:.66173;fill:none"/>
    <path d="m288.24 163.75h5.3321" style="stroke:#999;stroke-width:1.0583;fill:none"/>
    <circle cx="294.86" cy="163.68" r="1.1691" style="stroke:#999;stroke-width:.66173;fill:none"/>
    <path d="m288.17 153.17h11.98" style="stroke:#999;stroke-width:1.0583;fill:none"/>
    <circle cx="301.44" cy="153.1" r="1.1691" style="stroke:#999;stroke-width:.66173;fill:none"/>
    <path d="m288.22 148h5.3321" style="stroke:#999;stroke-width:1.0583;fill:none"/>
    <circle cx="294.86" cy="147.92" r="1.1691" style="stroke:#999;stroke-width:.66173;fill:none"/>
    <path d="m180.9 175.7h5.3321" style="stroke:#999;stroke-width:1.0583;fill:none"/>
    <circle cx="187.6" cy="175.66" r="1.1691" style="stroke:#999;stroke-width:.66173;fill:none"/>
   </g>
   <path style="fill:#ccc;fill-rule:evenodd" d="m25.842 151.93v12.7h2.3812v-12.7h-1.1906zm4.4716 0v12.7h2.3812v-12.7h-1.1906zm4.4716 0v12.7h2.3812v-12.7h-1.1906zm4.4716 0v12.7h2.3812v-12.7h-1.1906zm4.471 0v12.7h2.3812v-12.7h-1.1906zm4.4716 0v12.7h2.3812v-12.7h-1.1906zm4.4716 0v12.7h2.3812v-12.7h-1.1906zm4.4716 0v12.7h2.3812v-12.7h-1.193zm4.4716 0v12.7h2.3812v-12.7h-1.1906zm-35.772 36.777v12.7h2.3812v-12.7h-1.1906zm4.4716 0v12.7h2.3812v-12.7h-1.1906zm4.4716 0v12.7h2.3812v-12.7h-1.1906zm4.4716 0v12.7h2.3812v-12.7h-1.1906zm4.471 0v12.7h2.3812v-12.7h-1.1906zm4.4716 0v12.7h2.3812v-12.7h-1.1906zm4.4716 0v12.7h2.3812v-12.7h-1.1906zm4.4716 0v12.7h2.3812v-12.7h-1.196zm4.4716 0v12.7h2.3812v-12.7h-1.1906z"/>
   <path style="fill:#ccc;fill-rule:evenodd" d="m83.426 210.15v4.2333h1.8521v-4.2333h-0.92604zm3.066 0v4.2333h1.8521v-4.2333h-0.926zm3.066 0v4.2333h1.8521v-4.2333h-0.92604zm3.066 0v4.2333h1.8521v-4.2333h-0.92604zm3.066 0v4.2333h1.8521v-4.2333h-0.92604zm3.066 0v4.2333h1.8521v-4.2333h-0.92604zm3.066 0v4.2333h1.8521v-4.2333h-0.92604zm3.066 0v4.2333h1.8521v-4.2333h-0.92604zm3.066 0v4.2333h1.8521v-4.2333h-0.92604zm3.066 0v4.2333h1.8521v-4.2333h-0.92604zm3.066 0v4.2333h1.8521v-4.2333h-0.92604zm3.0665 0v4.2333h1.8521v-4.2333h-0.92604zm3.066 0v4.2333h1.8521v-4.2333h-0.92604zm3.066 0v4.2333h1.8521v-4.2333h-0.92605zm3.066 0v4.2333h1.8521v-4.2333h-0.92604zm3.066 0v4.2333h1.8521v-4.2333h-0.92604zm-51.438 5.4472v1.8521h4.2333v-1.8521zm54.504 0.00053v1.8521h4.2333v-1.8521zm-54.504 3.0654v1.8521h4.2333v-1.8521zm54.504 0.00053v1.8521h4.2333v-1.8521zm-54.504 3.0654v1.8521h4.2333v-1.8521zm54.504 0.00053v1.8521h4.2333v-1.8521zm-54.504 3.0654v1.8521h4.2333v-1.8521zm54.504 0.00053v1.8521h4.2333v-1.8521zm-54.504 3.0654v1.8521h4.2333v-1.8521zm54.504 0.00053v1.8521h4.2333v-1.8521zm-54.504 3.0654v1.8521h4.2333v-1.8521zm54.504 0.00053v1.8521h4.2333v-1.8521zm-54.504 3.0654v1.8521h4.2333v-1.8521zm54.504 0.00053v1.8521h4.2333v-1.8521zm-54.504 3.0654v1.8521h4.2333v-1.8521zm54.504 0.00053v1.8521h4.2333v-1.8521zm-54.504 3.0654v1.8521h4.2333v-1.8521zm54.504 0.00053v1.8521h4.2333v-1.8521zm-54.504 3.0654v1.8521h4.2333v-1.8521zm54.504 0.00053v1.8521h4.2333v-1.8521zm-54.504 3.0654v1.8521h4.2333v-1.8521zm54.504 0.00053v1.8521h4.2333v-1.8521zm-54.504 3.066v1.8521h4.2333v-1.8521zm54.504 0.00053v1.8521h4.2333v-1.8521zm-54.504 3.0654v1.8521h4.2333v-1.8521zm54.504 0.00053v1.8521h4.2333v-1.8521zm-54.504 3.0654v1.8521h4.2333v-1.8521zm54.504 0.00053v1.8521h4.2333v-1.8521zm-54.504 3.0654v1.8521h4.2333v-1.8521zm54.504 0.00052v1.8521h4.2333v-1.8521zm-54.504 3.0654v1.8521h4.2333v-1.8521zm54.504 0.00053v1.8521h4.2333v-1.8521zm-49.057 3.0665v4.2333h1.8521v-4.2333h-0.92604zm3.066 0v4.2333h1.8521v-4.2333h-0.92604zm3.066 0v4.2333h1.8521v-4.2333h-0.92604zm3.066 0v4.2333h1.8521v-4.2333h-0.92604zm3.066 0v4.2333h1.8521v-4.2333h-0.92604zm3.066 0v4.2333h1.8521v-4.2333h-0.92604zm3.066 0v4.2333h1.8521v-4.2333h-0.92604zm3.066 0v4.2333h1.8521v-4.2333h-0.92605zm3.066 0v4.2333h1.8521v-4.2333h-0.92604zm3.066 0v4.2333h1.8521v-4.2333h-0.92604zm3.066 0v4.2333h1.8521v-4.2333h-0.92604zm3.0665 0v4.2333h1.8521v-4.2333h-0.92605zm3.066 0v4.2333h1.8521v-4.2333h-0.92604zm3.066 0v4.2333h1.8521v-4.2333h-0.92604zm3.066 0v4.2333h1.8521v-4.2333h-0.92604zm3.066 0v4.2333h1.8521v-4.2333h-0.92604z"/>
   <rect style="fill:#ccc;fill-rule:evenodd" rx="4.9808" ry="3.5903e-15" height="3.2101" width="10.067" y="278.03" x="131.54"/>
   <rect style="fill:#ccc;fill-rule:evenodd" rx="4.9808" ry="3.5903e-15" height="3.2101" width="10.067" y="278.03" x="113.07"/>
   <rect style="fill:#ccc;fill-rule:evenodd" rx="4.9808" ry="3.5903e-15" height="3.2101" width="10.067" y="278.03" x="94.357"/>
   <rect style="fill:#ccc;fill-rule:evenodd" rx="4.9808" ry="3.5903e-15" height="3.2101" width="10.067" y="278.03" x="75.941"/>
   <rect style="fill:#ccc;fill-rule:evenodd" rx="6.2504" ry="4.0304e-15" height="3.5925" width="7.8794" y="244.33" x="168.52"/>
   <rect style="fill:#ccc;fill-rule:evenodd" rx="6.2504" ry="4.0304e-15" height="3.5925" width="7.8794" y="238.46" x="168.52"/>
   <rect style="fill:#ccc;fill-rule:evenodd" rx="6.2504" ry="4.0304e-15" height="3.5925" width="7.8794" y="232.53" x="168.52"/>
   <rect style="fill:#ccc;fill-rule:evenodd" rx="6.2504" ry="4.0304e-15" height="3.5925" width="7.8794" y="226.73" x="168.52"/>
   <rect style="fill:#ccc;fill-rule:evenodd" rx="6.2504" ry="4.0304e-15" height="3.5925" width="7.8794" y="220.81" x="168.52"/>
   <path d="m223.57 183.23v3.175h18.521v-3.175h-12.156zm46.302 0v3.175h18.521v-3.175h-12.156zm-46.302 5.2917v3.175h18.521v-3.175h-12.156zm46.302 0v3.175h18.521v-3.175h-12.156zm-46.302 5.2917v3.175h18.521v-3.175h-12.156zm46.302 0v3.175h18.521v-3.175h-12.156zm-46.302 5.2917v3.175h18.521v-3.175h-12.156zm46.302 0v3.175h18.521v-3.175h-12.156z" style="fill:#ccc;fill-rule:evenodd"/>
   <path d="m223.57 146.37v3.175h18.521v-3.175h-12.156zm46.302 0v3.175h18.521v-3.175h-12.156zm-46.302 5.2917v3.175h18.521v-3.175h-12.156zm46.302 0v3.175h18.521v-3.175h-12.156zm-46.302 5.2917v3.175h18.521v-3.175h-12.156zm46.302 0v3.175h18.521v-3.175h-12.156zm-46.302 5.2917v3.175h18.521v-3.175h-12.156zm46.302 0v3.175h18.521v-3.175h-12.156z" style="fill:#ccc;fill-rule:evenodd"/>
   <path style="fill:#ccc;fill-rule:evenodd" d="m140.15 151.19v4.4979h9.2604v-4.4979h-4.6302zm31.75 0v4.4979h9.2604v-4.4979h-4.6302zm-31.75 7.4083v4.4979h9.2604v-4.4979h-4.6302zm31.75 0v4.4979h9.2604v-4.4979h-4.6302zm-31.75 7.4083v4.4979h9.2604v-4.4979h-4.6302zm31.75 0v4.4979h9.2604v-4.4979h-4.6302zm-31.75 7.4088v4.4979h9.2604v-4.4979h-4.6302zm31.75 0v4.4979h9.2604v-4.4979h-4.6302zm-31.75 7.4083v4.4979h9.2604v-4.4979h-4.6302zm31.75 0v4.4979h9.2604v-4.4979h-4.6302zm-31.75 7.4083v4.4979h9.2604v-4.4979h-4.6302zm31.75 0v4.4979h9.2604v-4.4979h-4.6302z"/>
   <g style="stroke:#ccc" transform="translate(0 .066101)">
    <circle r="2.3807" style="stroke:#ccc;stroke-width:2;fill:none" cx="233.2" cy="241.01"/>
    <circle r="2.3807" style="stroke:#ccc;stroke-width:2;fill:none" cx="233.2" cy="248.45"/>
    <circle r="2.3807" style="stroke:#ccc;stroke-width:2;fill:none" cx="233.2" cy="255.92"/>
    <circle r="2.3807" style="stroke:#ccc;stroke-width:2;fill:none" cx="241.04" cy="241.01"/>
    <circle r="2.3807" style="stroke:#ccc;stroke-width:2;fill:none" cx="241.04" cy="248.45"/>
    <circle r="2.3807" style="stroke:#ccc;stroke-width:2;fill:none" cx="241.04" cy="255.92"/>
    <circle r="2.3807" style="stroke:#ccc;stroke-width:2;fill:none" cx="248.87" cy="240.99"/>
    <circle r="2.3807" style="stroke:#ccc;stroke-width:2;fill:none" cx="248.87" cy="248.43"/>
    <circle r="2.3807" style="stroke:#ccc;stroke-width:2;fill:none" cx="248.87" cy="255.91"/>
    <circle r="2.3807" style="stroke:#ccc;stroke-width:2;fill:none" cx="256.71" cy="240.97"/>
    <circle r="2.3807" style="stroke:#ccc;stroke-width:2;fill:none" cx="256.71" cy="248.42"/>
    <circle r="2.3807" style="stroke:#ccc;stroke-width:2;fill:none" cx="256.71" cy="255.89"/>
    <circle r="2.3807" style="stroke:#ccc;stroke-width:2;fill:none" cx="264.55" cy="240.97"/>
    <circle r="2.3807" style="stroke:#ccc;stroke-width:2;fill:none" cx="264.55" cy="248.42"/>
    <circle r="2.3807" style="stroke:#ccc;stroke-width:2;fill:none" cx="264.55" cy="255.89"/>
    <circle r="2.3807" style="stroke:#ccc;stroke-width:2;fill:none" cx="272.39" cy="240.96"/>
    <circle r="2.3807" style="stroke:#ccc;stroke-width:2;fill:none" cx="272.39" cy="248.4"/>
    <circle r="2.3807" style="stroke:#ccc;stroke-width:2;fill:none" cx="272.39" cy="255.87"/>
    <circle r="2.3807" style="stroke:#ccc;stroke-width:2;fill:none" cx="280.23" cy="240.94"/>
    <circle r="2.3807" style="stroke:#ccc;stroke-width:2;fill:none" cx="280.23" cy="248.38"/>
    <circle r="2.3807" style="stroke:#ccc;stroke-width:2;fill:none" cx="280.23" cy="255.86"/>
    <circle r="2.3807" style="stroke:#ccc;stroke-width:2;fill:none" cx="288.07" cy="240.94"/>
    <circle r="2.3807" style="stroke:#ccc;stroke-width:2;fill:none" cx="288.07" cy="248.38"/>
    <circle r="2.3807" style="stroke:#ccc;stroke-width:2;fill:none" cx="288.07" cy="255.86"/>
   </g>
   <g transform="translate(-5.3202 -76.99)">
    <g transform="translate(.53454 2.4054)">
     <g transform="matrix(1.6601 0 0 1.6605 -18.839 -157.9)">
      <path style="fill:#3e863d;fill-rule:evenodd" transform="matrix(.26458 0 0 .26458 0 138.25)" d="m111.64 381.38a3.7795 3.7795 0 0 0 -3.7793 3.7793v47.244a3.7795 3.7795 0 0 0 3.7793 3.7793h88.819a3.7795 3.7795 0 0 0 3.7793 -3.7793v-47.24a3.7795 3.7795 0 0 0 -3.7793 -3.7793h-79.475z"/>
      <path style="fill:#499e48;fill-rule:evenodd" transform="matrix(.26458 0 0 .26458 0 138.25)" d="m111.64 383.27a1.8898 1.8898 0 0 0 -1.8906 1.8906v47.242a1.8898 1.8898 0 0 0 1.8906 1.8906h88.819a1.8898 1.8898 0 0 0 1.8906 -1.8906v-47.24a1.8898 1.8898 0 0 0 -1.8906 -1.8906h-78.1zm80.314 5.6699a4.7244 4.7244 0 0 1 4.7246 4.7246 4.7244 4.7244 0 0 1 -4.7246 4.7227 4.7244 4.7244 0 0 1 -4.7226 -4.7227 4.7244 4.7244 0 0 1 4.7226 -4.7246z"/>
     </g>
     <g transform="matrix(.037880 0 0 .037880 46.774 240.21)">
      <path style="stroke-width:.18496;fill:#f2f2f2" transform="matrix(6.9848 0 0 6.9848 -3269 -1292.5)" d="m432.36 214.11a1.8898 1.8898 60 0 0 -0.81445 0.21875l-0.1543 0.0879a1.8898 1.8898 60 0 0 -0.0254 0.0156l-17.902 10.336-0.006 0.002-0.0156 0.01a1.8898 1.8898 0 0 0 -0.16211 0.0957 1.8898 1.8898 0 0 0 -0.85156 1.5371v0.10938a1.8898 1.8898 0 0 0 0.002 0.0664v20.699a1.8898 1.8898 30 0 0 0.8711 1.6719l0.18945 0.10937 17.838 10.299 0.0645 0.0371a1.8898 1.8898 60 0 0 0.006 0.004l0.004 0.002 0.0137 0.006a1.8898 1.8898 60 0 0 1.918 0.0625l0.008-0.004 0.0781-0.0449a1.8898 1.8898 60 0 0 0.0137 -0.01 1.8898 1.8898 60 0 0 0.0547 -0.0332l17.902-10.336a1.8898 1.8898 0 0 0 0.006 -0.002l0.0156-0.01a1.8898 1.8898 0 0 0 0.16211 -0.0957 1.8898 1.8898 0 0 0 0.85156 -1.5371v-0.10937a1.8898 1.8898 0 0 0 -0.002 -0.0664v-20.699a1.8898 1.8898 30 0 0 -0.88672 -1.6797l-0.14258-0.082a1.8898 1.8898 30 0 0 -0.0312 -0.0176l-17.95-10.36a1.8898 1.8898 60 0 0 -0.008 -0.004 1.8898 1.8898 60 0 0 -1.0703 -0.28906zm77.455 8.8301a0.40339 0.40339 0 0 0 -0.19922 0.0527 0.40321 0.40321 0 0 0 -0.19922 0.34766v10.18c0 0.0999-0.0462 0.19011-0.13281 0.24024a0.27762 0.27762 0 0 1 -0.2793 0l-1.6641-0.95898a0.79717 0.79717 0 0 0 -0.79883 0l-6.6406 3.832c-0.24822 0.14334-0.39844 0.42034-0.39844 0.70703v7.66c0 0.28631 0.15041 0.54806 0.39844 0.69141l6.6406 3.834a0.79532 0.79532 0 0 0 0.79883 0l6.6406-3.834a0.7968 0.7968 0 0 0 0.39 -0.69v-19.109a0.81123 0.81123 0 0 0 -0.41211 -0.70507l-3.9512-2.209c-0.062-0.0346-0.13237-0.0419-0.20117-0.041zm-42.717 9.5684c-0.12651 0.005-0.24581 0.0279-0.35937 0.0937l-6.6406 3.832a0.79532 0.79532 0 0 0 -0.40039 0.6914l0.0137 10.289c0 0.14297 0.0734 0.27578 0.19922 0.3457a0.38767 0.38767 0 0 0 0.40039 0l3.9395-2.2637c0.24951-0.14834 0.41211-0.40546 0.41211-0.69141v-4.8047c0-0.28668 0.14985-0.54898 0.39843-0.6914l1.6777-0.97071a0.78626 0.78626 0 0 1 0.39844 -0.10742c0.13686 0 0.27868 0.0351 0.40039 0.10742l1.6758 0.97071a0.79458 0.79458 0 0 1 0.40039 0.6914v4.8047c0 0.28595 0.16426 0.54492 0.41211 0.69141l3.9394 2.2637a0.38767 0.38767 0 0 0 0.39844 0 0.40025 0.40025 0 0 0 0.19922 -0.34766l0.0137-10.287a0.79162 0.79162 0 0 0 -0.39844 -0.6914l-6.6406-3.832c-0.11227-0.0658-0.23194-0.0886-0.35938-0.0937zm59.672 0.0937c-0.13872 0-0.27592 0.0341-0.40039 0.10546l-6.6406 3.834a0.79643 0.79643 0 0 0 -0.39844 0.69141v7.666c0 0.28835 0.16205 0.54881 0.41211 0.69141l6.5879 3.752c0.24323 0.13872 0.54028 0.14999 0.78516 0.0137l3.9922-2.2226c0.1267-0.0703 0.21233-0.20144 0.21289-0.34571a0.39322 0.39322 0 0 0 -0.19922 -0.3457l-6.6816-3.832c-0.12503-0.0714-0.21289-0.21585-0.21289-0.35938v-2.3965c0-0.14334 0.0888-0.27431 0.21289-0.3457l2.0762-1.1973a0.39858 0.39858 0 0 1 0.40039 0l2.0762 1.1973a0.39803 0.39803 0 0 1 0.19922 0.3457v1.8906a0.39766 0.39766 0 0 0 0.19922 0.34571c0.12448 0.072 0.27433 0.0721 0.39844 0l3.9805-2.3164a0.79994 0.79994 0 0 0 0.39844 -0.69141v-1.8496c0-0.28576-0.15078-0.54788-0.39844-0.69141l-6.6016-3.834a0.79144 0.79144 0 0 0 -0.39844 -0.10546zm-19.865 5.7226a0.17534 0.17534 0 0 1 0.01 0c0.0348 0 0.0744 0.007 0.10547 0.0254l2.2773 1.3184c0.0618 0.0357 0.10547 0.10067 0.10547 0.17188v2.6348c0 0.0716-0.0433 0.13814-0.10547 0.17383l-2.2773 1.3184a0.20123 0.20123 0 0 1 -0.19922 0l-2.2754-1.3184c-0.062-0.0359-0.10547-0.10225-0.10547-0.17383v-2.6348c0-0.0714 0.0437-0.13581 0.10547-0.17188l2.2754-1.3184a0.17534 0.17534 0 0 1 0.084 -0.0254z"/>
      <path style="stroke-width:4.8828;fill:#4d4d4d" transform="matrix(.26458 0 0 .26458 0 138.25)" d="m502.42 731.93c-3.6523 0-7.2657 0.92776-10.537 2.8125l-175.31 100.83c-6.5576 3.7744-10.541 11.059-10.541 18.617v202.36c0 7.5683 3.9884 14.482 10.541 18.272l175.31 101.18a20.981 20.981 0 0 0 21.078 0l175.31-101.18a21.035 21.035 0 0 0 10.537 -18.272v-202.41c0-7.5683-3.9844-14.843-10.537-18.617l-175.31-100.83a20.981 20.981 0 0 0 -10.541 -2.8125z"/>
     </g>
    </g>
    <path style="fill:#808080;fill-rule:evenodd" transform="matrix(.26458 0 0 .26458 0 138.25)" d="m122.28 352a4.5 2.7 0 0 0 -4.5 2.6992v36h9v-36a4.5 2.7 0 0 0 -4.5 -2.6992zm16.9 0a4.5 2.7 0 0 0 -4.5 2.6992v36h9v-36a4.5 2.7 0 0 0 -4.5 -2.6992zm16.9 0a4.5 2.7 0 0 0 -4.5 2.6992v36h9v-36a4.5 2.7 0 0 0 -4.5 -2.6992zm16.9 0a4.5 2.7 0 0 0 -4.5 2.6992v36h9v-36a4.5 2.7 0 0 0 -4.5 -2.6992zm16.898 0a4.5 2.7 0 0 0 -4.5 2.6992v36h9v-36a4.5 2.7 0 0 0 -4.5 -2.6992zm16.9 0a4.5 2.7 0 0 0 -4.5 2.6992v36h9v-36a4.5 2.7 0 0 0 -4.5 -2.6992zm16.9 0a4.5 2.7 0 0 0 -4.5 2.6992v36h9v-36a4.5 2.7 0 0 0 -4.5 -2.6992zm16.9 0a4.5 2.7 0 0 0 -4.5 2.6992v36h9v-36a4.5 2.7 0 0 0 -4.5 -2.6992zm16.9 0a4.5 2.7 0 0 0 -4.5 2.6992v36h9v-36a4.5 2.7 0 0 0 -4.5 -2.6992zm-139.7 129.7v36a4.5 2.7 0 0 0 4.5 2.6992 4.5 2.7 0 0 0 4.5 -2.6992v-36h-4.5zm16.9 0v36a4.5 2.7 0 0 0 4.5 2.6992 4.5 2.7 0 0 0 4.5 -2.6992v-36h-4.5zm16.9 0v36a4.5 2.7 0 0 0 4.5 2.6992 4.5 2.7 0 0 0 4.5 -2.6992v-36h-4.5zm16.9 0v36a4.5 2.7 0 0 0 4.5 2.6992 4.5 2.7 0 0 0 4.5 -2.6992v-36h-4.5zm16.898 0v36a4.5 2.7 0 0 0 4.5 2.6992 4.5 2.7 0 0 0 4.5 -2.6992v-36h-4.5zm16.9 0v36a4.5 2.7 0 0 0 4.5 2.6992 4.5 2.7 0 0 0 4.5 -2.6992v-36h-4.5zm16.9 0v36a4.5 2.7 0 0 0 4.5 2.6992 4.5 2.7 0 0 0 4.5 -2.6992v-36h-4.5zm16.9 0v36a4.5 2.7 0 0 0 4.5 2.6992 4.5 2.7 0 0 0 4.5 -2.6992v-36h-4.5zm16.9 0v36a4.5 2.7 0 0 0 4.5 2.6992 4.5 2.7 0 0 0 4.5 -2.6992v-36h-4.5z"/>
    <path style="fill:#b3b3b3;fill-rule:evenodd" transform="matrix(.26458 0 0 .26458 0 138.25)" d="m119.13 357.4v33.301h6.3008v-33.301h-3.1504zm16.9 0v33.301h6.3008v-33.301h-3.1504zm16.9 0v33.301h6.3008v-33.301h-3.1504zm16.9 0v33.301h6.2988v-33.301h-3.1484zm16.9 0v33.301h6.2988v-33.301h-3.1504zm16.898 0v33.301h6.3008v-33.301h-3.1504zm16.9 0v33.301h6.3008v-33.301h-3.1504zm16.9 0v33.301h6.3008v-33.301h-3.1504zm16.9 0v33.301h6.2988v-33.301h-3.1484zm-135.2 124.3v33.301h6.3008v-33.301h-3.1504zm16.9 0v33.301h6.3008v-33.301h-3.1504zm16.9 0v33.301h6.3008v-33.301h-3.1504zm16.9 0v33.301h6.2988v-33.301h-3.1484zm16.9 0v33.301h6.2988v-33.301h-3.1504zm16.898 0v33.301h6.3008v-33.301h-3.1504zm16.9 0v33.301h6.3008v-33.301h-3.1504zm16.9 0v33.301h6.3008v-33.301h-3.1504zm16.9 0v33.301h6.2988v-33.301h-3.1484z"/>
    <path style="opacity:0.529;fill:#333;fill-rule:evenodd" transform="matrix(.26458 0 0 .26458 0 138.25)" d="m119.13 373.54v6.2988h6.3008v-6.2988h-3.1504zm16.9 0v6.2988h6.3008v-6.2988h-3.1504zm16.9 0v6.2988h6.3008v-6.2988h-3.1504zm16.9 0v6.2988h6.2988v-6.2988h-3.1484zm16.9 0v6.2988h6.2988v-6.2988h-3.1504zm16.898 0v6.2988h6.3008v-6.2988h-3.1504zm16.9 0v6.2988h6.3008v-6.2988h-3.1504zm16.9 0v6.2988h6.3008v-6.2988h-3.1504zm16.9 0v6.2988h6.2988v-6.2988h-3.1484zm-135.2 119.02v6.2988h6.3008v-6.2988h-3.1504zm16.9 0v6.2988h6.3008v-6.2988h-3.1504zm16.9 0v6.2988h6.3008v-6.2988h-3.1504zm16.9 0v6.2988h6.2988v-6.2988h-3.1484zm16.9 0v6.2988h6.2988v-6.2988h-3.1504zm16.898 0v6.2988h6.3008v-6.2988h-3.1504zm16.9 0v6.2988h6.3008v-6.2988h-3.1504zm16.9 0v6.2988h6.3008v-6.2988h-3.1504zm16.9 0v6.2988h6.2988v-6.2988h-3.1484z"/>
   </g>
   <g transform="translate(-16.144 22.447)">
    <path style="fill:#dab92d;fill-rule:evenodd" d="m99.678 191.94a1.3229 1.3229 0 0 0 -1.3229 1.3229v47.625a1.3229 1.3229 0 0 0 1.3229 1.3229h47.626a1.3229 1.3229 0 0 0 1.3229 -1.3229v-47.625a1.3229 1.3229 0 0 0 -1.3229 -1.3229h-46.05z"/>
    <path d="m376.74 205.41a2.5 2.5 0 0 0 -2.5 2.5v180a2.5 2.5 0 0 0 2.5 2.5h180a2.5 2.5 0 0 0 2.5 -2.5v-180a2.5 2.5 0 0 0 -2.5 -2.5h-171.83zm14.5 9a8 8 0 0 1 8 8 8 8 0 0 1 -8 8 8 8 0 0 1 -8 -8 8 8 0 0 1 8 -8z" style="fill:#ffd83a;fill-rule:evenodd" transform="matrix(.26458 0 0 .26458 0 138.25)"/>
    <g aria-label="JS" transform="translate(10.557 28.464)">
     <path transform="matrix(.26458 0 0 .26458 -10.557 109.79)" d="m536.55 347.02c-3.0556 0-5.5423 0.78601-7.459 2.3555-1.9028 1.5556-2.8535 3.5271-2.8535 5.916 0 2.1111 0.77647 3.8896 2.332 5.334 1.5694 1.4306 4.0694 2.6389 7.5 3.625 2.7361 0.79169 4.6263 1.5966 5.668 2.416 1.0417 0.80557 1.5625 1.9514 1.5625 3.4375-0.00001 1.4861-0.56249 2.6604-1.6875 3.5215-1.125 0.86113-2.7444 1.291-4.8555 1.291-2.2639 0-4.0764-0.52841-5.4375-1.584-1.3472-1.0694-2.0195-2.5202-2.0195-4.3535h-4.0215c0 1.7639 0.48676 3.3396 1.459 4.7285 0.9861 1.3889 2.3819 2.4874 4.1875 3.293 1.8056 0.79166 3.7487 1.1875 5.832 1.1875 3.2083 0 5.7708-0.73678 7.6875-2.209 1.9166-1.4861 2.875-3.4577 2.875-5.916 0-1.5416-0.34659-2.8826-1.041-4.0215-0.68057-1.1389-1.7355-2.1313-3.166-2.9785-1.4167-0.8611-3.3902-1.6471-5.918-2.3555-2.5139-0.70833-4.298-1.4848-5.3535-2.332-1.0417-0.86112-1.5625-1.9104-1.5625-3.1465 0-1.5417 0.54926-2.7424 1.6465-3.6035 1.1111-0.87501 2.6528-1.3125 4.625-1.3125 2.125 0 3.7708 0.52646 4.9375 1.582 1.1667 1.0417 1.75 2.4792 1.75 4.3125h4.0195c0-1.6806-0.45074-3.2279-1.3535-4.6445-0.88889-1.4167-2.1521-2.5284-3.791-3.334-1.625-0.80557-3.4792-1.209-5.5625-1.209zm-20.293 0.41797v21.541c-0.0139 1.875-0.53472 3.3333-1.5625 4.375-1.0139 1.0417-2.3472 1.5625-4 1.5625-1.8056 0-3.1862-0.48676-4.1445-1.459-0.94446-0.97224-1.418-2.3264-1.418-4.0625h-4c0 2.7778 0.84093 4.9388 2.5215 6.4805s4.0271 2.3125 7.041 2.3125c2.9028 0 5.2229-0.8201 6.959-2.459 1.75-1.6389 2.625-3.9097 2.625-6.8125v-21.479z"/>
    </g>
    <path style="fill:#666;fill-rule:evenodd" transform="matrix(.26458 0 0 .26458 0 138.25)" d="m379.83 188.91a3.5 2.0837 0 0 0 -3.5 2.084v11.916h7v-11.916a3.5 2.0837 0 0 0 -3.5 -2.084zm11.588 0a3.5 2.0837 0 0 0 -3.5 2.084v11.916h7v-11.916a3.5 2.0837 0 0 0 -3.5 -2.084zm11.588 0a3.5 2.0837 0 0 0 -3.5 2.084v11.916h7v-11.916a3.5 2.0837 0 0 0 -3.5 -2.084zm11.588 0a3.5 2.0837 0 0 0 -3.5 2.084v11.916h7v-11.916a3.5 2.0837 0 0 0 -3.5 -2.084zm11.588 0a3.5 2.0837 0 0 0 -3.5 2.084v11.916h7v-11.916a3.5 2.0837 0 0 0 -3.5 -2.084zm11.588 0a3.5 2.0837 0 0 0 -3.5 2.084v11.916h7v-11.916a3.5 2.0837 0 0 0 -3.5 -2.084zm11.588 0a3.5 2.0837 0 0 0 -3.5 2.084v11.916h7v-11.916a3.5 2.0837 0 0 0 -3.5 -2.084zm11.588 0a3.5 2.0837 0 0 0 -3.5 2.084v11.916h7v-11.916a3.5 2.0837 0 0 0 -3.5 -2.084zm11.588 0a3.5 2.0837 0 0 0 -3.5 2.084v11.916h7v-11.916a3.5 2.0837 0 0 0 -3.5 -2.084zm11.588 0a3.5 2.0837 0 0 0 -3.5 2.084v11.916h7v-11.916a3.5 2.0837 0 0 0 -3.5 -2.084zm11.588 0a3.5 2.0837 0 0 0 -3.5 2.084v11.916h7v-11.916a3.5 2.0837 0 0 0 -3.5 -2.084zm11.588 0a3.5 2.0837 0 0 0 -3.5 2.084v11.916h7v-11.916a3.5 2.0837 0 0 0 -3.5 -2.084zm11.59 0a3.5 2.0837 0 0 0 -3.502 2.084v11.916h7v-11.916a3.5 2.0837 0 0 0 -3.498 -2.084zm11.588 0a3.5 2.0837 0 0 0 -3.5 2.084v11.916h7v-11.916a3.5 2.0837 0 0 0 -3.5 -2.084zm11.588 0a3.5 2.0837 0 0 0 -3.5 2.084v11.916h7v-11.916a3.5 2.0837 0 0 0 -3.5 -2.084zm11.588 0a3.5 2.0837 0 0 0 -3.5 2.084v11.916h7v-11.916a3.5 2.0837 0 0 0 -3.5 -2.084zm-193.86 18.59a2.0837 3.5 0 0 0 -2.084 3.5 2.0837 3.5 0 0 0 2.084 3.5h11.916v-7zm201.92 0.002v7h11.916a2.0837 3.5 0 0 0 2.084 -3.5 2.0837 3.5 0 0 0 -2.084 -3.5zm-201.92 11.586a2.0837 3.5 0 0 0 -2.084 3.5 2.0837 3.5 0 0 0 2.084 3.5h11.916v-7zm201.92 0.002v7h11.916a2.0837 3.5 0 0 0 2.084 -3.5 2.0837 3.5 0 0 0 -2.084 -3.5zm-201.92 11.586a2.0837 3.5 0 0 0 -2.084 3.5 2.0837 3.5 0 0 0 2.084 3.5h11.916v-7zm201.92 0.002v7h11.916a2.0837 3.5 0 0 0 2.084 -3.5 2.0837 3.5 0 0 0 -2.084 -3.5zm-201.92 11.586a2.0837 3.5 0 0 0 -2.084 3.5 2.0837 3.5 0 0 0 2.084 3.5h11.916v-7zm201.92 0.002v7h11.916a2.0837 3.5 0 0 0 2.084 -3.5 2.0837 3.5 0 0 0 -2.084 -3.5zm-201.92 11.586a2.0837 3.5 0 0 0 -2.084 3.5 2.0837 3.5 0 0 0 2.084 3.5h11.916v-7zm201.92 0.002v7h11.916a2.0837 3.5 0 0 0 2.084 -3.5 2.0837 3.5 0 0 0 -2.084 -3.5zm-201.92 11.586a2.0837 3.5 0 0 0 -2.084 3.5 2.0837 3.5 0 0 0 2.084 3.5h11.916v-7zm201.92 0.002v7h11.916a2.0837 3.5 0 0 0 2.084 -3.5 2.0837 3.5 0 0 0 -2.084 -3.5zm-201.92 11.586a2.0837 3.5 0 0 0 -2.084 3.5 2.0837 3.5 0 0 0 2.084 3.5h11.916v-7zm201.92 0.002v7h11.916a2.0837 3.5 0 0 0 2.084 -3.5 2.0837 3.5 0 0 0 -2.084 -3.5zm-201.92 11.586a2.0837 3.5 0 0 0 -2.084 3.5 2.0837 3.5 0 0 0 2.084 3.5h11.916v-7zm201.92 0.002v7h11.916a2.0837 3.5 0 0 0 2.084 -3.5 2.0837 3.5 0 0 0 -2.084 -3.5zm-201.92 11.586a2.0837 3.5 0 0 0 -2.084 3.5 2.0837 3.5 0 0 0 2.084 3.5h11.916v-7zm201.92 0.002v7h11.916a2.0837 3.5 0 0 0 2.084 -3.5 2.0837 3.5 0 0 0 -2.084 -3.5zm-201.92 11.586a2.0837 3.5 0 0 0 -2.084 3.5 2.0837 3.5 0 0 0 2.084 3.5h11.916v-7zm201.92 0.002v7h11.916a2.0837 3.5 0 0 0 2.084 -3.5 2.0837 3.5 0 0 0 -2.084 -3.5zm-201.92 11.586a2.0837 3.5 0 0 0 -2.084 3.5 2.0837 3.5 0 0 0 2.084 3.5h11.916v-7zm201.92 0.002v7h11.916a2.0837 3.5 0 0 0 2.084 -3.5 2.0837 3.5 0 0 0 -2.084 -3.5zm-201.92 11.57a2.0837 3.5 0 0 0 -2.084 3.5 2.0837 3.5 0 0 0 2.084 3.5h11.916v-7zm201.92 0.002v7h11.916a2.0837 3.5 0 0 0 2.084 -3.5 2.0837 3.5 0 0 0 -2.084 -3.5zm-201.92 11.586a2.0837 3.5 0 0 0 -2.084 3.502 2.0837 3.5 0 0 0 2.084 3.498h11.916v-7zm201.92 0.004v6.998h11.916a2.0837 3.5 0 0 0 2.084 -3.498 2.0837 3.5 0 0 0 -2.084 -3.5zm-201.92 11.586a2.0837 3.5 0 0 0 -2.084 3.5 2.0837 3.5 0 0 0 2.084 3.5h11.916v-7zm201.92 0.002v7h11.916a2.0837 3.5 0 0 0 2.084 -3.5 2.0837 3.5 0 0 0 -2.084 -3.5zm-201.92 11.586a2.0837 3.5 0 0 0 -2.084 3.5 2.0837 3.5 0 0 0 2.084 3.5h11.916v-7zm201.92 0.002v7h11.916a2.0837 3.5 0 0 0 2.084 -3.5 2.0837 3.5 0 0 0 -2.084 -3.5zm-201.92 11.586a2.0837 3.5 0 0 0 -2.084 3.5 2.0837 3.5 0 0 0 2.084 3.5h11.916v-7zm201.92 0.002v7h11.916a2.0837 3.5 0 0 0 2.084 -3.5 2.0837 3.5 0 0 0 -2.084 -3.5zm-185.41 11.59v11.916a3.5 2.0837 0 0 0 3.5 2.084 3.5 2.0837 0 0 0 3.5 -2.084v-11.916h-3.5zm11.588 0v11.916a3.5 2.0837 0 0 0 3.5 2.084 3.5 2.0837 0 0 0 3.5 -2.084v-11.916h-3.5zm11.588 0v11.916a3.5 2.0837 0 0 0 3.5 2.084 3.5 2.0837 0 0 0 3.5 -2.084v-11.93h-3.51zm11.588 0v11.916a3.5 2.0837 0 0 0 3.5 2.084 3.5 2.0837 0 0 0 3.5 -2.084v-11.916h-3.5zm11.588 0v11.916a3.5 2.0837 0 0 0 3.5 2.084 3.5 2.0837 0 0 0 3.5 -2.084v-11.916h-3.5zm11.588 0v11.916a3.5 2.0837 0 0 0 3.5 2.084 3.5 2.0837 0 0 0 3.5 -2.084v-11.916h-3.5zm11.588 0v11.916a3.5 2.0837 0 0 0 3.5 2.084 3.5 2.0837 0 0 0 3.5 -2.084v-11.916h-3.5zm11.588 0v11.916a3.5 2.0837 0 0 0 3.5 2.084 3.5 2.0837 0 0 0 3.5 -2.084v-11.916h-3.5zm11.588 0v11.916a3.5 2.0837 0 0 0 3.5 2.084 3.5 2.0837 0 0 0 3.5 -2.084v-11.916h-3.5zm11.588 0v11.916a3.5 2.0837 0 0 0 3.5 2.084 3.5 2.0837 0 0 0 3.5 -2.084v-11.916h-3.5zm11.588 0v11.916a3.5 2.0837 0 0 0 3.5 2.084 3.5 2.0837 0 0 0 3.5 -2.084v-11.916h-3.5zm11.588 0v11.916a3.5 2.0837 0 0 0 3.5 2.084 3.5 2.0837 0 0 0 3.5 -2.084v-11.916h-3.5zm11.588 0v11.916a3.5 2.0837 0 0 0 3.502 2.084 3.5 2.0837 0 0 0 3.498 -2.084v-11.916h-3.498zm11.59 0v11.916a3.5 2.0837 0 0 0 3.5 2.084 3.5 2.0837 0 0 0 3.5 -2.084v-11.916h-3.5zm11.588 0v11.916a3.5 2.0837 0 0 0 3.5 2.084 3.5 2.0837 0 0 0 3.5 -2.084v-11.916h-3.5zm11.588 0v11.916a3.5 2.0837 0 0 0 3.5 2.084 3.5 2.0837 0 0 0 3.5 -2.084v-11.916h-3.5z"/>
    <path style="fill:#b3b3b3;fill-rule:evenodd" transform="matrix(.26458 0 0 .26458 0 138.25)" d="m377.38 191.91v11h4.8984v-11h-2.4492zm11.588 0v11h4.8984v-11h-2.4492zm11.588 0v11h4.9004v-11h-2.4512zm11.588 0v11h4.9004v-11h-2.4512zm11.588 0v11h4.9004v-11h-2.4512zm11.588 0v11h4.9004v-11h-2.4512zm11.588 0v11h4.9004v-11h-2.4512zm11.588 0v11h4.9004v-11h-2.4512zm11.588 0v11h4.9004v-11h-2.4512zm11.588 0v11h4.9004v-11h-2.4512zm11.588 0v11h4.9004v-11h-2.4512zm11.588 0v11h4.9004v-11h-2.4512zm11.588 0v11h4.9004v-11h-2.4492zm11.588 0v11h4.9004v-11h-2.4492zm11.588 0v11h4.9004v-11h-2.4492zm11.588 0v11h4.9004v-11h-2.4492zm-190.49 16.64v4.8992h11v-4.9zm201 0.002v4.8984h11v-4.8984zm-201 11.586v4.8984h11v-4.8984zm201 0.002v4.8984h11v-4.8984zm-201 11.586v4.9004h11v-4.9004zm201 0.002v4.9004h11v-4.9004zm-201 11.586v4.9004h11v-4.9004zm201 0.002v4.9004h11v-4.9004zm-201 11.586v4.9004h11v-4.9004zm201 0.002v4.9004h11v-4.9004zm-201 11.586v4.9004h11v-4.9004zm201 0.002v4.9004h11v-4.9004zm-201 11.586v4.9004h11v-4.9004zm201 0.002v4.9004h11v-4.9004zm-201 11.586v4.9004h11v-4.9004zm201 0.002v4.9004h11v-4.9004zm-201 11.586v4.9004h11v-4.9004zm201 0.002v4.9023h11v-4.9023zm-201 11.586v4.9004h11v-4.9004zm201 0.002v4.9004h11v-4.9004zm-201 11.586v4.9004h11v-4.9004zm201 0.002v4.9004h11v-4.9004zm-201 11.586v4.9004h11v-4.9004zm201 0.002v4.9004h11v-4.9004zm-201 11.586v4.9004h11v-4.9004zm201 0.002v4.9004h11v-4.9004zm-201 11.586v4.9004h11v-4.9004zm201 0.002v4.9004h11v-4.9004zm-201 11.586v4.9004h11v-4.9004zm201 0.002v4.9004h11v-4.9004zm-201 11.586v4.9004h11v-4.9004zm201 0.002v4.9004h11v-4.9004zm-184.36 10.51v11h4.8984v-11h-2.4492zm11.588 0v11h4.8984v-11h-2.4492zm11.588 0v11h4.8912v-11h-2.45zm11.588 0v11h4.9004v-11h-2.4512zm11.588 0v11h4.9004v-11h-2.4512zm11.588 0v11h4.9004v-11h-2.4512zm11.588 0v11h4.9004v-11h-2.4512zm11.588 0v11h4.9004v-11h-2.4512zm11.588 0v11h4.9004v-11h-2.4512zm11.588 0v11h4.9004v-11h-2.4512zm11.588 0v11h4.9004v-11h-2.4512zm11.588 0v11h4.9004v-11h-2.4512zm11.588 0v11h4.9004v-11h-2.4492zm11.588 0v11h4.9004v-11h-2.4492zm11.588 0v11h4.9004v-11h-2.4492zm11.588 0v11h4.9004v-11h-2.4492z"/>
    <path style="fill:#4d4d4d;fill-rule:evenodd" transform="matrix(.26458 0 0 .26458 0 138.25)" d="m377.38 197.91v2h4.8984v-2h-2.4492zm11.588 0v2h4.8984v-2h-2.4492zm11.588 0v2h4.9004v-2h-2.4512zm11.588 0v2h4.9004v-2h-2.4512zm11.588 0v2h4.9004v-2h-2.4512zm11.588 0v2h4.9004v-2h-2.4512zm11.588 0v2h4.9004v-2h-2.4512zm11.588 0v2h4.9004v-2h-2.4512zm11.588 0v2h4.9004v-2h-2.4512zm11.588 0v2h4.9004v-2h-2.4512zm11.588 0v2h4.9004v-2h-2.4512zm11.588 0v2h4.9004v-2h-2.4512zm11.588 0v2h4.9004v-2h-2.4492zm11.588 0v2h4.9004v-2h-2.4492zm11.588 0v2h4.9004v-2h-2.4492zm11.588 0v2h4.9004v-2h-2.4492zm-184.49 10.64v4.8992h2v-4.9zm198 0.002v4.8984h2v-4.8984zm-198 11.586v4.8984h2v-4.8984zm198 0.002v4.8984h2v-4.8984zm-198 11.586v4.9004h2v-4.9004zm198 0.002v4.9004h2v-4.9004zm-198 11.586v4.9004h2v-4.9004zm198 0.002v4.9004h2v-4.9004zm-198 11.586v4.9004h2v-4.9004zm198 0.002v4.9004h2v-4.9004zm-198 11.586v4.9004h2v-4.9004zm198 0.002v4.9004h2v-4.9004zm-198 11.586v4.9004h2v-4.9004zm198 0.002v4.9004h2v-4.9004zm-198 11.586v4.9004h2v-4.9004zm198 0.002v4.9004h2v-4.9004zm-198 11.586v4.9004h2v-4.9004zm198 0.002v4.9023h2v-4.9023zm-198 11.586v4.9004h2v-4.9004zm198 0.002v4.9004h2v-4.9004zm-198 11.586v4.9004h2v-4.9004zm198 0.002v4.9004h2v-4.9004zm-198 11.586v4.9004h2v-4.9004zm198 0.002v4.9004h2v-4.9004zm-198 11.586v4.9004h2v-4.9004zm198 0.002v4.9004h2v-4.9004zm-198 11.586v4.9004h2v-4.9004zm198 0.002v4.9004h2v-4.9004zm-198 11.586v4.9004h2v-4.9004zm198 0.002v4.9004h2v-4.9004zm-198 11.586v4.9004h2v-4.9004zm198 0.002v4.9004h2v-4.9004zm-187.36 13.51v2h4.8984v-2h-2.4492zm11.588 0v2h4.8984v-2h-2.4492zm11.588 0v2h4.8912v-2h-2.45zm11.588 0v2h4.9004v-2h-2.4512zm11.588 0v2h4.9004v-2h-2.4512zm11.588 0v2h4.9004v-2h-2.4512zm11.588 0v2h4.9004v-2h-2.4512zm11.588 0v2h4.9004v-2h-2.4512zm11.588 0v2h4.9004v-2h-2.4512zm11.588 0v2h4.9004v-2h-2.4512zm11.588 0v2h4.9004v-2h-2.4512zm11.588 0v2h4.9004v-2h-2.4512zm11.588 0v2h4.9004v-2h-2.4492zm11.588 0v2h4.9004v-2h-2.4492zm11.588 0v2h4.9004v-2h-2.4492zm11.588 0v2h4.9004v-2h-2.4492z"/>
   </g>
   <g transform="translate(7.1048 -50.353)">
    <g transform="matrix(1.7501 0 0 1.7501 -212.73 -155.82)">
     <g transform="matrix(1 0 0 1.0057 .53479 -19.067)">
      <path style="fill:#264de4;fill-rule:evenodd" transform="matrix(.26458 0 0 .26458 0 138.25)" d="m969.89 301.67a5 5 0 0 0 -5 5v40a5 5 0 0 0 5 5h49.998a5 5 0 0 0 5 -5v-40a5 5 0 0 0 -5 -5h-42.84z"/>
      <path style="fill:#2965f1;fill-rule:evenodd" transform="matrix(.26458 0 0 .26458 0 138.25)" d="m969.89 304.17a2.5 2.5 0 0 0 -2.5 2.5v40a2.5 2.5 0 0 0 2.5 2.5h50.001a2.5 2.5 0 0 0 2.5 -2.5v-40a2.5 2.5 0 0 0 -2.5 -2.5h-41.356zm4 3.5a3 3 0 0 1 3 3 3 3 0 0 1 -3 3 3 3 0 0 1 -3 -3 3 3 0 0 1 3 -3z"/>
     </g>
     <path style="fill:#fff" d="m260.53 207.34c-0.31536 0-0.59279 0.075-0.83248 0.22452-0.23967 0.14777-0.4252 0.36033-0.55675 0.63785-0.12974 0.27752-0.19462 0.59919-0.19462 0.96501v0.37836c0 0.55863 0.13957 1.0046 0.41889 1.338 0.28113 0.33338 0.65416 0.50024 1.1191 0.50024 0.42889 0 0.77219-0.1128 1.0299-0.33805 0.2595-0.22707 0.41358-0.54874 0.46223-0.96502h-0.52177c-0.0505 0.32437-0.15318 0.55243-0.30815 0.68397-0.15318 0.12976-0.37385 0.19462-0.66219 0.19462-0.32077 0-0.57044-0.12605-0.74884-0.37834-0.17839-0.25229-0.2676-0.59215-0.2676-1.0192v-0.38114c0-0.45232 0.0939-0.80102 0.28128-1.0461 0.18923-0.24509 0.44945-0.36746 0.78103-0.36746 0.27032 0 0.48042 0.0702 0.62999 0.21085 0.15138 0.14056 0.24942 0.36763 0.29448 0.68118h0.52177c-0.0414-0.41267-0.18839-0.73532-0.44068-0.9678-0.25229-0.23427-0.58747-0.35148-1.0056-0.35148zm3.3735 0c-0.39646 0-0.71887 0.10197-0.96756 0.30561-0.24688 0.20184-0.37048 0.45765-0.37048 0.76761 0 0.27391 0.10099 0.50466 0.30282 0.69207 0.20364 0.18561 0.52802 0.3424 0.97311 0.47034 0.35502 0.10272 0.60002 0.20716 0.73518 0.31348 0.13514 0.10452 0.20273 0.2532 0.20273 0.44601 0 0.19282-0.073 0.34518-0.21895 0.45691-0.14596 0.11173-0.35583 0.1675-0.62975 0.1675-0.29372 0-0.52891-0.0686-0.70551-0.20551-0.1748-0.13876-0.26228-0.32699-0.26228-0.56486h-0.52153c0 0.22886 0.0629 0.43331 0.18905 0.61351 0.12795 0.18021 0.30905 0.32275 0.54332 0.42726 0.23427 0.10272 0.48664 0.15408 0.75695 0.15408 0.41629 0 0.74876-0.0956 0.99744-0.28661 0.2487-0.19283 0.37303-0.44863 0.37303-0.7676 0-0.20003-0.045-0.37401-0.13506-0.52178-0.0883-0.14778-0.22543-0.27654-0.41103-0.38647-0.18382-0.11172-0.43963-0.2137-0.76761-0.30561-0.32616-0.0919-0.55766-0.19266-0.69462-0.30258-0.13515-0.11173-0.20273-0.24787-0.20273-0.40825 0-0.20004 0.0711-0.35584 0.21339-0.46756 0.14416-0.11353 0.34418-0.1703 0.60009-0.1703 0.27571 0 0.48925 0.0683 0.64063 0.20527 0.15136 0.13515 0.22706 0.32167 0.22706 0.55955h0.52177c0-0.21805-0.0584-0.41882-0.17561-0.60263-0.11533-0.18381-0.27949-0.32806-0.49213-0.43258-0.21085-0.10452-0.45142-0.15686-0.72172-0.15686zm3.287 0c-0.39644 0-0.7191 0.10197-0.96778 0.30561-0.24689 0.20184-0.37026 0.45765-0.37026 0.76761 0 0.27391 0.10102 0.50466 0.30284 0.69207 0.20365 0.18561 0.52802 0.3424 0.97312 0.47034 0.35501 0.10272 0.60002 0.20716 0.73515 0.31348 0.13517 0.10452 0.20274 0.2532 0.20274 0.44601 0 0.19282-0.073 0.34518-0.21895 0.45691-0.14596 0.11173-0.35582 0.1675-0.62974 0.1675-0.29374 0-0.52891-0.0686-0.70551-0.20551-0.17479-0.13876-0.26229-0.32699-0.26229-0.56486h-0.52177c0 0.22886 0.0632 0.43331 0.18929 0.61351 0.12796 0.18021 0.30906 0.32275 0.54333 0.42726 0.23427 0.10272 0.48665 0.15408 0.75695 0.15408 0.41629 0 0.74877-0.0956 0.99745-0.28661 0.24869-0.19283 0.37303-0.44863 0.37303-0.7676 0-0.20003-0.0452-0.37401-0.13532-0.52178-0.0883-0.14778-0.22518-0.27654-0.4108-0.38647-0.18379-0.11172-0.43961-0.2137-0.76759-0.30561-0.32618-0.0919-0.55791-0.19266-0.69486-0.30258-0.13516-0.11173-0.20273-0.24787-0.20273-0.40825 0-0.20004 0.0712-0.35584 0.21362-0.46756 0.14417-0.11353 0.34419-0.1703 0.60008-0.1703 0.27572 0 0.48927 0.0683 0.64065 0.20527 0.15138 0.13515 0.22705 0.32167 0.22705 0.55955h0.52179c0-0.21805-0.0587-0.41882-0.17587-0.60263-0.11533-0.18381-0.27924-0.32806-0.49188-0.43258-0.21085-0.10452-0.45141-0.15686-0.72174-0.15686z"/>
    </g>
    <g transform="translate(-.000037158 -.00017199)">
     <path style="fill:#666;fill-rule:evenodd" transform="matrix(.26458 0 0 .26458 0 138.25)" d="m853.72 221.01a3.6 6 0 0 0 -3.5996 6 3.6 6 0 0 0 3.5996 6h34.4v-12zm139.4 0v12h34.4a3.6 6 0 0 0 3.5996 -6 3.6 6 0 0 0 -3.5996 -6zm-139.4 20a3.6 6 0 0 0 -3.5996 6 3.6 6 0 0 0 3.5996 6h34.4v-12zm139.4 0v12h34.4a3.6 6 0 0 0 3.5996 -6 3.6 6 0 0 0 -3.5996 -6zm-139.4 20a3.6 6 0 0 0 -3.5996 6 3.6 6 0 0 0 3.5996 6h34.4v-12zm139.4 0v12h34.4a3.6 6 0 0 0 3.5996 -6 3.6 6 0 0 0 -3.5996 -6zm-139.4 20a3.6 6 0 0 0 -3.5996 6 3.6 6 0 0 0 3.5996 6h34.4v-12zm139.4 0v12h34.4a3.6 6 0 0 0 3.5996 -6 3.6 6 0 0 0 -3.5996 -6z"/>
     <path style="fill:#999;fill-rule:evenodd" transform="matrix(.26458 0 0 .26458 0 138.25)" d="m855.12 222.81v8.4004h33v-8.4004zm138 0v8.4004h33v-8.4004zm-138 20v8.4004h33v-8.4004zm138 0v8.4004h33v-8.4004zm-138 20v8.4004h33v-8.4004zm138 0v8.4004h33v-8.4004zm-138 20v8.4004h33v-8.4004zm138 0v8.4004h33v-8.4004z"/>
     <path style="opacity:0.529;fill:#333;fill-rule:evenodd" transform="matrix(.26458 0 0 .26458 0 138.25)" d="m875.12 222.81v8.4004h4v-8.4004zm127 0v8.4004h4v-8.4004zm-127 20v8.4004h4v-8.4004zm127 0v8.4004h4v-8.4004zm-127 20v8.4004h4v-8.4004zm127 0v8.4004h4v-8.4004zm-127 20v8.4004h4v-8.4004zm127 0v8.4004h4v-8.4004z"/>
    </g>
   </g>
   <g transform="translate(7.1048 -46.677)">
    <g transform="matrix(1.7501 0 0 1.7501 -212.73 -157.45)">
     <g transform="matrix(1 0 0 1.0057 .53454 .82375)">
      <path style="fill:#e54c21;fill-rule:evenodd" transform="matrix(.26458 0 0 .26458 0 138.25)" d="m969.89 301.67a5 5 0 0 0 -5 5v40a5 5 0 0 0 5 5h49.998a5 5 0 0 0 5 -5v-40a5 5 0 0 0 -5 -5h-42.84z"/>
      <path style="fill:#f16524;fill-rule:evenodd" transform="matrix(.26458 0 0 .26458 0 138.25)" d="m969.89 304.17a2.5 2.5 0 0 0 -2.5 2.5v40a2.5 2.5 0 0 0 2.5 2.5h50.001a2.5 2.5 0 0 0 2.5 -2.5v-40a2.5 2.5 0 0 0 -2.5 -2.5h-41.356zm4 3.5a3 3 0 0 1 3 3 3 3 0 0 1 -3 3 3 3 0 0 1 -3 -3 3 3 0 0 1 3 -3z"/>
     </g>
     <path style="fill:#fff" d="m257.67 227.7v3.3324h0.43944v-1.5404h1.6798v1.5404h0.4418v-3.3324h-0.4418v1.4329h-1.6798v-1.4329zm3.0029 0v0.36176h1.0688v2.9707h0.43708v-2.9707h1.0711v-0.36176zm3.076 0v3.3324h0.43944v-1.2977l-0.0436-1.3938 1.0917 2.6915h0.33644l1.0941-2.6984-0.0412 1.4007v1.2977h0.43944v-3.3324h-0.56989l-1.0896 2.719-1.0894-2.719zm4.0922 0v3.3324h2.0208v-0.3594h-1.5792v-2.973z"/>
    </g>
    <g transform="translate(-.000037051 33.183)">
     <path d="m853.72 221.01a3.6 6 0 0 0 -3.5996 6 3.6 6 0 0 0 3.5996 6h34.4v-12zm139.4 0v12h34.4a3.6 6 0 0 0 3.5996 -6 3.6 6 0 0 0 -3.5996 -6zm-139.4 20a3.6 6 0 0 0 -3.5996 6 3.6 6 0 0 0 3.5996 6h34.4v-12zm139.4 0v12h34.4a3.6 6 0 0 0 3.5996 -6 3.6 6 0 0 0 -3.5996 -6zm-139.4 20a3.6 6 0 0 0 -3.5996 6 3.6 6 0 0 0 3.5996 6h34.4v-12zm139.4 0v12h34.4a3.6 6 0 0 0 3.5996 -6 3.6 6 0 0 0 -3.5996 -6zm-139.4 20a3.6 6 0 0 0 -3.5996 6 3.6 6 0 0 0 3.5996 6h34.4v-12zm139.4 0v12h34.4a3.6 6 0 0 0 3.5996 -6 3.6 6 0 0 0 -3.5996 -6z" style="fill:#666;fill-rule:evenodd" transform="matrix(.26458 0 0 .26458 0 138.25)"/>
     <path d="m855.12 222.81v8.4004h33v-8.4004zm138 0v8.4004h33v-8.4004zm-138 20v8.4004h33v-8.4004zm138 0v8.4004h33v-8.4004zm-138 20v8.4004h33v-8.4004zm138 0v8.4004h33v-8.4004zm-138 20v8.4004h33v-8.4004zm138 0v8.4004h33v-8.4004z" style="fill:#999;fill-rule:evenodd" transform="matrix(.26458 0 0 .26458 0 138.25)"/>
     <path d="m875.12 222.81v8.4004h4v-8.4004zm127 0v8.4004h4v-8.4004zm-127 20v8.4004h4v-8.4004zm127 0v8.4004h4v-8.4004zm-127 20v8.4004h4v-8.4004zm127 0v8.4004h4v-8.4004zm-127 20v8.4004h4v-8.4004zm127 0v8.4004h4v-8.4004z" style="opacity:0.529;fill:#333;fill-rule:evenodd" transform="matrix(.26458 0 0 .26458 0 138.25)"/>
    </g>
   </g>
   <g>
    <path style="fill:#808080;fill-rule:evenodd" d="m76.803 278.36a0.61903 1.2571 0 0 0 -0.61912 1.2572 0.61903 1.2571 0 0 0 0.61912 1.2572h8.3432a0.61903 1.2571 0 0 0 0.6187 -1.2572 0.61903 1.2571 0 0 0 -0.6187 -1.2572h-4.1718z"/>
    <path style="fill:#808080;fill-rule:evenodd" d="m95.219 278.36a0.61903 1.2571 0 0 0 -0.61912 1.2572 0.61903 1.2571 0 0 0 0.61912 1.2572h8.3432a0.61903 1.2571 0 0 0 0.6187 -1.2572 0.61903 1.2571 0 0 0 -0.6187 -1.2572h-4.1718z"/>
    <path style="fill:#808080;fill-rule:evenodd" d="m113.93 278.36a0.61903 1.2571 0 0 0 -0.61912 1.2572 0.61903 1.2571 0 0 0 0.61912 1.2572h8.3432a0.61903 1.2571 0 0 0 0.6187 -1.2572 0.61903 1.2571 0 0 0 -0.6187 -1.2572h-4.1718z"/>
    <path style="fill:#808080;fill-rule:evenodd" d="m132.4 278.36a0.61903 1.2571 0 0 0 -0.61912 1.2572 0.61903 1.2571 0 0 0 0.61912 1.2572h8.3432a0.61903 1.2571 0 0 0 0.61871 -1.2572 0.61903 1.2571 0 0 0 -0.61871 -1.2572h-4.1718z"/>
    <rect style="fill:#b57d3f;fill-rule:evenodd" rx="6.2243" ry="4.745e-15" height="4.1064" width="1.8476" y="277.58" x="77.157"/>
    <rect style="fill:#b57d3f;fill-rule:evenodd" rx="6.2243" ry="4.745e-15" height="4.1064" width="1.8476" y="277.58" x="95.573"/>
    <rect style="fill:#b57d3f;fill-rule:evenodd" rx="6.2243" ry="4.745e-15" height="4.1064" width="1.8476" y="277.58" x="114.28"/>
    <rect style="fill:#b57d3f;fill-rule:evenodd" rx="6.2243" ry="4.745e-15" height="4.1064" width="1.8476" y="277.58" x="132.76"/>
    <rect style="fill:#dfaf4b;fill-rule:evenodd" rx="5.4549" ry="3.7203e-15" height="4.1065" width="6.057" y="277.58" x="79.004"/>
    <rect style="fill:#dfaf4b;fill-rule:evenodd" rx="5.4549" ry="3.7203e-15" height="4.1065" width="6.057" y="277.58" x="97.421"/>
    <rect style="fill:#dfaf4b;fill-rule:evenodd" rx="5.4549" ry="3.7203e-15" height="4.1065" width="6.057" y="277.58" x="116.13"/>
    <rect style="fill:#dfaf4b;fill-rule:evenodd" rx="5.4549" ry="3.7203e-15" height="4.1065" width="6.057" y="277.58" x="134.6"/>
    <circle r=".34330" style="fill:#825b2f;fill-rule:evenodd" cx="79.855" cy="279.79"/>
    <rect style="fill:#825b2f;fill-rule:evenodd" rx="5.1976" ry="3.6755e-15" height=".33671" width="1.1448" y="278.85" x="79.485"/>
    <rect style="fill:#825b2f;fill-rule:evenodd" rx="10.273" ry="3.6755e-15" height=".33671" width="2.2627" y="278.14" x="79.485"/>
    <circle r=".34330" style="fill:#825b2f;fill-rule:evenodd" cx="98.272" cy="279.79"/>
    <rect style="fill:#825b2f;fill-rule:evenodd" rx="5.1976" ry="3.6755e-15" height=".33671" width="1.1448" y="278.85" x="97.902"/>
    <rect style="fill:#825b2f;fill-rule:evenodd" rx="10.273" ry="3.6755e-15" height=".33671" width="2.2627" y="278.14" x="97.902"/>
    <circle r=".34330" style="fill:#825b2f;fill-rule:evenodd" cx="116.98" cy="279.79"/>
    <rect style="fill:#825b2f;fill-rule:evenodd" rx="5.1976" ry="3.6755e-15" height=".33671" width="1.1448" y="278.85" x="116.61"/>
    <rect style="fill:#825b2f;fill-rule:evenodd" rx="10.273" ry="3.6755e-15" height=".33671" width="2.2627" y="278.14" x="116.61"/>
    <circle r=".34330" style="fill:#825b2f;fill-rule:evenodd" cx="135.46" cy="279.79"/>
    <rect style="fill:#825b2f;fill-rule:evenodd" rx="5.1976" ry="3.6755e-15" height=".33671" width="1.1448" y="278.85" x="135.09"/>
    <rect style="fill:#825b2f;fill-rule:evenodd" rx="10.273" ry="3.6755e-15" height=".33671" width="2.2627" y="278.14" x="135.09"/>
   </g>
   <path d="m169.65 244.33a1.1334 1.796 0 0 0 -1.1333 1.7958 1.1334 1.796 0 0 0 1.1333 1.7963h5.6126a1.1334 1.796 0 0 0 1.1333 -1.7963 1.1334 1.796 0 0 0 -1.1333 -1.7958h-2.806z" style="fill:#808080;fill-rule:evenodd"/>
   <path d="m169.65 238.46a1.1334 1.796 0 0 0 -1.1333 1.7958 1.1334 1.796 0 0 0 1.1333 1.7963h5.6126a1.1334 1.796 0 0 0 1.1333 -1.7963 1.1334 1.796 0 0 0 -1.1333 -1.7958h-2.806z" style="fill:#808080;fill-rule:evenodd"/>
   <path d="m169.65 232.53a1.1334 1.796 0 0 0 -1.1333 1.7958 1.1334 1.796 0 0 0 1.1333 1.7963h5.6126a1.1334 1.796 0 0 0 1.1333 -1.7963 1.1334 1.796 0 0 0 -1.1333 -1.7958h-2.806z" style="fill:#808080;fill-rule:evenodd"/>
   <path d="m169.65 226.73a1.1334 1.796 0 0 0 -1.1333 1.7958 1.1334 1.796 0 0 0 1.1333 1.7963h5.6126a1.1334 1.796 0 0 0 1.1333 -1.7963 1.1334 1.796 0 0 0 -1.1333 -1.7958h-2.806z" style="fill:#808080;fill-rule:evenodd"/>
   <path d="m169.65 220.81a1.1334 1.796 0 0 0 -1.1333 1.7958 1.1334 1.796 0 0 0 1.1333 1.7963h5.6126a1.1334 1.796 0 0 0 1.1333 -1.7963 1.1334 1.796 0 0 0 -1.1333 -1.7958h-2.806z" style="fill:#808080;fill-rule:evenodd"/>
   <rect style="fill:#999;fill-rule:evenodd" rx="9.683" ry="9.8751e-15" height="3.592" width="5.4957" y="244.33" x="169.71"/>
   <rect style="fill:#999;fill-rule:evenodd" rx="9.683" ry="9.8751e-15" height="3.592" width="5.4957" y="238.46" x="169.71"/>
   <rect style="fill:#999;fill-rule:evenodd" rx="9.683" ry="9.8751e-15" height="3.592" width="5.4957" y="232.53" x="169.71"/>
   <rect style="fill:#999;fill-rule:evenodd" rx="9.683" ry="9.8751e-15" height="3.592" width="5.4957" y="226.73" x="169.71"/>
   <rect style="fill:#999;fill-rule:evenodd" rx="9.683" ry="9.8751e-15" height="3.592" width="5.4957" y="220.81" x="169.71"/>
   <rect style="fill:#0175b2;fill-rule:evenodd" rx="9.683" ry="9.8368e-15" height="3.592" width="3.1254" y="244.33" x="170.89"/>
   <rect style="fill:#0175b2;fill-rule:evenodd" rx="9.683" ry="9.8368e-15" height="3.592" width="3.1254" y="238.46" x="170.89"/>
   <rect style="fill:#0175b2;fill-rule:evenodd" rx="9.683" ry="9.8368e-15" height="3.592" width="3.1254" y="232.53" x="170.89"/>
   <rect style="fill:#0175b2;fill-rule:evenodd" rx="9.683" ry="9.8368e-15" height="3.592" width="3.1254" y="226.73" x="170.89"/>
   <rect style="fill:#0175b2;fill-rule:evenodd" rx="9.683" ry="9.8368e-15" height="3.592" width="3.1254" y="220.81" x="170.89"/>
   <g transform="translate(-46.02 42.93)">
    <g transform="matrix(1.3736 0 0 1.3717 -11.368 -61.633)">
     <path d="m121 108.07a6 6 0 0 0 -6 6v101a6 6 0 0 0 6 6h79a6 6 0 0 0 6 -6v-101a6 6 0 0 0 -6 -6h-68.164z" style="fill:#2a5578;fill-rule:evenodd" transform="matrix(.26458 0 0 .26458 0 138.25)"/>
     <path d="m125 114.07a6 6 0 0 0 -6 6v89a6 6 0 0 0 6 6h71a6 6 0 0 0 6 -6v-89a6 6 0 0 0 -6 -6h-60.117zm8 8a6 6 0 0 1 6 6 6 6 0 0 1 -6 6 6 6 0 0 1 -6 -6 6 6 0 0 1 6 -6z" style="fill:#336791;fill-rule:evenodd" transform="matrix(.26458 0 0 .26458 0 138.25)"/>
    </g>
    <g style="stroke-linejoin:round;stroke:#fff;stroke-linecap:round;stroke-width:12.465;fill:none" transform="matrix(.035195 0 0 .035195 45.68 182.71)">
     <path style="fill:#336791" d="m402.4 271.23c-50.302 10.376-53.76-6.655-53.76-6.655 53.111-78.808 75.313-178.84 56.153-203.33-52.27-66.785-142.75-35.2-144.26-34.38l-0.486 0.087c-9.938-2.063-21.06-3.292-33.56-3.496-22.761-0.373-40.026 5.967-53.127 15.902 0 0-161.41-66.495-153.9 83.63 1.597 31.938 45.776 241.66 98.471 178.31 19.26-23.163 37.869-42.748 37.869-42.748 9.243 6.14 20.308 9.272 31.908 8.147l0.901-0.765c-0.28 2.876-0.152 5.689 0.361 9.019-13.575 15.167-9.586 17.83-36.723 23.416-27.459 5.659-11.328 15.734-0.796 18.367 12.768 3.193 42.307 7.716 62.266-20.224l-0.796 3.188c5.319 4.26 9.054 27.711 8.428 48.969-0.626 21.259-1.044 35.854 3.147 47.254s8.368 37.05 44.042 29.406c29.809-6.388 45.256-22.942 47.405-50.555 1.525-19.631 4.976-16.729 5.194-34.28l2.768-8.309c3.192-26.611 0.507-35.196 18.872-31.203l4.463 0.392c13.517 0.615 31.208-2.174 41.591-7 22.358-10.376 35.618-27.7 13.573-23.148z"/>
     <path d="m215.87 286.48c-1.385 49.516 0.348 99.377 5.193 111.5 4.848 12.118 15.223 35.688 50.9 28.045 29.806-6.39 40.651-18.756 45.357-46.051 3.466-20.082 10.148-75.854 11.005-87.281"/>
     <path d="m173.1 38.256s-161.52-66.016-154.01 84.109c1.597 31.938 45.779 241.66 98.473 178.32 19.256-23.166 36.671-41.335 36.671-41.335"/>
     <path d="m260.35 26.207c-5.591 1.753 89.848-34.889 144.09 34.417 19.159 24.484-3.043 124.52-56.153 203.33"/>
     <path style="stroke-linejoin:bevel" d="m348.28 263.95s3.461 17.036 53.764 6.653c22.04-4.552 8.776 12.774-13.577 23.155-18.345 8.514-59.474 10.696-60.146-1.069-1.729-30.355 21.647-21.133 19.96-28.739-1.525-6.85-11.979-13.573-18.894-30.338-6.037-14.633-82.796-126.85 21.287-110.18 3.813-0.789-27.146-99.002-124.55-100.6-97.385-1.597-94.19 119.76-94.19 119.76"/>
     <path d="m188.6 274.33c-13.577 15.166-9.584 17.829-36.723 23.417-27.459 5.66-11.326 15.733-0.797 18.365 12.768 3.195 42.307 7.718 62.266-20.229 6.078-8.509-0.036-22.086-8.385-25.547-4.034-1.671-9.428-3.765-16.361 3.994z"/>
     <path d="m187.72 274.07c-1.368-8.917 2.93-19.528 7.536-31.942 6.922-18.626 22.893-37.255 10.117-96.339-9.523-44.029-73.396-9.163-73.436-3.193-0.039 5.968 2.889 30.26-1.067 58.548-5.162 36.913 23.488 68.132 56.479 64.938"/>
     <path style="stroke-linejoin:miter;stroke-width:4.155;stroke-linecap:butt;fill:#fff" d="m172.52 141.7c-0.288 2.039 3.733 7.48 8.976 8.207 5.234 0.73 9.714-3.522 9.998-5.559 0.284-2.039-3.732-4.285-8.977-5.015-5.237-0.731-9.719 0.333-9.996 2.367z"/>
     <path style="stroke-linejoin:miter;stroke-width:2.0775;stroke-linecap:butt;fill:#fff" d="m331.94 137.54c0.284 2.039-3.732 7.48-8.976 8.207-5.238 0.73-9.718-3.522-10.005-5.559-0.277-2.039 3.74-4.285 8.979-5.015s9.718 0.333 10.002 2.368z"/>
     <path d="m350.68 123.43c0.863 15.994-3.445 26.888-3.988 43.914-0.804 24.748 11.799 53.074-7.191 81.435"/>
     <path style="stroke-width:3" d="m0 60.232"/>
    </g>
    <g aria-label="PostgreSQL" transform="matrix(.46139 0 0 .46139 -16.091 118.44)">
     <path style="stroke-width:.31277;fill:#fff" d="m175.36 195.7c-0.95569 0-1.7326 0.24545-2.332 0.73633-0.59512 0.48653-0.89257 1.1044-0.89257 1.8516 0 0.66029 0.24198 1.2162 0.72851 1.668 0.49087 0.44743 1.2727 0.82438 2.3457 1.1328 0.85578 0.24761 1.4476 0.49956 1.7734 0.75586 0.3258 0.25195 0.48828 0.61136 0.48828 1.0762 0 0.46481-0.17548 0.83224-0.52734 1.1016-0.35187 0.26934-0.85924 0.40235-1.5195 0.40235-0.70809 0-1.2735-0.16399-1.6992-0.49414-0.42137-0.33449-0.63281-0.78791-0.63281-1.3613h-1.2578c0 0.5517 0.15295 1.0441 0.45704 1.4785 0.30842 0.4344 0.74387 0.77734 1.3086 1.0293 0.56472 0.24762 1.1726 0.3711 1.8242 0.3711 1.0035 0 1.8048-0.22899 2.4043-0.68946 0.59948-0.46481 0.9004-1.0827 0.9004-1.8516 0-0.48219-0.10897-0.9016-0.32618-1.2578-0.21286-0.35622-0.5428-0.66666-0.99023-0.93164-0.44309-0.26933-1.061-0.51479-1.8516-0.73633-0.78627-0.22155-1.3437-0.46549-1.6738-0.73047-0.3258-0.26933-0.48828-0.5958-0.48828-0.98242 0-0.48218 0.17049-0.85957 0.51367-1.1289 0.34752-0.27367 0.83042-0.41015 1.4473-0.41015 0.66463 0 1.18 0.16595 1.5449 0.49609 0.3649 0.3258 0.54687 0.77424 0.54687 1.3477h1.2578c0-0.52564-0.14146-1.01-0.42382-1.4531-0.27802-0.44309-0.67296-0.78906-1.1856-1.041-0.50825-0.25195-1.0886-0.3789-1.7402-0.3789zm8.3984 0c-0.74717 0-1.4101 0.18696-1.9922 0.56055-0.57775 0.36924-1.0266 0.90412-1.3437 1.6035-0.31712 0.69939-0.47461 1.5057-0.47461 2.418v0.68359c0.009 0.89487 0.17116 1.6832 0.48828 2.3652 0.32146 0.67766 0.77185 1.2011 1.3496 1.5703 0.57775 0.3649 1.2392 0.54688 1.9863 0.54688 0.34753 0 0.67747-0.039 0.99024-0.11719l2 1.5898 0.85351-0.78906-1.6934-1.3281c0.52562-0.37358 0.93355-0.89048 1.2246-1.5508 0.29105-0.66463 0.4375-1.4565 0.4375-2.373v-0.60547c0-0.92528-0.15598-1.7331-0.46875-2.4238-0.31277-0.69505-0.76164-1.2265-1.3438-1.5957-0.57775-0.36924-1.2491-0.55469-2.0137-0.55469zm-57.582 0.13086v9.4863h1.252v-3.7129h2.2344c1.073 0 1.8973-0.24892 2.4707-0.74414 0.57776-0.49957 0.86524-1.208 0.86524-2.1289 0-0.87316-0.29398-1.5755-0.88477-2.1055-0.58644-0.52997-1.3993-0.79492-2.4375-0.79492zm63.336 0v9.4863h5.7539v-1.0215h-4.4961v-8.4648zm-40.27 0.73v1.707h-1.2832v0.93164h1.2832v4.3711c0 0.59947 0.13649 1.0629 0.41016 1.3887 0.27367 0.32581 0.68008 0.48829 1.2188 0.48829 0.29974 0 0.60867-0.044 0.92578-0.13086v-0.97657c-0.24327 0.0521-0.43521 0.0781-0.57422 0.0781-0.28236 0-0.48232-0.07-0.59961-0.20899-0.11728-0.14335-0.17578-0.35631-0.17578-0.63867v-4.3711h1.3164v-0.93164h-1.3164v-1.707zm34.508 0.21484c0.82537 0 1.4612 0.30395 1.9043 0.91211 0.44743 0.60382 0.66992 1.4637 0.66992 2.5801v0.70312c-0.013 1.099-0.2405 1.9444-0.68359 2.5352-0.44309 0.58645-1.069 0.87891-1.877 0.87891-0.80799 0-1.4404-0.31196-1.8965-0.9375-0.45178-0.62555-0.67773-1.4824-0.67773-2.5684v-0.69532c0.013-1.0686 0.24548-1.9044 0.69726-2.5039 0.45613-0.60382 1.077-0.9043 1.8633-0.9043zm-56.33 0.084h2.3203c0.62119 0.013 1.1086 0.18851 1.4648 0.52734 0.35621 0.33883 0.53516 0.79074 0.53516 1.3555 0 0.59513-0.17895 1.052-0.53516 1.3691-0.35621 0.31277-0.86813 0.46875-1.5371 0.46875h-2.248zm9.7812 1.2773c-0.62119 0-1.1756 0.14948-1.6621 0.44922-0.48219 0.29974-0.8611 0.72565-1.1348 1.2773-0.26934 0.55169-0.4043 1.1726-0.4043 1.8633v0.0859c0 1.0947 0.29593 1.974 0.88672 2.6387 0.59513 0.66464 1.3705 0.9961 2.3262 0.9961 0.63424 0 1.1951-0.151 1.6816-0.45508 0.49088-0.30408 0.86631-0.72848 1.127-1.2715 0.26498-0.54735 0.39843-1.1632 0.39843-1.8496v-0.0859c0-1.1034-0.29745-1.9877-0.89257-2.6524-0.59079-0.66464-1.3661-0.99609-2.3262-0.99609zm7.2832 0c-0.76021 0-1.3841 0.19996-1.875 0.59961-0.48653 0.39965-0.73047 0.88904-0.73047 1.4668 0 0.34753 0.0845 0.64649 0.2539 0.89844 0.17377 0.25196 0.43872 0.4699 0.79493 0.65235 0.36055 0.18245 0.84496 0.33843 1.4531 0.46875 0.61252 0.13032 1.0399 0.2863 1.2832 0.46875 0.2476 0.1781 0.37109 0.43005 0.37109 0.75586 0 0.30842-0.138 0.55539-0.41602 0.74218-0.27367 0.18245-0.63957 0.27344-1.0957 0.27344-0.49522 0-0.89318-0.11699-1.1973-0.35156-0.2997-0.23892-0.46067-0.56085-0.48242-0.96485h-1.207c0 0.41703 0.12197 0.80742 0.36524 1.168 0.2476 0.35622 0.58903 0.63416 1.0234 0.83399 0.43441 0.19982 0.93333 0.29883 1.498 0.29883 0.80365 0 1.459-0.18848 1.9629-0.56641 0.50391-0.38228 0.75586-0.8877 0.75586-1.5176 0-0.37793-0.0929-0.69834-0.27539-0.95898-0.17811-0.26499-0.45258-0.49095-0.82617-0.67774-0.37359-0.1868-0.86298-0.34776-1.4668-0.48242-0.59948-0.13467-1.0139-0.27613-1.2441-0.42383-0.23024-0.1477-0.3457-0.3652-0.3457-0.65625 0-0.30842 0.12348-0.55886 0.37109-0.75 0.24761-0.19113 0.59055-0.28711 1.0293-0.28711 0.42571 0 0.77862 0.12046 1.0566 0.35938 0.28236 0.23891 0.42383 0.52336 0.42383 0.85351h1.2109c0-0.64291-0.24848-1.1713-0.74804-1.584-0.49523-0.41269-1.1441-0.61914-1.9434-0.61914zm11.176 0c-0.8384 0-1.5113 0.32496-2.0195 0.97656-0.50825 0.64726-0.76367 1.522-0.76367 2.6211 0 1.1468 0.25542 2.0522 0.76367 2.7168 0.5126 0.66464 1.1805 0.9961 2.0059 0.9961 0.83406 0 1.4924-0.27795 1.9746-0.83399v0.60547c0 0.59948-0.16399 1.0644-0.49414 1.3945-0.32581 0.33015-0.7827 0.4961-1.3692 0.4961-0.74717 0-1.3795-0.32041-1.8965-0.95899l-0.625 0.72461c0.25629 0.37793 0.62674 0.67538 1.1133 0.89258 0.48653 0.2172 0.98394 0.32617 1.4922 0.32617 0.91224 0 1.6391-0.26343 2.1777-0.78906 0.54301-0.52563 0.81446-1.244 0.81446-2.1562v-6.8809h-1.1016l-0.0586 0.78125c-0.48219-0.60817-1.1536-0.91211-2.0137-0.91211zm7.8574 0c-0.72545 0-1.2844 0.31543-1.6797 0.94531l-0.0195-0.81445h-1.1738v7.0488h1.2051v-5.0039c0.28236-0.67332 0.81876-1.0098 1.6094-1.0098 0.21285 0 0.4113 0.0145 0.59375 0.0449v-1.1191c-0.12164-0.0608-0.30058-0.0918-0.53516-0.0918zm4.4121 0c-0.56038 0-1.0823 0.15597-1.5644 0.46875-0.47785 0.30842-0.84981 0.73932-1.1191 1.291-0.26499 0.54735-0.39844 1.1698-0.39844 1.8691v0.22266c0 1.0513 0.29896 1.8916 0.89844 2.5215 0.59948 0.62554 1.3783 0.9375 2.334 0.9375 1.1816 0 2.0674-0.45343 2.6582-1.3613l-0.73632-0.57422c-0.22155 0.2867-0.48 0.51764-0.77539 0.6914-0.2954 0.17376-0.65632 0.25977-1.082 0.25977-0.59947 0-1.0934-0.21296-1.4844-0.63867-0.38658-0.43006-0.59001-0.99245-0.60742-1.6875h4.7773v-0.50195c0-1.1251-0.25542-1.988-0.76367-2.5918-0.50825-0.60382-1.2201-0.90625-2.1367-0.90625zm-30.729 0.99023c0.60817 0 1.0941 0.24047 1.459 0.72266 0.36925 0.47784 0.55273 1.1037 0.55273 1.877 0 0.86447-0.18046 1.5374-0.54101 2.0195-0.36056 0.47785-0.84647 0.7168-1.459 0.7168-0.60816 0-1.0941-0.23549-1.459-0.70898-0.36056-0.47351-0.54102-1.1009-0.54102-1.8828 0-0.88183 0.18198-1.5597 0.54688-2.0332s0.84628-0.71094 1.4414-0.71094zm30.729 0c0.50391 0 0.90382 0.16898 1.1992 0.50782 0.29539 0.33448 0.46134 0.80936 0.49609 1.4219v0.0898h-3.5332c0.0782-0.63857 0.28313-1.1325 0.61328-1.4844 0.33014-0.35621 0.73808-0.53516 1.2246-0.53516zm-11.971 0.0332c0.73848 0 1.2929 0.33644 1.6621 1.0098v3.2188c-0.35622 0.6907-0.91362 1.0352-1.6738 1.0352-0.58645 0-1.0433-0.22595-1.3691-0.67774-0.3258-0.45611-0.48828-1.08-0.48828-1.875 0-0.89486 0.16595-1.5712 0.49609-2.0273 0.33015-0.45612 0.7866-0.68359 1.373-0.68359z" transform="matrix(.84593 0 0 .84593 .70150 11.329)"/>
    </g>
   </g>
   <g transform="translate(-35.37 -49.799)">
    <g transform="matrix(1.2428 0 0 1.2428 -87.471 -48.754)">
     <path d="m219.06 198.5v38.32h18.095v-38.32h-5.828a3.3073 3.3007 0 0 1 -3.2194 2.5596 3.3073 3.3007 0 0 1 -3.2189 -2.5596h-4.1512z" style="fill:#ccc;fill-rule:evenodd"/>
     <path d="m230.25 211.07v0.00019c-0.44076-0.00038-0.98221 0.22931-1.5561 0.66013-0.16938 0.12715-0.39581 0.31962-0.54746 0.46573-0.0157 0.0152-0.0298 0.027-0.0315 0.0264-0.001-0.00069-0.0335-0.0291-0.0706-0.0635-0.33821-0.31242-0.67215-0.55983-1.0112-0.74938-0.0614-0.0343-0.21055-0.10885-0.27273-0.13627-0.19147-0.0845-0.37758-0.14268-0.54845-0.17178-0.30237-0.0515-0.56595-0.0113-0.76882 0.11743-0.0574 0.0364-0.0956 0.0676-0.15154 0.12377-0.0897 0.09-0.15154 0.17875-0.21204 0.30468-0.0594 0.12364-0.10058 0.24697-0.1331 0.39888-0.0635 0.29656-0.0774 0.65644-0.0404 1.0459 0.0245 0.25905 0.0753 0.55707 0.14102 0.82872 0.008 0.0348 0.0147 0.0638 0.0141 0.0645-0.00069 0.00068-0.0359 0.0114-0.0783 0.024-0.57581 0.17068-1.052 0.38958-1.4218 0.65338-0.36275 0.25881-0.59671 0.55131-0.67559 0.84499-0.0456 0.1698-0.0412 0.33617 0.0131 0.50362 0.0652 0.20109 0.18485 0.38438 0.3741 0.57324 0.18274 0.18235 0.41601 0.35175 0.699 0.50739 0.29076 0.15992 0.64619 0.30651 1.0054 0.41456 0.0409 0.0123 0.0754 0.0233 0.0766 0.0244 0.001 0.001-0.00068 0.0131-0.004 0.0268-0.0908 0.37685-0.1393 0.68876-0.16146 1.038-0.005 0.0801-0.005 0.35648 0 0.42924 0.0246 0.3511 0.087 0.61346 0.19895 0.83686 0.10725 0.2141 0.25228 0.36762 0.43241 0.4578 0.43077 0.21564 1.0682 0.0835 1.7755-0.36795 0.25595-0.16339 0.536-0.38433 0.7833-0.61787l0.0522-0.0492 0.0177 0.0165c0.01 0.009 0.0365 0.0341 0.0595 0.0557 0.38349 0.35952 0.79542 0.65495 1.1606 0.83209 0.30822 0.14954 0.57404 0.22425 0.83368 0.23465 0.0119 0.0004 0.0237 0.001 0.0262 0.001 0.003 0.00031 0.0313-0.00068 0.0637-0.003 0.16106-0.008 0.27937-0.038 0.40563-0.10136 0.20102-0.1009 0.36349-0.28964 0.47624-0.55322 0.0177-0.0413 0.0483-0.12258 0.0549-0.14558 0.001-0.005 0.008-0.0269 0.0143-0.0474 0.10019-0.32653 0.1311-0.76653 0.0869-1.2395-0.023-0.24652-0.0791-0.57571-0.13608-0.80017l-0.007-0.0286 0.0361-0.0111c0.0198-0.006 0.0849-0.027 0.14459-0.0466 0.66445-0.21824 1.2142-0.51869 1.5603-0.85252 0.0585-0.0564 0.0951-0.0946 0.13191-0.13747 0.26712-0.31151 0.36105-0.62837 0.27868-0.94039-0.0378-0.14304-0.11651-0.29288-0.22731-0.43221-0.15298-0.19239-0.37937-0.38211-0.65734-0.55083-0.33894-0.20571-0.74242-0.37873-1.2161-0.52167-0.039-0.0118-0.0712-0.0217-0.0716-0.0222-0.00038-0.00038 0.005-0.0239 0.0111-0.052 0.07-0.29662 0.1187-0.60261 0.14064-0.88328 0.0103-0.13234 0.0123-0.1867 0.0123-0.34077 0.00006-0.15645-0.002-0.20913-0.0123-0.32391-0.0407-0.44538-0.16379-0.78759-0.36577-1.018-0.17575-0.20042-0.41334-0.30337-0.70138-0.30368zm-0.0383 0.46256c0.0394-0.001 0.077-0.00019 0.11247 0.004 0.13671 0.016 0.23039 0.0702 0.3126 0.18109 0.12667 0.17084 0.20105 0.43219 0.22712 0.79817 0.005 0.0728 0.005 0.32462 0 0.40445-0.0145 0.22423-0.0357 0.39923-0.0736 0.60955-0.0175 0.0972-0.0559 0.28049-0.0698 0.33323-0.004 0.0143-0.003 0.0143-0.0617 0.00069-0.28467-0.066-0.67041-0.13078-1.0428-0.17495-0.0991-0.0118-0.27864-0.0309-0.2896-0.0309-0.003 0-0.0198-0.0209-0.0405-0.0504-0.23712-0.33713-0.51935-0.69108-0.78787-0.9882l-0.0579-0.0641 0.0502-0.048c0.2146-0.20415 0.46666-0.40752 0.68869-0.55579 0.39001-0.26044 0.75674-0.40814 1.0326-0.41872zm-4.2402 0.009c0.19777 0.001 0.44819 0.0734 0.72379 0.21223 0.29425 0.14823 0.60188 0.36165 0.91263 0.63334 0.0649 0.0567 0.17849 0.1615 0.1803 0.16623 0.00069 0.002-0.0184 0.0259-0.046 0.0562-0.22178 0.24187-0.45161 0.52168-0.6754 0.82216-0.0565 0.0759-0.14386 0.19565-0.16125 0.22117-0.001 0.001-0.0527 0.008-0.11465 0.0147-0.4368 0.0453-0.83178 0.1072-1.2213 0.19161-0.0319 0.007-0.0583 0.0125-0.0589 0.0125-0.00068 0-0.005-0.0192-0.0113-0.0426-0.14681-0.61329-0.18815-1.1554-0.12079-1.5827 0.0485-0.3073 0.15535-0.53213 0.29971-0.63016 0.0748-0.0508 0.17451-0.0754 0.29316-0.0746zm2.1448 1.3438 0.0418 0.046c0.1631 0.17947 0.35138 0.40655 0.50501 0.60895 0.0277 0.0365 0.0518 0.0682 0.0538 0.0706 0.003 0.004-0.002 0.004-0.0367 0.003-0.17093-0.008-0.39575-0.012-0.65398-0.0104-0.14998 0.00069-0.30474 0.003-0.34394 0.005-0.18509 0.008-0.17682 0.008-0.17317 0.003 0.002-0.002 0.0359-0.0461 0.0756-0.0972 0.11215-0.1444 0.19927-0.25132 0.30666-0.37647 0.0612-0.0713 0.16705-0.1906 0.20192-0.22752zm-0.01 1.178v0.0002c0.18967 0 0.38045 0.004 0.55341 0.0111 0.10409 0.005 0.33508 0.0176 0.38322 0.0218l0.0222 0.002 0.0325 0.0484c0.30334 0.45314 0.60042 0.96164 0.85788 1.4682l0.0649 0.12754-0.0664 0.1329c-0.23037 0.46122-0.5009 0.93246-0.80037 1.394-0.0398 0.0614-0.0755 0.11537-0.0793 0.12-0.007 0.008-0.009 0.008-0.0504 0.0115-0.3386 0.0249-0.79102 0.0353-1.207 0.0278-0.19594-0.003-0.59891-0.0201-0.64346-0.0264l-0.0127-0.002-0.0837-0.12595c-0.21737-0.3271-0.40425-0.63675-0.5919-0.98126-0.0771-0.14155-0.12653-0.23695-0.20926-0.40286l-0.071-0.14241 0.064-0.12874c0.24887-0.50007 0.50571-0.94521 0.81127-1.4059l0.0764-0.11505 0.0211-0.002c0.039-0.003 0.27429-0.0171 0.38202-0.0218 0.16846-0.007 0.35701-0.0111 0.54667-0.0111zm1.5557 0.097c0.005-0.001 0.17528 0.0222 0.27135 0.0369 0.19646 0.03 0.44475 0.0763 0.61509 0.11465 0.0222 0.005 0.0412 0.009 0.0424 0.009 0.007 0-0.0878 0.27685-0.15769 0.46315-0.0549 0.14616-0.16107 0.40972-0.1684 0.41794-0.001 0.001-0.0131-0.0182-0.0264-0.0435-0.13711-0.26124-0.38673-0.69216-0.54726-0.94456-0.0226-0.0354-0.0321-0.0531-0.0292-0.0538zm-3.1015 0.0002c0.001 0.001-0.0147 0.0282-0.0351 0.0603-0.1112 0.17451-0.25066 0.40963-0.38182 0.64386-0.0344 0.0614-0.12458 0.22875-0.15432 0.28622-0.0153 0.0296-0.0288 0.0525-0.0298 0.051-0.008-0.0133-0.11265-0.27616-0.15888-0.39988-0.0532-0.14243-0.1562-0.44235-0.16365-0.47664l-0.002-0.009 0.10017-0.0211c0.24357-0.051 0.47863-0.0908 0.7466-0.12635 0.042-0.005 0.0773-0.009 0.0786-0.008zm-1.3748 0.26958 0.0156 0.05c0.11824 0.37534 0.27901 0.79251 0.45681 1.1864 0.0198 0.0439 0.0359 0.081 0.0359 0.0823 0 0.001-0.0154 0.0366-0.0343 0.0784-0.16937 0.3741-0.33818 0.81025-0.45066 1.1649-0.0159 0.0503-0.0301 0.0917-0.0315 0.092-0.001 0.00038-0.0115-0.002-0.0226-0.005-0.18906-0.0583-0.27201-0.0862-0.39868-0.13409-0.49741-0.18796-0.9148-0.43754-1.1727-0.70118-0.16121-0.16481-0.2515-0.32374-0.26639-0.4691-0.008-0.0792 0.0103-0.16348 0.0555-0.2535 0.0448-0.0894 0.10191-0.16604 0.1924-0.25885 0.3138-0.32183 0.87088-0.61171 1.5704-0.81702zm5.8554 0.009c0.003-0.003 0.16486 0.0471 0.29296 0.0909 0.32104 0.10966 0.62238 0.24616 0.86462 0.39134 0.39246 0.23524 0.64444 0.50052 0.69742 0.73431 0.0258 0.11402-0.005 0.24203-0.0928 0.37728-0.22668 0.35191-0.79386 0.71064-1.5095 0.95446-0.0696 0.0237-0.22535 0.0729-0.23048 0.0728-0.002-0.00003-0.02-0.05-0.0401-0.11088-0.1141-0.34605-0.27849-0.75457-0.45642-1.134l-0.0353-0.0752 0.0204-0.0442c0.17315-0.3748 0.34317-0.80666 0.45662-1.1594 0.0169-0.0527 0.0316-0.0964 0.0325-0.0974zm-2.9299 0.35744c-0.10727 0.00003-0.11069 0.00038-0.19995 0.0191-0.13809 0.0287-0.26602 0.0886-0.38579 0.18089-0.0366 0.0282-0.1212 0.11249-0.15254 0.15194-0.11107 0.13983-0.17855 0.30174-0.20133 0.48319-0.005 0.0429-0.005 0.17132 0.00021 0.21383 0.0147 0.1148 0.0428 0.20886 0.0934 0.31181 0.10191 0.20731 0.27583 0.36819 0.4927 0.45602 0.0888 0.0359 0.18234 0.0579 0.28663 0.0668 0.0289 0.003 0.10804 0.002 0.14103-0.001 0.1069-0.01 0.20142-0.0331 0.29456-0.073 0.28193-0.12066 0.48868-0.37038 0.55261-0.66746 0.016-0.0746 0.0188-0.10383 0.0189-0.20152 0.00004-0.0975-0.002-0.12068-0.0189-0.19836-0.028-0.13063-0.086-0.25795-0.16642-0.36517-0.10109-0.13472-0.23235-0.23793-0.3864-0.30388-0.0768-0.0329-0.12114-0.0453-0.24636-0.0688-0.0152-0.003-0.052-0.004-0.12237-0.004zm2.1569 1.4827c0.005 0 0.11794 0.27186 0.17732 0.42608 0.0733 0.19037 0.16993 0.46772 0.16463 0.47246-0.005 0.005-0.21117 0.0475-0.34989 0.0728-0.23345 0.0426-0.60503 0.0959-0.60141 0.0865 0.00068-0.002 0.0167-0.028 0.0353-0.0575 0.16241-0.25783 0.39569-0.66344 0.53992-0.939 0.0176-0.0337 0.0329-0.0613 0.0341-0.0613zm-4.3069 0.0156c0.001 0.00021 0.0156 0.0261 0.0322 0.0579 0.14055 0.27053 0.37965 0.68323 0.54666 0.94316l0.0337 0.0524-0.0129-0.00039c-0.007-0.00021-0.0654-0.007-0.12933-0.0151-0.26655-0.0339-0.49376-0.071-0.72458-0.11823l-0.0784-0.0161 0.002-0.008c0.009-0.0388 0.10051-0.30711 0.15352-0.45125 0.0536-0.14563 0.17257-0.4442 0.17713-0.44452zm4.778 1.3315c0.001 0.001 0.01 0.0359 0.0194 0.0768 0.18419 0.79873 0.1697 1.5322-0.0385 1.9447-0.0983 0.19475-0.21755 0.2889-0.39017 0.30804-0.0431 0.005-0.0888 0.007-0.11465 0.005-0.0847-0.004-0.16118-0.0159-0.24416-0.0369-0.29783-0.0754-0.63393-0.25177-0.99375-0.52147-0.15211-0.114-0.35716-0.28838-0.49192-0.41833l-0.0333-0.0322 0.0115-0.0131c0.006-0.007 0.0332-0.0374 0.0597-0.067 0.24374-0.27319 0.52545-0.63289 0.76248-0.97392 0.0211-0.0304 0.0412-0.0563 0.0446-0.0575 0.003-0.001 0.0265-0.004 0.0512-0.006 0.12656-0.0106 0.41057-0.0437 0.57344-0.067 0.2385-0.0342 0.50883-0.0831 0.72022-0.13032 0.0339-0.008 0.0626-0.0127 0.0639-0.0113zm-5.236 0.0197c0.00068-0.001 0.0168 0.00069 0.0351 0.005 0.18384 0.0402 0.45842 0.0886 0.67481 0.11901 0.17246 0.0242 0.46974 0.0575 0.62283 0.0698 0.0341 0.003 0.0647 0.005 0.0682 0.006 0.004 0.00068 0.0219 0.0229 0.0482 0.0595 0.023 0.032 0.0791 0.10841 0.12497 0.16979 0.23169 0.31004 0.44401 0.5673 0.69444 0.84201 0.0183 0.02 0.0327 0.0376 0.0322 0.0389-0.001 0.003-0.0871 0.0839-0.13429 0.12635-0.41307 0.37154-0.83904 0.64424-1.2238 0.78371-0.18639 0.0675-0.36954 0.1003-0.51037 0.0914-0.17954-0.0113-0.29282-0.0751-0.38738-0.218-0.11008-0.16636-0.17453-0.40384-0.19855-0.73173-0.005-0.0692-0.005-0.32308 0-0.39809 0.0206-0.30547 0.06-0.56453 0.13508-0.88763 0.009-0.0403 0.0178-0.0745 0.0187-0.076zm3.2096 0.23585 0.0167 0.001-0.0775 0.10254c-0.17687 0.23412-0.32013 0.40896-0.51136 0.62344l-0.0125 0.0141-0.0492-0.054c-0.11115-0.12177-0.27052-0.30813-0.37865-0.44292-0.0661-0.0824-0.19054-0.24227-0.18944-0.24338 0.00039-0.00038 0.0301 0.00017 0.0659 0.002 0.0357 0.001 0.17055 0.004 0.2995 0.007 0.24078 0.004 0.57403 0.001 0.74819-0.007 0.0394-0.002 0.0793-0.003 0.0885-0.002zm-5.852 3.2482v3.0806h0.40841v-1.2463h0.72359l0.66866 1.2463h0.43578v-0.0254l-0.72359-1.3076c0.18477-0.0705 0.32865-0.17709 0.43161-0.31955 0.10438-0.14246 0.15651-0.30961 0.15651-0.50144 0-0.30185-0.0937-0.53169-0.28127-0.68967-0.18619-0.15798-0.45278-0.23703-0.79976-0.23703zm9.6692 0.23704v0.5542h-0.41674v0.30269h0.41674v1.4196c0 0.19465 0.0444 0.34487 0.13329 0.45066 0.0889 0.10579 0.22082 0.15868 0.39573 0.15868 0.0973 0 0.19733-0.0141 0.3003-0.0422v-0.31736c-0.079 0.0169-0.14091 0.0254-0.18606 0.0254-0.0917 0-0.1567-0.0227-0.19478-0.0678-0.0381-0.0466-0.0571-0.1156-0.0571-0.20728v-1.4196h0.42745v-0.3027h-0.42745v-0.5542zm-9.2607 0.0972h0.62204c0.2144 0.001 0.37808 0.0529 0.49093 0.15451 0.11425 0.10156 0.17137 0.24755 0.17137 0.43797 0 0.1749-0.06 0.31454-0.1799 0.41892-0.11849 0.10438-0.27852 0.1565-0.48022 0.1565h-0.62422zm3.0997 0.41475c-0.18196 0-0.35122 0.0508-0.50778 0.15234-0.15516 0.10015-0.27654 0.23979-0.36399 0.41893-0.086 0.17773-0.12913 0.38007-0.12913 0.60717v0.072c0 0.34134 0.0973 0.61428 0.29198 0.8188 0.19466 0.20312 0.4472 0.30467 0.75751 0.30467 0.38367 0 0.6714-0.14734 0.86324-0.44213l-0.23902-0.18625c-0.0719 0.0931-0.15599 0.16791-0.25191 0.22433-0.0959 0.0564-0.21285 0.0845-0.35108 0.0845-0.19466 0-0.35545-0.0691-0.4824-0.20729-0.12554-0.13964-0.19114-0.32236-0.19677-0.54805h1.5507v-0.16285c0-0.36532-0.0825-0.64595-0.24755-0.84201-0.16502-0.19606-0.39621-0.29416-0.69383-0.29416zm2.2828 0c-0.16645 0-0.31954 0.031-0.45919 0.093-0.13823 0.062-0.24824 0.1467-0.33006 0.2539-0.0804 0.10578-0.1206 0.2158-0.1206 0.33006h0.39353c0-0.10015 0.0473-0.18535 0.14183-0.25588 0.0945-0.0705 0.21164-0.10592 0.35129-0.10592 0.15939 0 0.27999 0.041 0.36179 0.12278 0.0818 0.0804 0.12258 0.18907 0.12258 0.32589v0.17972h-0.38084c-0.32865 0-0.58388 0.0664-0.76584 0.19894-0.18054 0.13118-0.27075 0.31602-0.27075 0.5544 0 0.19606 0.0719 0.3582 0.2158 0.48656 0.14529 0.12695 0.3307 0.19042 0.55638 0.19042 0.25249 0 0.46965-0.0944 0.6516-0.28344 0.0141 0.11566 0.0326 0.19606 0.0551 0.24119h0.41038v-0.0339c-0.0536-0.12413-0.0803-0.29127-0.0803-0.50144v-1.0537c-0.005-0.23132-0.0833-0.41251-0.23287-0.54369-0.14951-0.13258-0.35609-0.19894-0.61985-0.19894zm2.3866 0c-0.20875 0-0.38994 0.0479-0.54369 0.14381-0.15233 0.0959-0.26947 0.23075-0.35128 0.40424-0.0818 0.1735-0.12279 0.37161-0.12279 0.59447v0.0656c0 0.36109 0.0918 0.64595 0.27513 0.85471 0.18478 0.20734 0.43309 0.31102 0.74481 0.31102 0.15516 0 0.30172-0.0352 0.43995-0.10573 0.13964-0.0705 0.25121-0.16515 0.33443-0.28363 0.0832-0.11848 0.12821-0.24333 0.13528-0.3745h-0.37014c-0.0113 0.12694-0.0692 0.23274-0.17355 0.31737-0.10438 0.0846-0.22632 0.12694-0.36597 0.12694-0.20169 0-0.35691-0.0712-0.46553-0.21362-0.10861-0.14246-0.16285-0.34558-0.16285-0.60934v-0.074c0-0.27081 0.0542-0.47759 0.16285-0.62005 0.11001-0.14386 0.26447-0.21581 0.46335-0.21581 0.1481 0 0.27216 0.0481 0.37231 0.14402 0.10155 0.0945 0.15812 0.21566 0.16939 0.36377h0.37014c-0.0113-0.24544-0.10226-0.44488-0.27294-0.59863-0.16926-0.15375-0.38218-0.23069-0.6389-0.23069zm-4.6694 0.32154c0.16361 0 0.29325 0.055 0.38916 0.16502 0.0959 0.10861 0.14959 0.26249 0.16087 0.46138v0.0296h-1.1467c0.0254-0.20735 0.0916-0.36814 0.19874-0.4824 0.10721-0.11566 0.23993-0.17356 0.39791-0.17356zm2.4374 0.89933h0.30665v0.4697c-0.0494 0.10156-0.12899 0.18407-0.23901 0.24754-0.11002 0.0635-0.22638 0.0952-0.34911 0.0952-0.12835 0-0.23338-0.0346-0.31519-0.10374-0.0818-0.0691-0.12277-0.1651-0.12277-0.28781 0-0.28069 0.23985-0.42091 0.71943-0.42091z" style="stroke-width:.0030989;fill:#00749a"/>
    </g>
    <path style="fill:#666;fill-rule:evenodd" transform="matrix(.26458 0 0 .26458 0 138.25)" d="m673.49 237.14a5.1 8.5 0 0 0 -5.0996 8.5 5.1 8.5 0 0 0 5.0996 8.5h24.9v-17zm109.9 0v17h24.9a5.1 8.5 0 0 0 5.0996 -8.5 5.1 8.5 0 0 0 -5.0996 -8.5zm-109.9 28a5.1 8.5 0 0 0 -5.0996 8.5 5.1 8.5 0 0 0 5.0996 8.5h24.9v-17zm109.9 0v17h24.9a5.1 8.5 0 0 0 5.0996 -8.5 5.1 8.5 0 0 0 -5.0996 -8.5zm-109.9 28a5.1 8.5 0 0 0 -5.0996 8.5 5.1 8.5 0 0 0 5.0996 8.5h24.9v-17zm109.9 0v17h24.9a5.1 8.5 0 0 0 5.0996 -8.5 5.1 8.5 0 0 0 -5.0996 -8.5zm-109.9 28a5.1 8.5 0 0 0 -5.0996 8.5 5.1 8.5 0 0 0 5.0996 8.5h24.9v-17zm109.9 0v17h24.9a5.1 8.5 0 0 0 5.0996 -8.5 5.1 8.5 0 0 0 -5.0996 -8.5zm-109.9 28a5.1 8.5 0 0 0 -5.0996 8.5 5.1 8.5 0 0 0 5.0996 8.5h24.9v-17zm109.9 0v17h24.9a5.1 8.5 0 0 0 5.0996 -8.5 5.1 8.5 0 0 0 -5.0996 -8.5zm-109.9 28a5.1 8.5 0 0 0 -5.0996 8.5 5.1 8.5 0 0 0 5.0996 8.5h24.9v-17zm109.9 0v17h24.9a5.1 8.5 0 0 0 5.0996 -8.5 5.1 8.5 0 0 0 -5.0996 -8.5z"/>
    <path style="fill:#999;fill-rule:evenodd" transform="matrix(.26458 0 0 .26458 0 138.25)" d="m675.39 240.64v10h23v-10zm108 0v10h23v-10zm-108 28v10h23v-10zm108 0v10h23v-10zm-108 28v10h23v-10zm108 0v10h23v-10zm-108 28v10h23v-10zm108 0v10h23v-10zm-108 28v10h23v-10zm108 0v10h23v-10zm-108 28v10h23v-10zm108 0v10h23v-10z"/>
    <path style="fill:#333;fill-rule:evenodd" transform="matrix(.26458 0 0 .26458 0 138.25)" d="m690.39 240.64v10h4v-10zm97 0v10h4v-10zm-97 28v10h4v-10zm97 0v10h4v-10zm-97 28v10h4v-10zm97 0v10h4v-10zm-97 28.002v10h4v-10zm97 0v10h4v-10zm-97 28v10h4v-10zm97 0v10h4v-10zm-97 28v10h4v-10zm97 0v10h4v-10z"/>
   </g>
  </g>
 </g>
</svg>
