<svg xmlns="http://www.w3.org/2000/svg" height="64" width="64" version="1.1" viewBox="0 0 21.166666 21.166667">
 <g transform="translate(0 -275.83)">
  <path style="fill:#424242;fill-opacity:.31765;paint-order:normal;fill-rule:evenodd" transform="matrix(.26458 0 0 .26458 0 275.83)" d="m0 0v80h40 40v-80h-40-40zm40 16a11.52 11.52 0 0 1 11.52 11.52 11.52 11.52 0 0 1 -11.52 11.521 11.52 11.52 0 0 1 -11.52 -11.521 11.52 11.52 0 0 1 11.52 -11.52zm-6 26.24h6 6a18 9.8401 0 0 1 18 9.84v9.359a2.56 2.56 0 0 1 -2.561 2.561h-42.878a2.56 2.56 0 0 1 -2.561 -2.561v-9.359a18 9.8401 0 0 1 18 -9.84z"/>
 </g>
</svg>
