<?xml version="1.0" encoding="UTF-8" standalone="no"?>
<!-- Created with Inkscape (http://www.inkscape.org/) -->

<svg
   xmlns:dc="http://purl.org/dc/elements/1.1/"
   xmlns:cc="http://creativecommons.org/ns#"
   xmlns:rdf="http://www.w3.org/1999/02/22-rdf-syntax-ns#"
   xmlns:svg="http://www.w3.org/2000/svg"
   xmlns="http://www.w3.org/2000/svg"
   xmlns:sodipodi="http://sodipodi.sourceforge.net/DTD/sodipodi-0.dtd"
   xmlns:inkscape="http://www.inkscape.org/namespaces/inkscape"
   width="80"
   height="80"
   viewBox="0 0 21.166666 21.166667"
   version="1.1"
   id="svg4640"
   inkscape:version="0.92.1 r15371"
   sodipodi:docname="default-profile.inkscape.svg">
  <defs
     id="defs4634" />
  <sodipodi:namedview
     id="base"
     pagecolor="#ffffff"
     bordercolor="#666666"
     borderopacity="1.0"
     inkscape:pageopacity="0.0"
     inkscape:pageshadow="2"
     inkscape:zoom="3.959798"
     inkscape:cx="50.106545"
     inkscape:cy="36.65131"
     inkscape:document-units="mm"
     inkscape:current-layer="layer1"
     showgrid="false"
     units="px"
     inkscape:snap-bbox="true"
     inkscape:bbox-nodes="true"
     inkscape:bbox-paths="false"
     inkscape:snap-page="true"
     inkscape:window-width="1362"
     inkscape:window-height="725"
     inkscape:window-x="0"
     inkscape:window-y="20"
     inkscape:window-maximized="0" />
  <metadata
     id="metadata4637">
    <rdf:RDF>
      <cc:Work
         rdf:about="">
        <dc:format>image/svg+xml</dc:format>
        <dc:type
           rdf:resource="http://purl.org/dc/dcmitype/StillImage" />
        <dc:title></dc:title>
      </cc:Work>
    </rdf:RDF>
  </metadata>
  <g
     inkscape:label="Layer 1"
     inkscape:groupmode="layer"
     id="layer1"
     transform="translate(0,-275.83332)">
    <path
       style="opacity:1;fill:#424242;fill-opacity:0.31764706;fill-rule:evenodd;stroke:none;stroke-width:12.61721516;stroke-linecap:butt;stroke-linejoin:round;stroke-miterlimit:4;stroke-dasharray:none;stroke-opacity:1;paint-order:normal"
       d="M 0 0 L 0 80 L 40 80 L 80 80 L 80 0 L 40 0 L 0 0 z M 40 16 A 11.520145 11.520219 0 0 1 51.519531 27.519531 A 11.520145 11.520219 0 0 1 40 39.041016 A 11.520145 11.520219 0 0 1 28.480469 27.519531 A 11.520145 11.520219 0 0 1 40 16 z M 34 42.240234 L 40 42.240234 L 46 42.240234 A 18 9.8400634 0 0 1 64 52.080078 L 64 61.439453 A 2.5600002 2.5600167 0 0 1 61.439453 64 L 18.560547 64 A 2.5600002 2.5600167 0 0 1 16 61.439453 L 16 52.080078 A 18 9.8400634 0 0 1 34 42.240234 z "
       id="rect4550"
       transform="matrix(0.26458333,0,0,0.26458333,0,275.83332)" />
  </g>
</svg>
