<?xml version="1.0" encoding="UTF-8" standalone="no"?>
<svg version="1.1" viewBox="0 0 508.00001 238.12502">
 <defs>
  <linearGradient id="linearGradient4661" y2="203.09" gradientUnits="userSpaceOnUse" x2="482.75" y1="203.09" x1="25.883">
   <stop style="stop-color:#f2f2f2" offset="0"/>
   <stop style="stop-color:#dbdee3" offset="1"/>
  </linearGradient>
  <linearGradient id="linearGradient4669" y2="202.94" gradientUnits="userSpaceOnUse" x2="484.91" y1="202.94" x1="23.093">
   <stop style="stop-color:#6f7c91" offset="0"/>
   <stop style="stop-color:#373e48" offset="1"/>
  </linearGradient>
 </defs>
 <g transform="translate(0 -58.875)">
  <g transform="matrix(1.9086 0 0 1.9086 52.003 -243.53)">
   <path style="fill-rule:evenodd;stroke-width:0;fill:#dfc887" transform="matrix(.26458 0 0 .26458 0 138.25)" d="m135 100a5 5 0 0 0 -5 5v290a5 5 0 0 1 -5 5h-20a5 5 0 0 0 -5 5v90a5 5 0 0 0 5 5h550a5 5 0 0 0 5 -5v-100a5 5 0 0 1 5 -5h29.997a5 5 0 0 0 5 -5v-280a5 5 0 0 0 -5 -5h-559.64z"/>
   <rect ry="9.9193e-16" style="fill-rule:evenodd;stroke-width:0;fill:#e6e6e6" rx=".18866" transform="rotate(-1.9211)" height="84.667" width="55.562" y="177.7" x="32.481"/>
   <rect ry="9.9193e-16" style="fill-rule:evenodd;stroke-width:0;fill:#fdfcf7" rx=".18866" transform="rotate(.97850)" height="84.667" width="55.562" y="174.37" x="43.534"/>
   <g style="fill:#ececec">
    <rect style="fill-rule:evenodd;stroke-width:0;fill:#ececec" rx=".18342" ry="7.4064e-16" height="2.1167" width="39.688" y="185.87" x="48.381"/>
    <rect style="fill-rule:evenodd;stroke-width:0;fill:#ececec" rx=".18342" ry="7.4064e-16" height="2.1167" width="39.688" y="190.11" x="48.381"/>
    <rect style="fill-rule:evenodd;stroke-width:0;fill:#ececec" rx=".18342" ry="7.4064e-16" height="2.1167" width="39.688" y="194.34" x="48.381"/>
    <rect style="fill-rule:evenodd;stroke-width:0;fill:#ececec" rx=".18342" ry="7.4064e-16" height="2.1167" width="39.688" y="198.58" x="48.381"/>
    <rect style="fill-rule:evenodd;stroke-width:0;fill:#ececec" rx=".18342" ry="7.4064e-16" height="2.1167" width="39.688" y="202.81" x="48.381"/>
    <rect style="fill-rule:evenodd;stroke-width:0;fill:#ececec" rx=".18342" ry="7.4064e-16" height="2.1167" width="39.688" y="207.04" x="48.381"/>
    <rect style="fill-rule:evenodd;stroke-width:0;fill:#ececec" rx=".18342" ry="7.4064e-16" height="2.1167" width="39.688" y="211.28" x="48.381"/>
    <rect style="fill-rule:evenodd;stroke-width:0;fill:#ececec" rx=".18342" ry="7.4064e-16" height="2.1167" width="39.688" y="215.51" x="48.381"/>
    <rect style="fill-rule:evenodd;stroke-width:0;fill:#ececec" rx=".18342" ry="7.4064e-16" height="2.1167" width="39.688" y="219.74" x="48.381"/>
    <rect style="fill-rule:evenodd;stroke-width:0;fill:#ececec" rx=".18342" ry="7.4064e-16" height="2.1167" width="39.688" y="223.98" x="48.381"/>
    <rect style="fill-rule:evenodd;stroke-width:0;fill:#ececec" rx=".18342" ry="7.4064e-16" height="2.1167" width="39.688" y="228.21" x="48.381"/>
    <rect style="fill-rule:evenodd;stroke-width:0;fill:#ececec" rx=".18342" ry="7.4064e-16" height="2.1167" width="39.688" y="232.44" x="48.381"/>
    <rect style="fill-rule:evenodd;stroke-width:0;fill:#ececec" rx=".18342" ry="7.4064e-16" height="2.1167" width="39.688" y="236.68" x="48.381"/>
    <rect style="fill-rule:evenodd;stroke-width:0;fill:#ececec" rx=".18342" ry="7.4064e-16" height="2.1167" width="39.688" y="240.91" x="48.381"/>
    <rect style="fill-rule:evenodd;stroke-width:0;fill:#ececec" rx=".18342" ry="7.4064e-16" height="2.1167" width="39.688" y="245.14" x="48.381"/>
    <rect style="fill-rule:evenodd;stroke-width:0;fill:#ececec" rx=".18342" ry="7.4064e-16" height="2.1167" width="39.688" y="249.38" x="48.381"/>
   </g>
   <rect ry="1.0568e-14" style="fill-rule:evenodd;stroke-width:0;fill:#87aade" rx="1.565" transform="rotate(-.83031)" height="26.458" width="26.458" y="177.27" x="38.089"/>
   <path d="m45.216 202.86c0.35751-2.3104 1.2011-3.4933 3.166-4.4391 0.87222-0.41985 2.4932-1.0635 2.6075-1.0354 0.12612 0.0311 0.24727-0.24065 0.37956-0.85117l0.08391-0.3872-0.24849-0.30517c-0.55306-0.67921-1.0067-1.6596-1.3461-2.9091-0.20824-0.76663-0.21955-0.79025-0.37857-0.79079-0.22723-0.00071-0.36708-0.19274-0.54769-0.75185-0.08444-0.26137-0.28768-0.68522-0.45168-0.94189-0.25431-0.39805-0.2991-0.51289-0.30453-0.78084-0.0053-0.26521 0.02053-0.34306 0.16615-0.49955 0.09489-0.10196 0.24382-0.20212 0.33095-0.22258l0.15843-0.0372-0.03527-0.87411c-0.02645-0.65511-0.01229-0.98587 0.05719-1.3202 0.11203-0.54038 0.36064-1.1028 0.60679-1.3727 0.18626-0.20421 0.12962-0.2665-0.11772-0.12948-0.1101 0.061-0.11792 0.0537-0.08016-0.0746 0.2865-0.97385 1.6-1.9879 2.9854-2.305 0.13721-0.0315 0.15739-0.0557 0.10102-0.12166-0.10898-0.12751 0.50467-0.25226 1.2973-0.26375 0.58255-0.008 0.69598 0.007 0.89933 0.12336 0.29129 0.16649 0.30742 0.16553 0.26998-0.016-0.03033-0.14698-0.02924-0.14735 0.15884-0.0547 0.416 0.20498 1.082 0.69583 1.4597 1.0759 0.3693 0.37157 0.41857 0.4014 0.66538 0.40287 1.2687 0.008 1.95 1.3224 2.0068 3.8726l0.02095 0.94179 0.25928-0.004c0.21203-0.003 0.2959 0.0319 0.46027 0.1915 0.17653 0.17148 0.20133 0.23384 0.20378 0.51227 0.0024 0.27137-0.03817 0.38545-0.28173 0.79216-0.15648 0.26132-0.34736 0.69088-0.42418 0.95458-0.15864 0.54454-0.29324 0.75071-0.50214 0.76915-0.13258 0.0117-0.15965 0.0744-0.32082 0.74281-0.30399 1.2608-0.69262 2.1926-1.225 2.937l-0.277 0.38735 0.12557 0.46346c0.18096 0.66788 0.2421 0.79929 0.35149 0.75548 0.1076-0.0431 1.7918 0.56284 2.6826 0.96512 1.1035 0.4983 1.9265 1.134 2.3892 1.8455 0.3338 0.51318 0.65592 1.4278 0.88778 2.5208l0.0417 0.1964-9.1586 0.13273-9.1586 0.13273z" style="stroke-width:.060609;fill:#d7e3f4"/>
   <path d="m44.374 186.58c-0.60252-0.0956-1.0806-0.52149-1.2775-1.1379l-0.05137-0.16084-0.0069-3.5395c-0.0038-1.9467 0.002-3.5485 0.01303-3.5594 0.01099-0.011 0.07419-0.0264 0.14046-0.0343l0.12049-0.0143 0.0063 3.562 0.0063 3.562 0.05161 0.14139c0.08336 0.22837 0.169 0.36286 0.33738 0.52979 0.25581 0.25361 0.54196 0.369 0.91508 0.369 0.47227 0 0.90544-0.25946 1.1224-0.67227 0.16674-0.31732 0.1558 0.036 0.15587-5.0312 0.000056-3.7418-0.0056-4.591-0.0312-4.6867-0.0996-0.37229-0.38492-0.67448-0.74168-0.78552-0.18488-0.0575-0.48325-0.0589-0.66782-0.003-0.14083 0.0427-0.52445 0.0577-0.56022 0.0219-0.0273-0.0273 0.0971-0.12185 0.28348-0.21546 0.77671-0.3901 1.7231 0.0344 1.9498 0.87466l0.04987 0.18481-0.0075 4.6362c-0.0075 4.6204-0.0077 4.6368-0.05611 4.7882-0.22391 0.70002-0.75685 1.1414-1.4222 1.1777-0.11549 0.006-0.26376 0.003-0.32949-0.008z" style="stroke-width:.023375;fill:#787e8f"/>
   <g style="fill:#d4bc80">
    <rect style="fill-rule:evenodd;stroke-width:0;fill:#d4bc80" rx=".18866" ry="9.9193e-16" height="98.622" width="1.0691" y="167.37" x="112.79"/>
    <rect style="fill-rule:evenodd;stroke-width:0;fill:#d4bc80" rx=".18866" ry="9.9193e-16" height="98.622" width="1.0691" y="167.24" x="103.43"/>
    <rect style="fill-rule:evenodd;stroke-width:0;fill:#d4bc80" rx=".18342" ry="2.3423e-14" height="1.6036" width="29.132" y="184.57" x="133.62"/>
    <rect style="fill-rule:evenodd;stroke-width:0;fill:#d4bc80" rx=".18342" ry="2.3423e-14" height="1.6036" width="29.132" y="188.64" x="133.62"/>
    <rect style="fill-rule:evenodd;stroke-width:0;fill:#d4bc80" rx=".18342" ry="2.3423e-14" height="1.6036" width="29.132" y="192.72" x="133.62"/>
   </g>
  </g>
  <path style="fill-rule:evenodd;stroke-width:0;fill:url(#linearGradient4669)" d="m366.83 120.84a31.202 19.017 0 0 0 -17.946 3.489 25.828 24.916 0 0 0 -16.261 17.579 22.369 23.878 0 0 0 -13.65 -4.9995 22.369 23.878 0 0 0 -22.313 22.701 11.814 14.216 42.312 0 0 -10.73 4.0027 11.814 14.216 42.312 0 0 -3.8376 17.405 14.853 14.131 0 0 0 -5.4276 10.91 14.853 14.131 0 0 0 0.22933 2.3943 9.9609 10.315 0 0 0 -1.2262 -0.0856 9.9609 10.315 0 0 0 -9.9532 10.082 17.691 15.501 0 0 0 -5.2136 -0.688 17.691 15.501 0 0 0 -14.931 7.1889 23.856 23.036 0 0 0 -23.328 -18.344 23.856 23.036 0 0 0 -17.515 7.4274 17.104 16.675 0 0 0 -16.047 -10.95 17.104 16.675 0 0 0 -17.105 16.674 17.104 16.675 0 0 0 0.0244 0.44644 8.6889 9.2388 0 0 0 -4.0547 -1.0733 8.6889 9.2388 0 0 0 -3.3238 0.70329 17.11 17.651 0 0 0 -16.977 -15.656 17.11 17.651 0 0 0 -9.7666 3.1832 26.935 24.085 0 0 0 -24.692 -14.531 26.935 24.085 0 0 0 -16.683 5.183 25.206 25.815 0 0 0 -12.326 22.157 25.206 25.815 0 0 0 3.0333 12.265 14.62 13.914 0 0 0 -0.59322 -0.0276 14.62 13.914 0 0 0 -14.619 13.916 14.62 13.914 0 0 0 0.23852 2.4218 13.028 13.638 0 0 0 -4.0913 -0.70023 13.028 13.638 0 0 0 -6.2502 1.6879 21.043 23.027 0 0 0 -17.338 -10.048 21.043 23.027 0 0 0 -21.026 22.609 21.184 15.113 52.887 0 0 -0.01253 0.31189 21.043 23.027 0 0 0 -0.0063 0.10709 21.043 23.027 0 0 0 0.0031 0.0581 21.184 15.113 52.887 0 0 7.0391 17.904 21.184 15.113 52.887 0 0 20.338 7.4396 35.818 19.113 0 0 0 30.554 9.1734 35.818 19.113 0 0 0 28.422 -7.5222 41.591 17.449 0 0 0 36.452 9.0878 41.591 17.449 0 0 0 34.978 -8.0451 16.444 10.6 0 0 0 9.9348 2.1741 16.444 10.6 0 0 0 7.7821 -1.2751 12.236 8.5452 0 0 0 8.5588 2.4493 12.236 8.5452 0 0 0 10.559 -4.2442 19.673 11.872 0 0 0 13.512 3.2657 19.673 11.872 0 0 0 13.699 -3.3666 32.149 12.019 0 0 0 28.838 6.7394 32.149 12.019 0 0 0 27.386 -5.7548 20.457 25.354 0 0 0 0.003 0 20.457 25.354 0 0 0 11.192 4.2014 20.457 25.354 0 0 0 7.3907 -1.7399 16.583 8.4009 0 0 1 0.003 0 16.583 8.4009 0 0 1 11.858 -2.541 16.583 8.4009 0 0 1 13.396 3.4614 16.583 8.4009 0 0 0 0.0125 -0.003 11.068 8.4009 0 0 0 7.6629 2.3515 11.068 8.4009 0 0 0 8.779 -3.3055 11.068 8.4009 0 0 0 0.0183 -0.0157v-0.003a9.8389 9.3769 0 0 0 0.74 -0.7828 35.965 19.553 0 0 0 27.114 6.7425 35.965 19.553 0 0 0 28.823 -7.8953 21.712 15.402 0 0 0 6.1187 -5.767 21.712 15.402 0 0 0 17.714 6.5284 21.712 15.402 0 0 0 13.95 -3.599 21.633 28.614 23.061 0 0 26.67 -21.744 21.633 28.614 23.061 0 0 1.8714 -9.7636 40.107 37.614 0 0 0 0.42504 -5.1677 40.107 37.614 0 0 0 -0.899 -7.7057 40.107 38.397 0 0 0 -17.867 -27.331 33.551 27.829 0 0 0 -22.564 -7.2745 33.551 27.829 0 0 0 -10.62 1.4647 6.7319 6.3033 0 0 0 0.0947 -1.0152 6.7319 6.3033 0 0 0 -6.7333 -6.3021 6.7319 6.3033 0 0 0 -0.54428 0.0244 11.575 12.254 0 0 0 -11.182 -9.1245 11.575 12.254 0 0 0 -2.8866 0.40362 40.497 43.251 0 0 0 2.4615 -14.693 40.497 43.251 0 0 0 -27.777 -41.005 31.202 19.017 0 0 0 -19.561 -4.2259zm56.037 80.326a6.7319 6.3033 0 0 0 0.1193 0.0673 33.551 27.829 0 0 0 -0.45562 0.28743 11.575 12.254 0 0 0 0.33635 -0.3547z"/>
  <path style="fill-rule:evenodd;stroke-width:0;fill:url(#linearGradient4661)" d="m367.35 124.14a43.874 40.64 0 0 0 -9.7911 1.0886 26.853 22.093 0 0 0 -22.359 20.527 1.1792 1.2064 0 0 1 0.003 0.0488 1.1792 1.2064 0 0 1 -1.1803 1.2078 1.1792 1.2064 0 0 1 -0.9204 -0.45562 18.823 18.02 0 0 0 -0.003 -0.003 18.823 18.02 0 0 0 -14.057 -6.0698 18.823 18.02 0 0 0 -18.821 18.02 18.823 18.02 0 0 0 0.27215 2.8805 1.1792 1.2064 0 0 1 0.0276 0.25992 1.1792 1.2064 0 0 1 -1.1773 1.2078 1.1792 1.2064 0 0 1 -0.37916 -0.0642 8.1696 11.604 44.53 0 0 -11.861 4.6265 8.1696 11.604 44.53 0 0 -1.9601 13.185 1.1792 1.2064 0 0 1 0.39753 0.90512 1.1792 1.2064 0 0 1 -0.61158 1.058 11.258 11.774 0 0 0 -5.5408 10.127 11.258 11.774 0 0 0 0.77058 4.2137 1.0322 1.0075 0 0 1 0.003 0.009 11.258 11.774 0 0 0 0 0.003 1.0322 1.0075 0 0 1 0.0703 0.36388 1.0322 1.0075 0 0 1 -1.0335 1.006 1.0322 1.0075 0 0 1 -0.36999 -0.0673 7.7728 7.5626 0 0 0 -0.0305 -0.0125 7.7728 7.5626 0 0 0 -2.5166 -0.42199 7.7728 7.5626 0 0 0 -7.773 7.562 7.7728 7.5626 0 0 0 0.2905 2.0029 7.7728 7.5626 0 0 0 0.006 0.0214 1.1792 1.2064 0 0 1 0.0642 0.37917 1.1792 1.2064 0 0 1 -1.1803 1.2078 1.1792 1.2064 0 0 1 -0.56875 -0.15296 14.325 13.107 0 0 0 -0.009 -0.003 14.325 13.107 0 0 0 -6.9137 -1.6573 14.325 13.107 0 0 0 -14.295 12.451 1.6379 1.6101 0 0 1 0.003 0.0673 1.6379 1.6101 0 0 1 -1.639 1.6115 1.6379 1.6101 0 0 1 -1.639 -1.6115 1.6379 1.6101 0 0 1 0.006 -0.0918 6.0917 6.56 0 0 0 -0.003 0 20.829 21.272 0 0 0 0.006 -0.0703 20.829 21.272 0 0 0 0.16207 -2.2536 20.829 21.272 0 0 0 -20.83 -21.27 20.829 21.272 0 0 0 -17.234 9.3905 1.1792 1.2064 0 0 1 -0.006 0.0125 1.1792 1.2064 0 0 1 -1.0274 0.61767 1.1792 1.2064 0 0 1 -1.1712 -1.0733 3.2117 3.3168 0 0 0 -0.006 0 13.91 14.491 0 0 0 -13.766 -12.546 13.91 14.491 0 0 0 -13.91 14.491 13.91 14.491 0 0 0 0.36387 3.171 1.7418 1.7018 0 0 1 0.006 0.0215 1.7418 1.7018 0 0 1 0.0581 0.43421 1.7418 1.7018 0 0 1 -1.743 1.7032 1.7418 1.7018 0 0 1 -1.6115 -1.0611 3.7967 3.7567 0 0 0 -0.003 0.003 5.8149 9.1633 10.497 0 0 -3.4248 -3.1098 5.8149 9.1633 10.497 0 0 -6.5835 5.2258 5.8149 9.1633 10.497 0 0 -0.006 0.0183 1.0922 1.1209 0 0 1 -1.0182 0.72163 1.0922 1.1209 0 0 1 -1.0947 -1.1192 1.0922 1.1209 0 0 1 0.10083 -0.46785 13.841 13.937 0 0 0 0.9846 -5.1249 13.841 13.937 0 0 0 -13.84 -13.938 13.841 13.937 0 0 0 -10.167 4.5164 1.485 1.659 0 0 1 -1.0458 0.48313 1.485 1.659 0 0 1 -1.4769 -1.5044 14.533 13.591 0 0 0 -3.6785 -7.4763 6.3652 8.007 0 0 1 0.003 -0.009 25.563 24.675 0 0 0 -0.0673 -0.0581 14.533 13.591 0 0 0 -1.587 -1.3821 25.563 24.675 0 0 0 -16.375 -5.764 25.563 24.675 0 0 0 -25.563 24.673 25.563 24.675 0 0 0 4.6632 14.139 1.816 1.8511 0 0 1 0.0764 0.10396 1.816 1.8511 0 0 1 0.34553 1.0794 1.816 1.8511 0 0 1 -1.8163 1.85 1.816 1.8511 0 0 1 -1.1069 -0.38529 8.8115 9.8172 0 0 0 -0.06419 -0.0488 8.8115 9.8172 0 0 0 -5.0974 -1.8255 8.8115 9.8172 0 0 0 -8.8126 9.8186 8.8115 9.8172 0 0 0 2.3637 6.6538 1.923 1.9286 0 0 1 0.01566 0.0183 8.8115 9.8172 0 0 0 0.01252 0.0156 8.8115 9.8172 0 0 0 0.04274 0.0551 16.747 15.736 0 0 0 -0.0031 0.003 1.923 1.9286 0 0 1 0.36388 1.1253 1.923 1.9286 0 0 1 -1.9234 1.9295 1.923 1.9286 0 0 1 -1.5044 -0.73082 16.747 15.736 0 0 0 -0.0063 0.003 7.5394 7.3221 0 0 0 -6.3021 -3.333 7.5394 7.3221 0 0 0 -6.1951 3.1648 1.1792 1.2064 0 0 1 -1.0488 0.65132 1.1792 1.2064 0 0 1 -1.1467 -0.93264 13.564 13.246 0 0 0 -9.6076 -9.947 12.97 9.4442 0 0 0 -5.4857 -0.899 12.97 9.4442 0 0 0 -4.0118 0.47702 16.263 16.636 0 0 0 -11.818 8.6077 15.432 15.667 0 0 0 -2.0426 3.8926 19.693 13.152 55.854 0 0 3.9293 20.05 19.693 13.152 55.854 0 0 19.665 9.2621 1.1792 1.2064 0 0 1 0.55652 -0.14372 1.1792 1.2064 0 0 1 0.85923 0.38223 33.688 18.312 0 0 0 29.013 9.0542 33.688 18.312 0 0 0 27.6 -7.8861 1.285 1.0626 0 0 1 0.003 -0.003 1.285 1.0626 0 0 1 0.9204 -0.32107 1.285 1.0626 0 0 1 0.88065 0.2905 1.285 1.0626 0 0 0 0.003 -0.003 43.194 20.968 0 0 0 35.452 9.0389 43.194 20.968 0 0 0 33.856 -7.984 1.285 1.0626 0 0 0 0.006 0.003 1.285 1.0626 0 0 1 0.7614 -0.20793 1.285 1.0626 0 0 1 0.77669 0.21404 15.715 15.136 0 0 0 8.727 2.59 15.715 15.136 0 0 0 7.6017 -1.8928 15.715 15.136 0 0 0 0.009 -0.003 1.285 1.0626 0 0 1 0.68802 -0.16511 1.285 1.0626 0 0 1 0.92345 0.32718 11.168 10.095 0 0 0 7.5069 2.642 11.168 10.095 0 0 0 9.1673 -4.3666 1.285 1.0626 0 0 1 0.0276 -0.0366 1.285 1.0626 0 0 1 1.1008 -0.51372 1.285 1.0626 0 0 1 0.82562 0.24463 1.285 1.0626 0 0 1 0.003 0.003 21.443 16.595 0 0 0 13.919 4.0057 21.443 16.595 0 0 0 13.176 -3.5532 1.285 1.0626 0 0 1 0.0305 -0.0183 1.285 1.0626 0 0 1 0.76752 -0.21098 1.285 1.0626 0 0 1 0.847 0.26603 1.285 1.0626 0 0 0 0.003 -0.003 35.282 19.67 0 0 0 27.04 7.085 35.282 19.67 0 0 0 26.346 -6.6263 1.285 1.0626 0 0 1 0.006 -0.003 1.285 1.0626 0 0 1 0.82255 -0.24768 1.285 1.0626 0 0 1 0.83785 0.25685 20.324 19.67 0 0 0 0.009 0.006 20.324 19.67 0 0 0 11.118 3.2596 20.324 19.67 0 0 0 7.3449 -1.3516 16.476 6.5177 0 0 1 0.003 0 16.476 6.5177 0 0 1 11.782 -1.9692 16.476 6.5177 0 0 1 13.308 2.6848 16.476 6.5177 0 0 0 0.009 -0.003 10.997 6.5177 0 0 0 7.614 1.8255 10.997 6.5177 0 0 0 8.8493 -2.6634 1.7889 1.5909 0 0 0 0.003 0.003 1.7889 1.5909 0 0 1 1.2262 -0.43421 1.7889 1.5909 0 0 1 1.061 0.30883 38.297 26.186 0 0 0 25.123 6.507 38.297 26.186 0 0 0 33.593 -13.736 1.7889 1.5909 0 0 1 0.0157 -0.0183 1.7889 1.5909 0 0 1 1.4616 -0.67578 1.7889 1.5909 0 0 1 1.3546 0.55346 25.674 28.338 0 0 0 16.998 7.14 25.674 28.338 0 0 0 12.433 -3.5776 1.1792 1.2064 0 0 1 0.003 0 1.1792 1.2064 0 0 1 0.64825 -0.2018 1.1792 1.2064 0 0 1 0.2966 0.0398 14.425 12.878 0 0 0 2.9386 0.29965 14.425 12.878 0 0 0 8.1796 -2.2872 40.743 40.08 0 0 1 0.003 0.003 40.743 40.08 0 0 0 0.0244 -0.0214 14.425 12.878 0 0 0 3.3086 -2.8438 40.743 40.08 0 0 0 12.421 -28.768 40.743 40.08 0 0 0 -40.742 -40.079 40.743 40.08 0 0 0 -2.1099 0.10396 14.451 9.0635 0 0 0 -0.51371 0.0244 40.743 40.08 0 0 0 -0.0459 0.003 14.451 9.0635 0 0 0 -8.7331 2.5258 1.1187 1.0551 0 0 1 -0.62685 0.18346 1.1187 1.0551 0 0 1 -1.1192 -1.0549 1.1187 1.0551 0 0 1 0.29967 -0.7186 3.6872 4.0242 0 0 0 0.9785 -2.7214 3.6872 4.0242 0 0 0 -3.6877 -4.0241 3.6872 4.0242 0 0 0 -2.7398 1.3393 3.6872 4.0242 0 0 0 -0.0215 0.0244 0.96576 1.4404 0 0 1 -0.65132 0.38223 0.96576 1.4404 0 0 1 -0.96627 -1.4402 0.96576 1.4404 0 0 1 0.049 -0.44337 8.384 7.8312 0 0 0 0.003 -0.0125 8.384 7.8312 0 0 0 0.11319 -1.2323 8.384 7.8312 0 0 0 -8.3845 -7.831 8.384 7.8312 0 0 0 -3.966 0.93265 1.1792 1.2064 0 0 1 -0.65131 0.19875 1.1792 1.2064 0 0 1 -1.1773 -1.2048 1.1792 1.2064 0 0 1 0.13449 -0.55957 38.204 38.629 0 0 0 0.009 -0.0214 38.204 38.629 0 0 0 3.229 -15.424 38.204 38.629 0 0 0 -0.37 -5.0148 43.874 40.64 0 0 0 -43.718 -37.715z"/>
 </g>
</svg>
