<?xml version="1.0" encoding="UTF-8" standalone="no"?>
<!-- Created with Inkscape (http://www.inkscape.org/) -->

<svg
   xmlns:dc="http://purl.org/dc/elements/1.1/"
   xmlns:cc="http://creativecommons.org/ns#"
   xmlns:rdf="http://www.w3.org/1999/02/22-rdf-syntax-ns#"
   xmlns:svg="http://www.w3.org/2000/svg"
   xmlns="http://www.w3.org/2000/svg"
   xmlns:xlink="http://www.w3.org/1999/xlink"
   xmlns:sodipodi="http://sodipodi.sourceforge.net/DTD/sodipodi-0.dtd"
   xmlns:inkscape="http://www.inkscape.org/namespaces/inkscape"
   width="1750"
   height="805"
   viewBox="0 0 463.02084 212.9896"
   version="1.1"
   id="svg8"
   inkscape:version="0.92.1 r15371"
   sodipodi:docname="dark.inkscape.svg">
  <defs
     id="defs2">
    <linearGradient
       inkscape:collect="always"
       id="linearGradient4667">
      <stop
         style="stop-color:#cccccc;stop-opacity:1"
         offset="0"
         id="stop4663" />
      <stop
         style="stop-color:#666666;stop-opacity:1"
         offset="1"
         id="stop4665" />
    </linearGradient>
    <linearGradient
       inkscape:collect="always"
       id="linearGradient4659">
      <stop
         style="stop-color:#898979;stop-opacity:1"
         offset="0"
         id="stop4655" />
      <stop
         style="stop-color:#333333;stop-opacity:1"
         offset="1"
         id="stop4657" />
    </linearGradient>
    <linearGradient
       inkscape:collect="always"
       xlink:href="#linearGradient4659"
       id="linearGradient4661"
       x1="267.60107"
       y1="286.1575"
       x2="268.7247"
       y2="125.26126"
       gradientUnits="userSpaceOnUse" />
    <linearGradient
       inkscape:collect="always"
       xlink:href="#linearGradient4667"
       id="linearGradient4669"
       x1="267.05618"
       y1="303.96783"
       x2="267.13577"
       y2="119.12423"
       gradientUnits="userSpaceOnUse" />
  </defs>
  <sodipodi:namedview
     id="base"
     pagecolor="#1d1d1d"
     bordercolor="#666666"
     borderopacity="1.0"
     inkscape:pageopacity="0"
     inkscape:pageshadow="2"
     inkscape:zoom="0.35355339"
     inkscape:cx="913.57098"
     inkscape:cy="421.85882"
     inkscape:document-units="mm"
     inkscape:current-layer="layer1"
     showgrid="false"
     units="px"
     inkscape:snap-nodes="true"
     inkscape:snap-global="false"
     inkscape:snap-bbox="true"
     inkscape:snap-others="false"
     inkscape:snap-bbox-edge-midpoints="true"
     inkscape:window-width="1362"
     inkscape:window-height="725"
     inkscape:window-x="0"
     inkscape:window-y="20"
     inkscape:window-maximized="0"
     inkscape:pagecheckerboard="false" />
  <metadata
     id="metadata5">
    <rdf:RDF>
      <cc:Work
         rdf:about="">
        <dc:format>image/svg+xml</dc:format>
        <dc:type
           rdf:resource="http://purl.org/dc/dcmitype/StillImage" />
        <dc:title></dc:title>
      </cc:Work>
    </rdf:RDF>
  </metadata>
  <g
     inkscape:label="Layer 1"
     inkscape:groupmode="layer"
     id="layer1"
     transform="translate(0,-84.010397)">
    <g
       id="g6147"
       transform="translate(-22.489353,10.485599)">
      <g
         transform="translate(-2.5023195,2.6856295)"
         id="g6108">
        <g
           id="g6073">
          <path
             id="rect4583"
             d="m 120.17705,70.839169 a 2.5249611,2.5249611 0 0 0 -2.52496,2.524961 v 2.524962 141.397828 2.52497 a 2.5249603,2.5249603 0 0 1 -2.52496,2.52496 h -0.17853 -2.16791 -0.17852 -5.04993 -0.17852 -2.16791 -0.17853 a 2.5249605,2.5249605 0 0 0 -2.52496,2.52496 v 2.52496 40.39938 2.52496 a 2.5249606,2.5249606 0 0 0 2.52496,2.52496 h 0.17853 2.16791 0.17852 272.69582 0.17853 2.16791 0.17853 a 2.5249607,2.5249607 0 0 0 2.52496,-2.52496 v -2.52496 -45.4493 -2.52496 a 2.5249608,2.5249608 0 0 1 2.52496,-2.52497 h 0.17852 2.16791 0.17853 10.09984 0.17853 2.16791 0.17853 a 2.5249609,2.5249609 0 0 0 2.52496,-2.52496 V 212.237 75.889092 73.36413 a 2.524961,2.524961 0 0 0 -2.52496,-2.524961 h -0.17853 -2.16791 -0.17853 -277.74574 -0.17852 -2.16792 z"
             style="opacity:1;fill:#826230;fill-opacity:1;fill-rule:evenodd;stroke:#ffffff;stroke-width:0;stroke-miterlimit:4;stroke-dasharray:none;stroke-opacity:1"
             inkscape:connector-curvature="0" />
          <g
             style="fill:#765a2c;fill-opacity:1"
             id="g5573">
            <rect
               style="opacity:1;fill:#765a2c;fill-opacity:1;fill-rule:evenodd;stroke:#ffffff;stroke-width:0;stroke-miterlimit:4;stroke-dasharray:none;stroke-opacity:1"
               id="rect4830"
               width="2.0404768"
               height="188.23399"
               x="267.27341"
               y="75.927498"
               rx="0.36007765"
               ry="1.8932211e-15" />
            <rect
               style="opacity:1;fill:#765a2c;fill-opacity:1;fill-rule:evenodd;stroke:#ffffff;stroke-width:0;stroke-miterlimit:4;stroke-dasharray:none;stroke-opacity:1"
               id="rect4830-2"
               width="2.0404768"
               height="188.23399"
               x="249.41925"
               y="75.672432"
               rx="0.36007768"
               ry="1.8932211e-15" />
            <rect
               style="opacity:1;fill:#765a2c;fill-opacity:1;fill-rule:evenodd;stroke:#ffffff;stroke-width:0;stroke-miterlimit:4;stroke-dasharray:none;stroke-opacity:1"
               id="rect4608"
               width="55.602993"
               height="3.0607154"
               x="307.02646"
               y="108.74392"
               rx="0.3500753"
               ry="4.4705247e-14" />
            <rect
               style="opacity:1;fill:#765a2c;fill-opacity:1;fill-rule:evenodd;stroke:#ffffff;stroke-width:0;stroke-miterlimit:4;stroke-dasharray:none;stroke-opacity:1"
               id="rect4608-3"
               width="55.602997"
               height="3.0607154"
               x="307.02646"
               y="116.52325"
               rx="0.3500753"
               ry="4.4705247e-14" />
            <rect
               style="opacity:1;fill:#765a2c;fill-opacity:1;fill-rule:evenodd;stroke:#ffffff;stroke-width:0;stroke-miterlimit:4;stroke-dasharray:none;stroke-opacity:1"
               id="rect4608-3-6"
               width="55.603004"
               height="3.0607154"
               x="307.02646"
               y="124.30258"
               rx="0.3500753"
               ry="4.4705247e-14" />
          </g>
        </g>
        <g
           id="g6064">
          <g
             id="g6034">
            <rect
               style="opacity:1;fill:#cccccc;fill-opacity:1;fill-rule:evenodd;stroke:#ffffff;stroke-width:0;stroke-miterlimit:4;stroke-dasharray:none;stroke-opacity:1"
               id="rect4778"
               width="106.04838"
               height="161.59752"
               x="122.13139"
               y="97.521019"
               rx="0.36007789"
               ry="1.8932216e-15"
               transform="rotate(-1.9211165)" />
            <rect
               style="opacity:1;fill:#e6e6e6;fill-opacity:1;fill-rule:evenodd;stroke:#ffffff;stroke-width:0;stroke-miterlimit:4;stroke-dasharray:none;stroke-opacity:1"
               id="rect4778-2"
               width="106.04838"
               height="161.59752"
               x="130.92767"
               y="88.432289"
               rx="0.36007789"
               ry="1.8932218e-15"
               transform="rotate(0.97849892)" />
            <g
               id="g5105"
               style="fill:#cccccc;fill-opacity:1"
               transform="matrix(1.9086322,0,0,1.9086322,52.003095,-243.52842)">
              <rect
                 ry="7.4063746e-16"
                 rx="0.18341695"
                 y="185.87498"
                 x="48.380955"
                 height="2.1166658"
                 width="39.6875"
                 id="rect4928-8-9"
                 style="opacity:1;fill:#cccccc;fill-opacity:1;fill-rule:evenodd;stroke:#ffffff;stroke-width:0;stroke-miterlimit:4;stroke-dasharray:none;stroke-opacity:1" />
              <rect
                 ry="7.4063746e-16"
                 rx="0.18341695"
                 y="190.10832"
                 x="48.380947"
                 height="2.1166658"
                 width="39.6875"
                 id="rect4928-8-3"
                 style="opacity:1;fill:#cccccc;fill-opacity:1;fill-rule:evenodd;stroke:#ffffff;stroke-width:0;stroke-miterlimit:4;stroke-dasharray:none;stroke-opacity:1" />
              <rect
                 ry="7.4063746e-16"
                 rx="0.18341695"
                 y="194.34166"
                 x="48.380943"
                 height="2.1166658"
                 width="39.6875"
                 id="rect4928-8-9-7-1"
                 style="opacity:1;fill:#cccccc;fill-opacity:1;fill-rule:evenodd;stroke:#ffffff;stroke-width:0;stroke-miterlimit:4;stroke-dasharray:none;stroke-opacity:1" />
              <rect
                 ry="7.4063746e-16"
                 rx="0.18341695"
                 y="198.575"
                 x="48.380943"
                 height="2.1166658"
                 width="39.6875"
                 id="rect4928-8-9-9"
                 style="opacity:1;fill:#cccccc;fill-opacity:1;fill-rule:evenodd;stroke:#ffffff;stroke-width:0;stroke-miterlimit:4;stroke-dasharray:none;stroke-opacity:1" />
              <rect
                 ry="7.4063746e-16"
                 rx="0.18341695"
                 y="202.80833"
                 x="48.380939"
                 height="2.1166658"
                 width="39.6875"
                 id="rect4928-8-1"
                 style="opacity:1;fill:#cccccc;fill-opacity:1;fill-rule:evenodd;stroke:#ffffff;stroke-width:0;stroke-miterlimit:4;stroke-dasharray:none;stroke-opacity:1" />
              <rect
                 ry="7.4063746e-16"
                 rx="0.18341695"
                 y="207.04167"
                 x="48.380936"
                 height="2.1166658"
                 width="39.6875"
                 id="rect4928-8-9-7-7"
                 style="opacity:1;fill:#cccccc;fill-opacity:1;fill-rule:evenodd;stroke:#ffffff;stroke-width:0;stroke-miterlimit:4;stroke-dasharray:none;stroke-opacity:1" />
              <rect
                 ry="7.4063746e-16"
                 rx="0.18341695"
                 y="211.27501"
                 x="48.380932"
                 height="2.1166658"
                 width="39.6875"
                 id="rect4928-8-9-6-4"
                 style="opacity:1;fill:#cccccc;fill-opacity:1;fill-rule:evenodd;stroke:#ffffff;stroke-width:0;stroke-miterlimit:4;stroke-dasharray:none;stroke-opacity:1" />
              <rect
                 ry="7.4063746e-16"
                 rx="0.18341695"
                 y="215.50835"
                 x="48.380928"
                 height="2.1166658"
                 width="39.6875"
                 id="rect4928-8-2-0"
                 style="opacity:1;fill:#cccccc;fill-opacity:1;fill-rule:evenodd;stroke:#ffffff;stroke-width:0;stroke-miterlimit:4;stroke-dasharray:none;stroke-opacity:1" />
              <rect
                 ry="7.4063746e-16"
                 rx="0.18341695"
                 y="219.74168"
                 x="48.380924"
                 height="2.1166658"
                 width="39.6875"
                 id="rect4928-8-9-7-3-6"
                 style="opacity:1;fill:#cccccc;fill-opacity:1;fill-rule:evenodd;stroke:#ffffff;stroke-width:0;stroke-miterlimit:4;stroke-dasharray:none;stroke-opacity:1" />
              <rect
                 ry="7.4063746e-16"
                 rx="0.18341695"
                 y="223.97502"
                 x="48.380924"
                 height="2.1166658"
                 width="39.6875"
                 id="rect4928-8-9-63"
                 style="opacity:1;fill:#cccccc;fill-opacity:1;fill-rule:evenodd;stroke:#ffffff;stroke-width:0;stroke-miterlimit:4;stroke-dasharray:none;stroke-opacity:1" />
              <rect
                 ry="7.4063746e-16"
                 rx="0.18341695"
                 y="228.20836"
                 x="48.380917"
                 height="2.1166658"
                 width="39.6875"
                 id="rect4928-8-3-0"
                 style="opacity:1;fill:#cccccc;fill-opacity:1;fill-rule:evenodd;stroke:#ffffff;stroke-width:0;stroke-miterlimit:4;stroke-dasharray:none;stroke-opacity:1" />
              <rect
                 ry="7.4063746e-16"
                 rx="0.18341695"
                 y="232.4417"
                 x="48.380909"
                 height="2.1166658"
                 width="39.6875"
                 id="rect4928-8-9-7-1-1"
                 style="opacity:1;fill:#cccccc;fill-opacity:1;fill-rule:evenodd;stroke:#ffffff;stroke-width:0;stroke-miterlimit:4;stroke-dasharray:none;stroke-opacity:1" />
              <rect
                 ry="7.4063746e-16"
                 rx="0.18341695"
                 y="236.67503"
                 x="48.380909"
                 height="2.1166658"
                 width="39.6875"
                 id="rect4928-8-9-9-5"
                 style="opacity:1;fill:#cccccc;fill-opacity:1;fill-rule:evenodd;stroke:#ffffff;stroke-width:0;stroke-miterlimit:4;stroke-dasharray:none;stroke-opacity:1" />
              <rect
                 ry="7.4063746e-16"
                 rx="0.18341695"
                 y="240.90837"
                 x="48.380909"
                 height="2.1166658"
                 width="39.6875"
                 id="rect4928-8-7"
                 style="opacity:1;fill:#cccccc;fill-opacity:1;fill-rule:evenodd;stroke:#ffffff;stroke-width:0;stroke-miterlimit:4;stroke-dasharray:none;stroke-opacity:1" />
              <rect
                 ry="7.4063746e-16"
                 rx="0.18341695"
                 y="245.14171"
                 x="48.380901"
                 height="2.1166658"
                 width="39.6875"
                 id="rect4928-8-9-7-6"
                 style="opacity:1;fill:#cccccc;fill-opacity:1;fill-rule:evenodd;stroke:#ffffff;stroke-width:0;stroke-miterlimit:4;stroke-dasharray:none;stroke-opacity:1" />
              <rect
                 ry="7.4063746e-16"
                 rx="0.18341695"
                 y="249.37505"
                 x="48.380901"
                 height="2.1166658"
                 width="39.6875"
                 id="rect4928-8-9-6-3"
                 style="opacity:1;fill:#cccccc;fill-opacity:1;fill-rule:evenodd;stroke:#ffffff;stroke-width:0;stroke-miterlimit:4;stroke-dasharray:none;stroke-opacity:1" />
            </g>
          </g>
          <g
             id="g6038">
            <rect
               style="opacity:1;fill:#5288d2;fill-opacity:1;fill-rule:evenodd;stroke:#ffffff;stroke-width:0;stroke-miterlimit:4;stroke-dasharray:none;stroke-opacity:1"
               id="rect4500"
               width="50.499233"
               height="50.499233"
               x="128.22368"
               y="95.589203"
               rx="2.9870408"
               ry="2.0170421e-14"
               transform="rotate(-0.83031483)" />
            <path
               style="fill:#9ec6f4;fill-opacity:1;stroke-width:0.11568048"
               d="m 138.30297,143.66547 c 0.68235,-4.40971 2.29252,-6.66735 6.04269,-8.47255 1.66475,-0.80134 4.7586,-2.02981 4.97678,-1.97612 0.24071,0.0593 0.47195,-0.45932 0.72445,-1.62458 l 0.16015,-0.73902 -0.47428,-0.58245 c -1.0556,-1.29637 -1.92145,-3.16755 -2.56928,-5.55246 -0.39746,-1.46322 -0.41904,-1.5083 -0.72255,-1.50933 -0.43371,-0.001 -0.70062,-0.36787 -1.04534,-1.43501 -0.16116,-0.49886 -0.54908,-1.30783 -0.86208,-1.79772 -0.48538,-0.75973 -0.57087,-0.97892 -0.58123,-1.49033 -0.0101,-0.50619 0.0392,-0.65478 0.31713,-0.95346 0.18111,-0.19461 0.46535,-0.38577 0.63166,-0.42482 l 0.30238,-0.071 -0.0673,-1.66835 c -0.0505,-1.25036 -0.0235,-1.88166 0.10915,-2.51974 0.21383,-1.03139 0.68834,-2.1048 1.15814,-2.6199 0.35549,-0.38976 0.2474,-0.50865 -0.22469,-0.24713 -0.21013,0.11643 -0.22507,0.10249 -0.15299,-0.14239 0.54683,-1.85872 3.05376,-3.79424 5.69812,-4.3993 0.26189,-0.0601 0.3004,-0.10631 0.19281,-0.2322 -0.20801,-0.24337 0.96323,-0.48147 2.47617,-0.5034 1.11188,-0.0153 1.32837,0.0134 1.71649,0.23545 0.55596,0.31776 0.58675,0.31593 0.5153,-0.0305 -0.0579,-0.28053 -0.0558,-0.28124 0.30316,-0.1044 0.794,0.39123 2.0651,1.32808 2.78602,2.05342 0.70487,0.70919 0.7989,0.76612 1.26997,0.76893 2.42144,0.0153 3.7219,2.52401 3.83024,7.39139 l 0.04,1.79753 0.49487,-0.008 c 0.40468,-0.006 0.56477,0.0609 0.87849,0.3655 0.33694,0.3273 0.38426,0.44632 0.38893,0.97774 0.005,0.51795 -0.0728,0.73568 -0.53772,1.51194 -0.29867,0.49877 -0.66299,1.31864 -0.80961,1.82194 -0.30277,1.03933 -0.55968,1.43283 -0.9584,1.46803 -0.25304,0.0223 -0.30472,0.142 -0.61234,1.41775 -0.5802,2.40642 -1.32196,4.18489 -2.33799,5.60567 l -0.52868,0.73931 0.23967,0.88457 c 0.34539,1.27474 0.46209,1.52556 0.67087,1.44194 0.20536,-0.0823 3.41992,1.07425 5.12017,1.84206 2.1061,0.95107 3.67698,2.16442 4.56019,3.52232 0.6371,0.97947 1.25192,2.72524 1.69444,4.81119 l 0.0796,0.37485 -17.48035,0.25333 -17.48035,0.25334 z"
               id="path4498"
               inkscape:connector-curvature="0" />
          </g>
          <path
             inkscape:connector-curvature="0"
             id="path4828"
             d="m 136.69722,112.58364 c -1.14999,-0.18246 -2.06244,-0.99533 -2.4382,-2.17191 l -0.098,-0.30698 -0.0132,-6.75555 c -0.007,-3.715552 0.004,-6.772703 0.0249,-6.79366 0.021,-0.02099 0.1416,-0.05039 0.26809,-0.06547 l 0.22997,-0.02729 0.012,6.79861 0.012,6.79858 0.0985,0.26986 c 0.15911,0.43588 0.32256,0.69257 0.64393,1.01118 0.48825,0.48405 1.0344,0.70428 1.74655,0.70428 0.90138,0 1.72814,-0.49521 2.14218,-1.28311 0.31825,-0.60565 0.29736,0.0687 0.2975,-9.60269 1.1e-4,-7.141725 -0.0107,-8.762459 -0.0596,-8.945115 -0.1901,-0.710565 -0.73467,-1.287334 -1.41558,-1.499269 -0.35288,-0.109746 -0.92235,-0.112418 -1.27462,-0.0057 -0.26879,0.0815 -1.00099,0.110128 -1.06925,0.0418 -0.0521,-0.0521 0.18533,-0.232566 0.54106,-0.411233 1.48245,-0.744558 3.28873,0.06566 3.72145,1.669404 l 0.0952,0.352734 -0.0143,8.848899 c -0.0143,8.81866 -0.0147,8.84987 -0.1071,9.13887 -0.42735,1.33609 -1.44455,2.17842 -2.71446,2.24784 -0.22042,0.0114 -0.50342,0.006 -0.62887,-0.0153 z"
             style="fill:#787e8f;fill-opacity:1;stroke-width:0.04461399" />
        </g>
      </g>
      <g
         id="g6013"
         transform="translate(0,1.4782808)">
        <path
           inkscape:connector-curvature="0"
           style="opacity:1;fill:url(#linearGradient4669);fill-opacity:1;fill-rule:evenodd;stroke:#ffffff;stroke-width:0;stroke-miterlimit:4;stroke-dasharray:none;stroke-opacity:1"
           d="m 366.83001,120.84412 a 31.201535,19.017212 0 0 0 -17.94631,3.48897 25.828431,24.915534 0 0 0 -16.26143,17.57935 22.368916,23.877683 0 0 0 -13.65007,-4.99952 22.368916,23.877683 0 0 0 -22.31286,22.70119 11.813795,14.215555 42.311841 0 0 -10.72985,4.00267 11.813795,14.215555 42.311841 0 0 -3.83755,17.40507 14.85344,14.131325 0 0 0 -5.42762,10.91027 14.85344,14.131325 0 0 0 0.22933,2.39427 9.9609435,10.315178 0 0 0 -1.22618,-0.0856 9.9609435,10.315178 0 0 0 -9.95317,10.0816 17.69109,15.501222 0 0 0 -5.21357,-0.688 17.69109,15.501222 0 0 0 -14.93129,7.18892 23.855635,23.035669 0 0 0 -23.32804,-18.34382 23.855635,23.035669 0 0 0 -17.51515,7.42742 17.103989,16.675423 0 0 0 -16.04739,-10.95002 17.103989,16.675423 0 0 0 -17.1054,16.67425 17.103989,16.675423 0 0 0 0.0244,0.44644 8.6888949,9.2388289 0 0 0 -4.05466,-1.07329 8.6888949,9.2388289 0 0 0 -3.32384,0.70329 17.11045,17.650549 0 0 0 -16.97697,-15.65599 17.11045,17.650549 0 0 0 -9.76665,3.18318 26.935479,24.08525 0 0 0 -24.69182,-14.53072 26.935479,24.08525 0 0 0 -16.683415,5.18299 25.20572,25.815009 0 0 0 -12.326042,22.1569 25.20572,25.815009 0 0 0 3.033348,12.26489 14.619596,13.914269 0 0 0 -0.593221,-0.0276 14.619596,13.914269 0 0 0 -14.619395,13.9161 14.619596,13.914269 0 0 0 0.238519,2.42178 13.028218,13.637508 0 0 0 -4.091349,-0.70023 13.028218,13.637508 0 0 0 -6.250171,1.6879 21.042702,23.026952 0 0 0 -17.337792,-10.04795 21.042702,23.026952 0 0 0 -21.025514,22.60945 21.183742,15.11274 52.886802 0 0 -0.01253,0.31189 21.042702,23.026952 0 0 0 -0.0063,0.10709 21.042702,23.026952 0 0 0 0.0031,0.0581 21.183742,15.11274 52.886802 0 0 7.039075,17.9035 21.183742,15.11274 52.886802 0 0 20.337512,7.43965 35.818024,19.11293 0 0 0 30.553643,9.17342 35.818024,19.11293 0 0 0 28.422362,-7.5222 41.59117,17.449484 0 0 0 36.45217,9.0878 41.59117,17.449484 0 0 0 34.97831,-8.0451 16.443768,10.600019 0 0 0 9.93482,2.1741 16.443768,10.600019 0 0 0 7.78213,-1.2751 12.236218,8.5451696 0 0 0 8.55881,2.4493 12.236218,8.5451696 0 0 0 10.55863,-4.24423 19.672807,11.872058 0 0 0 13.51246,3.26573 19.672807,11.872058 0 0 0 13.699,-3.36665 32.148679,12.018834 0 0 0 28.83822,6.73942 32.148679,12.018834 0 0 0 27.38576,-5.7548 20.456853,25.353937 0 0 0 0.003,0 20.456853,25.353937 0 0 0 11.19159,4.20143 20.456853,25.353937 0 0 0 7.39073,-1.73988 16.583469,8.400881 0 0 1 0.003,0 16.583469,8.400881 0 0 1 11.85819,-2.54105 16.583469,8.400881 0 0 1 13.39627,3.46145 16.583469,8.400881 0 0 0 0.0125,-0.003 11.068168,8.4008816 0 0 0 7.66287,2.35147 11.068168,8.4008816 0 0 0 8.77897,-3.3055 11.068168,8.4008816 0 0 0 0.0183,-0.0157 v -0.003 a 9.8388854,9.3768879 0 0 0 0.74,-0.7828 35.964827,19.553284 0 0 0 27.11361,6.74248 35.964827,19.553284 0 0 0 28.82292,-7.89528 21.711612,15.401861 0 0 0 6.11869,-5.76702 21.711612,15.401861 0 0 0 17.7139,6.52842 21.711612,15.401861 0 0 0 13.94972,-3.59904 21.632656,28.613753 23.060876 0 0 26.67024,-21.7441 21.632656,28.613753 23.060876 0 0 1.87138,-9.76359 40.107397,37.613803 0 0 0 0.42504,-5.1677 40.107397,37.613803 0 0 0 -0.899,-7.70569 40.1074,38.396606 0 0 0 -17.86679,-27.33072 33.551457,27.828808 0 0 0 -22.56359,-7.27453 33.551457,27.828808 0 0 0 -10.61977,1.4647 6.731895,6.3033299 0 0 0 0.0947,-1.0152 6.731895,6.3033299 0 0 0 -6.7333,-6.30214 6.731895,6.3033299 0 0 0 -0.54428,0.0244 11.575219,12.253699 0 0 0 -11.18242,-9.1245 11.575219,12.253699 0 0 0 -2.88658,0.40362 40.496784,43.250975 0 0 0 2.46153,-14.69277 40.496784,43.250975 0 0 0 -27.77714,-41.00526 31.201535,19.017212 0 0 0 -19.56082,-4.22589 z m 56.03744,80.32564 a 6.731895,6.3033299 0 0 0 0.1193,0.0673 33.551457,27.828808 0 0 0 -0.45562,0.28743 11.575219,12.253699 0 0 0 0.33635,-0.3547 z"
           id="path4802-1-7" />
        <path
           inkscape:connector-curvature="0"
           style="opacity:1;fill:url(#linearGradient4661);fill-opacity:1;fill-rule:evenodd;stroke:#ffffff;stroke-width:0;stroke-miterlimit:4;stroke-dasharray:none;stroke-opacity:1"
           d="m 367.34677,124.14349 a 43.874013,40.640387 0 0 0 -9.7911,1.08858 26.853166,22.092806 0 0 0 -22.35872,20.52709 1.1791971,1.2064484 0 0 1 0.003,0.0488 1.1791971,1.2064484 0 0 1 -1.18032,1.20784 1.1791971,1.2064484 0 0 1 -0.9204,-0.45562 18.822702,18.019669 0 0 0 -0.003,-0.003 18.822702,18.019669 0 0 0 -14.05677,-6.06976 18.822702,18.019669 0 0 0 -18.82082,18.01968 18.822702,18.019669 0 0 0 0.27215,2.88046 1.1791972,1.2064485 0 0 1 0.0276,0.25992 1.1791972,1.2064485 0 0 1 -1.17726,1.20783 1.1791972,1.2064485 0 0 1 -0.37916,-0.0642 8.1696369,11.604126 44.530415 0 0 -11.86126,4.62647 8.1696369,11.604126 44.530415 0 0 -1.96006,13.18527 1.1791972,1.2064485 0 0 1 0.39753,0.90512 1.1791972,1.2064485 0 0 1 -0.61158,1.058 11.257715,11.774217 0 0 0 -5.54075,10.12747 11.257715,11.774217 0 0 0 0.77058,4.21366 1.0321682,1.0075267 0 0 1 0.003,0.009 11.257715,11.774217 0 0 0 0,0.003 1.0321682,1.0075267 0 0 1 0.0703,0.36388 1.0321682,1.0075267 0 0 1 -1.03353,1.00602 1.0321682,1.0075267 0 0 1 -0.36999,-0.0673 7.7728027,7.5625942 0 0 0 -0.0305,-0.0125 7.7728027,7.5625942 0 0 0 -2.5166,-0.42199 7.7728027,7.5625942 0 0 0 -7.77295,7.56197 7.7728027,7.5625942 0 0 0 0.2905,2.00287 7.7728027,7.5625942 0 0 0 0.006,0.0214 1.1791976,1.2064488 0 0 1 0.0642,0.37917 1.1791976,1.2064488 0 0 1 -1.18032,1.20783 1.1791976,1.2064488 0 0 1 -0.56875,-0.15296 14.325341,13.107167 0 0 0 -0.009,-0.003 14.325341,13.107167 0 0 0 -6.91371,-1.65733 14.325341,13.107167 0 0 0 -14.29526,12.45141 1.6378684,1.6100792 0 0 1 0.003,0.0673 1.6378684,1.6100792 0 0 1 -1.63898,1.61147 1.6378684,1.6100792 0 0 1 -1.639,-1.61147 1.6378684,1.6100792 0 0 1 0.006,-0.0918 6.0917067,6.5600434 0 0 0 -0.003,0 20.829224,21.271617 0 0 0 0.006,-0.0703 20.829224,21.271617 0 0 0 0.16207,-2.25361 20.829224,21.271617 0 0 0 -20.82982,-21.27014 20.829224,21.271617 0 0 0 -17.23382,9.39053 1.1791975,1.2064488 0 0 1 -0.006,0.0125 1.1791975,1.2064488 0 0 1 -1.02742,0.61767 1.1791975,1.2064488 0 0 1 -1.17115,-1.07329 3.2116598,3.3167504 0 0 0 -0.006,0 13.910189,14.490964 0 0 0 -13.76627,-12.5462 13.910189,14.490964 0 0 0 -13.90999,14.49097 13.910189,14.490964 0 0 0 0.36387,3.17095 1.7418339,1.7018133 0 0 1 0.006,0.0215 1.7418339,1.7018133 0 0 1 0.0581,0.43421 1.7418339,1.7018133 0 0 1 -1.74295,1.7032 1.7418339,1.7018133 0 0 1 -1.61147,-1.06106 3.7966786,3.756658 0 0 0 -0.003,0.003 5.8149366,9.1633212 10.497288 0 0 -3.42475,-3.10978 5.8149366,9.1633212 10.497288 0 0 -6.58347,5.22579 5.8149366,9.1633212 10.497288 0 0 -0.006,0.0183 1.092185,1.1209202 0 0 1 -1.01825,0.72163 1.092185,1.1209202 0 0 1 -1.09468,-1.11915 1.092185,1.1209202 0 0 1 0.10083,-0.46785 13.841004,13.937446 0 0 0 0.9846,-5.12489 13.841004,13.937446 0 0 0 -13.83965,-13.9375 13.841004,13.937446 0 0 0 -10.16722,4.51639 1.4849777,1.6590042 0 0 1 -1.04577,0.48313 1.4849777,1.6590042 0 0 1 -1.47693,-1.50445 14.532904,13.59149 0 0 0 -3.67854,-7.47634 6.3652268,8.0070026 0 0 1 0.003,-0.009 25.562609,24.674791 0 0 0 -0.0673,-0.0581 14.532904,13.59149 0 0 0 -1.58702,-1.38213 25.562609,24.674791 0 0 0 -16.37457,-5.76397 25.562609,24.674791 0 0 0 -25.563297,24.67347 25.562609,24.674791 0 0 0 4.663153,14.13933 1.8159632,1.8511214 0 0 1 0.0764,0.10396 1.8159632,1.8511214 0 0 1 0.345528,1.0794 1.8159632,1.8511214 0 0 1 -1.81633,1.84999 1.8159632,1.8511214 0 0 1 -1.106926,-0.38529 8.8114716,9.8172221 0 0 0 -0.06419,-0.0488 8.8114716,9.8172221 0 0 0 -5.097373,-1.8255 8.8114716,9.8172221 0 0 0 -8.812618,9.81862 8.8114716,9.8172221 0 0 0 2.363695,6.6538 1.9229927,1.9286218 0 0 1 0.01566,0.0183 8.8114716,9.8172221 0 0 0 0.01252,0.0156 8.8114716,9.8172221 0 0 0 0.04274,0.0551 16.746993,15.736389 0 0 0 -0.0031,0.003 1.9229927,1.9286218 0 0 1 0.363876,1.12528 1.9229927,1.9286218 0 0 1 -1.92337,1.92949 1.9229927,1.9286218 0 0 1 -1.504431,-0.73082 16.746993,15.736389 0 0 0 -0.0063,0.003 7.5394285,7.3220548 0 0 0 -6.302148,-3.333 7.5394285,7.3220548 0 0 0 -6.195124,3.16482 1.1791977,1.206449 0 0 1 -1.048826,0.65132 1.1791977,1.206449 0 0 1 -1.146692,-0.93264 13.564242,13.245542 0 0 0 -9.607629,-9.94705 12.970099,9.4441723 0 0 0 -5.48572,-0.899 12.970099,9.4441723 0 0 0 -4.011848,0.47702 16.262665,16.63587 0 0 0 -11.818444,8.60773 15.432378,15.667201 0 0 0 -2.042622,3.8926 19.693244,13.152497 55.854279 0 0 3.929294,20.05007 19.693244,13.152497 55.854279 0 0 19.66479,9.26211 1.1791978,1.2064491 0 0 1 0.556524,-0.14372 1.1791978,1.2064491 0 0 1 0.859232,0.38223 33.688341,18.311922 0 0 0 29.012514,9.05417 33.688341,18.311922 0 0 0 27.599812,-7.88609 1.2849628,1.0625651 0 0 1 0.003,-0.003 1.2849628,1.0625651 0 0 1 0.9204,-0.32107 1.2849628,1.0625651 0 0 1 0.88065,0.2905 1.2849627,1.0625651 0 0 0 0.003,-0.003 43.193765,20.967847 0 0 0 35.45226,9.03888 43.193765,20.967847 0 0 0 33.85609,-7.98395 1.2849628,1.0625652 0 0 0 0.006,0.003 1.2849628,1.0625652 0 0 1 0.7614,-0.20793 1.2849628,1.0625652 0 0 1 0.77669,0.21404 15.715304,15.136077 0 0 0 8.72698,2.58997 15.715304,15.136077 0 0 0 7.60173,-1.89278 15.715304,15.136077 0 0 0 0.009,-0.003 1.2849629,1.0625652 0 0 1 0.68802,-0.16511 1.2849629,1.0625652 0 0 1 0.92345,0.32718 11.168498,10.095065 0 0 0 7.50692,2.64195 11.168498,10.095065 0 0 0 9.16732,-4.36655 1.2849629,1.0625652 0 0 1 0.0276,-0.0366 1.2849629,1.0625652 0 0 1 1.1008,-0.51372 1.2849629,1.0625652 0 0 1 0.82562,0.24463 1.2849629,1.0625652 0 0 1 0.003,0.003 21.442756,16.595108 0 0 0 13.91917,4.00572 21.442756,16.595108 0 0 0 13.1761,-3.55317 1.2849629,1.0625653 0 0 1 0.0305,-0.0183 1.2849629,1.0625653 0 0 1 0.76752,-0.21098 1.2849629,1.0625653 0 0 1 0.847,0.26603 1.2849629,1.0625653 0 0 0 0.003,-0.003 35.281537,19.670393 0 0 0 27.04022,7.08496 35.281537,19.670393 0 0 0 26.3461,-6.62629 1.284963,1.0625653 0 0 1 0.006,-0.003 1.284963,1.0625653 0 0 1 0.82255,-0.24768 1.284963,1.0625653 0 0 1 0.83785,0.25685 20.324472,19.670394 0 0 0 0.009,0.006 20.324472,19.670394 0 0 0 11.1182,3.25962 20.324472,19.670394 0 0 0 7.34487,-1.35155 16.476154,6.5176755 0 0 1 0.003,0 16.476154,6.5176755 0 0 1 11.78174,-1.96924 16.476154,6.5176755 0 0 1 13.3076,2.68477 16.476154,6.5176753 0 0 0 0.009,-0.003 10.996547,6.5176759 0 0 0 7.61395,1.82552 10.996547,6.5176759 0 0 0 8.8493,-2.66335 1.7888774,1.5909466 0 0 0 0.003,0.003 1.7888774,1.5909466 0 0 1 1.22618,-0.43421 1.7888774,1.5909466 0 0 1 1.06105,0.30883 38.296689,26.185524 0 0 0 25.12299,6.50703 38.296689,26.185524 0 0 0 33.59311,-13.7357 1.7888774,1.5909466 0 0 1 0.0157,-0.0183 1.7888774,1.5909466 0 0 1 1.46163,-0.67578 1.7888774,1.5909466 0 0 1 1.3546,0.55346 25.674044,28.338226 0 0 0 16.99838,7.13999 25.674044,28.338226 0 0 0 12.43306,-3.57765 1.1791978,1.2064491 0 0 1 0.003,0 1.1791978,1.2064491 0 0 1 0.64825,-0.2018 1.1791978,1.2064491 0 0 1 0.2966,0.0398 14.425365,12.877923 0 0 0 2.93857,0.29965 14.425365,12.877923 0 0 0 8.17963,-2.28725 40.742938,40.080221 0 0 1 0.003,0.003 40.742938,40.080221 0 0 0 0.0244,-0.0214 14.425365,12.877923 0 0 0 3.30855,-2.84377 40.742938,40.080221 0 0 0 12.42084,-28.76789 40.742938,40.080221 0 0 0 -40.74228,-40.07874 40.742938,40.080221 0 0 0 -2.10989,0.10396 14.450699,9.0634896 0 0 0 -0.51371,0.0244 40.742938,40.080221 0 0 0 -0.0459,0.003 14.450699,9.0634896 0 0 0 -8.7331,2.52575 1.1186557,1.0550946 0 0 1 -0.62685,0.18346 1.1186557,1.0550946 0 0 1 -1.11917,-1.05493 1.1186557,1.0550946 0 0 1 0.29967,-0.7186 3.6872156,4.024228 0 0 0 0.9785,-2.72145 3.6872156,4.024228 0 0 0 -3.68772,-4.02407 3.6872156,4.024228 0 0 0 -2.7398,1.33932 3.6872156,4.024228 0 0 0 -0.0215,0.0244 0.96576476,1.4403784 0 0 1 -0.65132,0.38223 0.96576476,1.4403784 0 0 1 -0.96627,-1.44023 0.96576476,1.4403784 0 0 1 0.049,-0.44337 8.3839996,7.8311888 0 0 0 0.003,-0.0125 8.3839996,7.8311888 0 0 0 0.11319,-1.2323 8.3839996,7.8311888 0 0 0 -8.38452,-7.83105 8.3839996,7.8311888 0 0 0 -3.96597,0.93265 1.179197,1.2064483 0 0 1 -0.65131,0.19875 1.179197,1.2064483 0 0 1 -1.17727,-1.20478 1.179197,1.2064483 0 0 1 0.13449,-0.55957 38.203758,38.629446 0 0 0 0.009,-0.0214 38.203758,38.629446 0 0 0 3.22905,-15.4236 38.203758,38.629446 0 0 0 -0.37,-5.0148 43.874013,40.640387 0 0 0 -43.71753,-37.71506 z"
           id="path4706" />
      </g>
    </g>
  </g>
</svg>
