<svg xmlns="http://www.w3.org/2000/svg" height="805" width="1750" version="1.1" xmlns:xlink="http://www.w3.org/1999/xlink" viewBox="0 0 463.02084 212.9896">
 <defs>
  <linearGradient id="linearGradient4661" y2="125.26" gradientUnits="userSpaceOnUse" x2="268.72" y1="286.16" x1="267.6">
   <stop style="stop-color:#898979" offset="0"/>
   <stop style="stop-color:#333" offset="1"/>
  </linearGradient>
  <linearGradient id="linearGradient4669" y2="119.12" gradientUnits="userSpaceOnUse" x2="267.14" y1="303.97" x1="267.06">
   <stop style="stop-color:#ccc" offset="0"/>
   <stop style="stop-color:#666" offset="1"/>
  </linearGradient>
 </defs>
 <g transform="translate(0 -84.01)">
  <g transform="translate(-22.489 10.486)">
   <g transform="translate(-2.5023 2.6856)">
    <path style="fill-rule:evenodd;stroke-width:0;fill:#826230" d="m120.18 70.839a2.525 2.525 0 0 0 -2.525 2.525v146.44a2.525 2.525 0 0 1 -2.525 2.525h-10.1a2.525 2.525 0 0 0 -2.525 2.525v45.449a2.525 2.525 0 0 0 2.525 2.525h277.75a2.525 2.525 0 0 0 2.525 -2.525v-50.499a2.525 2.525 0 0 1 2.525 -2.525h15.151a2.525 2.525 0 0 0 2.525 -2.525v-141.4a2.525 2.525 0 0 0 -2.525 -2.525h-282.62z"/>
    <g style="fill:#765a2c">
     <rect style="fill-rule:evenodd;stroke-width:0;fill:#765a2c" rx=".36008" ry="1.8932e-15" height="188.23" width="2.0405" y="75.927" x="267.27"/>
     <rect style="fill-rule:evenodd;stroke-width:0;fill:#765a2c" rx=".36008" ry="1.8932e-15" height="188.23" width="2.0405" y="75.672" x="249.42"/>
     <rect style="fill-rule:evenodd;stroke-width:0;fill:#765a2c" rx=".35008" ry="4.4705e-14" height="3.0607" width="55.603" y="108.74" x="307.03"/>
     <rect style="fill-rule:evenodd;stroke-width:0;fill:#765a2c" rx=".35008" ry="4.4705e-14" height="3.0607" width="55.603" y="116.52" x="307.03"/>
     <rect style="fill-rule:evenodd;stroke-width:0;fill:#765a2c" rx=".35008" ry="4.4705e-14" height="3.0607" width="55.603" y="124.3" x="307.03"/>
    </g>
    <rect style="fill-rule:evenodd;stroke-width:0;fill:#ccc" transform="rotate(-1.9211)" rx=".36008" ry="1.8932e-15" height="161.6" width="106.05" y="97.521" x="122.13"/>
    <rect style="fill-rule:evenodd;stroke-width:0;fill:#e6e6e6" transform="rotate(.97850)" rx=".36008" ry="1.8932e-15" height="161.6" width="106.05" y="88.432" x="130.93"/>
    <g style="fill:#ccc" transform="matrix(1.9086 0 0 1.9086 52.003 -243.53)">
     <rect style="fill-rule:evenodd;stroke-width:0;fill:#ccc" rx=".18342" ry="7.4064e-16" height="2.1167" width="39.688" y="185.87" x="48.381"/>
     <rect style="fill-rule:evenodd;stroke-width:0;fill:#ccc" rx=".18342" ry="7.4064e-16" height="2.1167" width="39.688" y="190.11" x="48.381"/>
     <rect style="fill-rule:evenodd;stroke-width:0;fill:#ccc" rx=".18342" ry="7.4064e-16" height="2.1167" width="39.688" y="194.34" x="48.381"/>
     <rect style="fill-rule:evenodd;stroke-width:0;fill:#ccc" rx=".18342" ry="7.4064e-16" height="2.1167" width="39.688" y="198.58" x="48.381"/>
     <rect style="fill-rule:evenodd;stroke-width:0;fill:#ccc" rx=".18342" ry="7.4064e-16" height="2.1167" width="39.688" y="202.81" x="48.381"/>
     <rect style="fill-rule:evenodd;stroke-width:0;fill:#ccc" rx=".18342" ry="7.4064e-16" height="2.1167" width="39.688" y="207.04" x="48.381"/>
     <rect style="fill-rule:evenodd;stroke-width:0;fill:#ccc" rx=".18342" ry="7.4064e-16" height="2.1167" width="39.688" y="211.28" x="48.381"/>
     <rect style="fill-rule:evenodd;stroke-width:0;fill:#ccc" rx=".18342" ry="7.4064e-16" height="2.1167" width="39.688" y="215.51" x="48.381"/>
     <rect style="fill-rule:evenodd;stroke-width:0;fill:#ccc" rx=".18342" ry="7.4064e-16" height="2.1167" width="39.688" y="219.74" x="48.381"/>
     <rect style="fill-rule:evenodd;stroke-width:0;fill:#ccc" rx=".18342" ry="7.4064e-16" height="2.1167" width="39.688" y="223.98" x="48.381"/>
     <rect style="fill-rule:evenodd;stroke-width:0;fill:#ccc" rx=".18342" ry="7.4064e-16" height="2.1167" width="39.688" y="228.21" x="48.381"/>
     <rect style="fill-rule:evenodd;stroke-width:0;fill:#ccc" rx=".18342" ry="7.4064e-16" height="2.1167" width="39.688" y="232.44" x="48.381"/>
     <rect style="fill-rule:evenodd;stroke-width:0;fill:#ccc" rx=".18342" ry="7.4064e-16" height="2.1167" width="39.688" y="236.68" x="48.381"/>
     <rect style="fill-rule:evenodd;stroke-width:0;fill:#ccc" rx=".18342" ry="7.4064e-16" height="2.1167" width="39.688" y="240.91" x="48.381"/>
     <rect style="fill-rule:evenodd;stroke-width:0;fill:#ccc" rx=".18342" ry="7.4064e-16" height="2.1167" width="39.688" y="245.14" x="48.381"/>
     <rect style="fill-rule:evenodd;stroke-width:0;fill:#ccc" rx=".18342" ry="7.4064e-16" height="2.1167" width="39.688" y="249.38" x="48.381"/>
    </g>
    <rect style="fill-rule:evenodd;stroke-width:0;fill:#5288d2" transform="rotate(-.83031)" rx="2.987" ry="2.017e-14" height="50.499" width="50.499" y="95.589" x="128.22"/>
    <path style="stroke-width:.11568;fill:#9ec6f4" d="m138.3 143.67c0.68235-4.4097 2.2925-6.6674 6.0427-8.4726 1.6648-0.80134 4.7586-2.0298 4.9768-1.9761 0.24071 0.0593 0.47195-0.45932 0.72445-1.6246l0.16015-0.73902-0.47428-0.58245c-1.0556-1.2964-1.9214-3.1676-2.5693-5.5525-0.39746-1.4632-0.41904-1.5083-0.72255-1.5093-0.43371-0.001-0.70062-0.36787-1.0453-1.435-0.16116-0.49886-0.54908-1.3078-0.86208-1.7977-0.48538-0.75973-0.57087-0.97892-0.58123-1.4903-0.0101-0.50619 0.0392-0.65478 0.31713-0.95346 0.18111-0.19461 0.46535-0.38577 0.63166-0.42482l0.30238-0.071-0.0673-1.6684c-0.0505-1.2504-0.0235-1.8817 0.10915-2.5197 0.21383-1.0314 0.68834-2.1048 1.1581-2.6199 0.35549-0.38976 0.2474-0.50865-0.22469-0.24713-0.21013 0.11643-0.22507 0.10249-0.15299-0.14239 0.54683-1.8587 3.0538-3.7942 5.6981-4.3993 0.26189-0.0601 0.3004-0.10631 0.19281-0.2322-0.20801-0.24337 0.96323-0.48147 2.4762-0.5034 1.1119-0.0153 1.3284 0.0134 1.7165 0.23545 0.55596 0.31776 0.58675 0.31593 0.5153-0.0305-0.0579-0.28053-0.0558-0.28124 0.30316-0.1044 0.794 0.39123 2.0651 1.3281 2.786 2.0534 0.70487 0.70919 0.7989 0.76612 1.27 0.76893 2.4214 0.0153 3.7219 2.524 3.8302 7.3914l0.04 1.7975 0.49487-0.008c0.40468-0.006 0.56477 0.0609 0.87849 0.3655 0.33694 0.3273 0.38426 0.44632 0.38893 0.97774 0.005 0.51795-0.0728 0.73568-0.53772 1.5119-0.29867 0.49877-0.66299 1.3186-0.80961 1.8219-0.30277 1.0393-0.55968 1.4328-0.9584 1.468-0.25304 0.0223-0.30472 0.142-0.61234 1.4178-0.5802 2.4064-1.322 4.1849-2.338 5.6057l-0.52868 0.73931 0.23967 0.88457c0.34539 1.2747 0.46209 1.5256 0.67087 1.4419 0.20536-0.0823 3.4199 1.0742 5.1202 1.8421 2.1061 0.95107 3.677 2.1644 4.5602 3.5223 0.6371 0.97947 1.2519 2.7252 1.6944 4.8112l0.0796 0.37485-17.48 0.25333-17.48 0.25334z"/>
    <path d="m136.7 112.58c-1.15-0.18246-2.0624-0.99533-2.4382-2.1719l-0.098-0.30698-0.0132-6.7556c-0.007-3.7156 0.004-6.7727 0.0249-6.7937 0.021-0.02099 0.1416-0.05039 0.26809-0.06547l0.22997-0.02729 0.012 6.7986 0.012 6.7986 0.0985 0.26986c0.15911 0.43588 0.32256 0.69257 0.64393 1.0112 0.48825 0.48405 1.0344 0.70428 1.7466 0.70428 0.90138 0 1.7281-0.49521 2.1422-1.2831 0.31825-0.60565 0.29736 0.0687 0.2975-9.6027 0.00011-7.1417-0.0107-8.7625-0.0596-8.9451-0.1901-0.71056-0.73467-1.2873-1.4156-1.4993-0.35288-0.10975-0.92235-0.11242-1.2746-0.0057-0.26879 0.0815-1.001 0.11013-1.0692 0.0418-0.0521-0.0521 0.18533-0.23257 0.54106-0.41123 1.4824-0.74456 3.2887 0.06566 3.7214 1.6694l0.0952 0.35273-0.0143 8.8489c-0.0143 8.8187-0.0147 8.8499-0.1071 9.1389-0.42735 1.3361-1.4446 2.1784-2.7145 2.2478-0.22042 0.0114-0.50342 0.006-0.62887-0.0153z" style="stroke-width:.044614;fill:#787e8f"/>
   </g>
   <g transform="translate(0 1.4783)">
    <path style="fill-rule:evenodd;stroke-width:0;fill:url(#linearGradient4669)" d="m366.83 120.84a31.202 19.017 0 0 0 -17.946 3.489 25.828 24.916 0 0 0 -16.261 17.579 22.369 23.878 0 0 0 -13.65 -4.9995 22.369 23.878 0 0 0 -22.313 22.701 11.814 14.216 42.312 0 0 -10.73 4.0027 11.814 14.216 42.312 0 0 -3.8376 17.405 14.853 14.131 0 0 0 -5.4276 10.91 14.853 14.131 0 0 0 0.22933 2.3943 9.9609 10.315 0 0 0 -1.2262 -0.0856 9.9609 10.315 0 0 0 -9.9532 10.082 17.691 15.501 0 0 0 -5.2136 -0.688 17.691 15.501 0 0 0 -14.931 7.1889 23.856 23.036 0 0 0 -23.328 -18.344 23.856 23.036 0 0 0 -17.515 7.4274 17.104 16.675 0 0 0 -16.047 -10.95 17.104 16.675 0 0 0 -17.105 16.674 17.104 16.675 0 0 0 0.0244 0.44644 8.6889 9.2388 0 0 0 -4.0547 -1.0733 8.6889 9.2388 0 0 0 -3.3238 0.70329 17.11 17.651 0 0 0 -16.977 -15.656 17.11 17.651 0 0 0 -9.7666 3.1832 26.935 24.085 0 0 0 -24.692 -14.531 26.935 24.085 0 0 0 -16.683 5.183 25.206 25.815 0 0 0 -12.326 22.157 25.206 25.815 0 0 0 3.0333 12.265 14.62 13.914 0 0 0 -0.59322 -0.0276 14.62 13.914 0 0 0 -14.619 13.916 14.62 13.914 0 0 0 0.23852 2.4218 13.028 13.638 0 0 0 -4.0913 -0.70023 13.028 13.638 0 0 0 -6.2502 1.6879 21.043 23.027 0 0 0 -17.338 -10.048 21.043 23.027 0 0 0 -21.026 22.609 21.184 15.113 52.887 0 0 -0.01253 0.31189 21.043 23.027 0 0 0 -0.0063 0.10709 21.043 23.027 0 0 0 0.0031 0.0581 21.184 15.113 52.887 0 0 7.0391 17.904 21.184 15.113 52.887 0 0 20.338 7.4396 35.818 19.113 0 0 0 30.554 9.1734 35.818 19.113 0 0 0 28.422 -7.5222 41.591 17.449 0 0 0 36.452 9.0878 41.591 17.449 0 0 0 34.978 -8.0451 16.444 10.6 0 0 0 9.9348 2.1741 16.444 10.6 0 0 0 7.7821 -1.2751 12.236 8.5452 0 0 0 8.5588 2.4493 12.236 8.5452 0 0 0 10.559 -4.2442 19.673 11.872 0 0 0 13.512 3.2657 19.673 11.872 0 0 0 13.699 -3.3666 32.149 12.019 0 0 0 28.838 6.7394 32.149 12.019 0 0 0 27.386 -5.7548 20.457 25.354 0 0 0 0.003 0 20.457 25.354 0 0 0 11.192 4.2014 20.457 25.354 0 0 0 7.3907 -1.7399 16.583 8.4009 0 0 1 0.003 0 16.583 8.4009 0 0 1 11.858 -2.541 16.583 8.4009 0 0 1 13.396 3.4614 16.583 8.4009 0 0 0 0.0125 -0.003 11.068 8.4009 0 0 0 7.6629 2.3515 11.068 8.4009 0 0 0 8.779 -3.3055 11.068 8.4009 0 0 0 0.0183 -0.0157v-0.003a9.8389 9.3769 0 0 0 0.74 -0.7828 35.965 19.553 0 0 0 27.114 6.7425 35.965 19.553 0 0 0 28.823 -7.8953 21.712 15.402 0 0 0 6.1187 -5.767 21.712 15.402 0 0 0 17.714 6.5284 21.712 15.402 0 0 0 13.95 -3.599 21.633 28.614 23.061 0 0 26.67 -21.744 21.633 28.614 23.061 0 0 1.8714 -9.7636 40.107 37.614 0 0 0 0.42504 -5.1677 40.107 37.614 0 0 0 -0.899 -7.7057 40.107 38.397 0 0 0 -17.867 -27.331 33.551 27.829 0 0 0 -22.564 -7.2745 33.551 27.829 0 0 0 -10.62 1.4647 6.7319 6.3033 0 0 0 0.0947 -1.0152 6.7319 6.3033 0 0 0 -6.7333 -6.3021 6.7319 6.3033 0 0 0 -0.54428 0.0244 11.575 12.254 0 0 0 -11.182 -9.1245 11.575 12.254 0 0 0 -2.8866 0.40362 40.497 43.251 0 0 0 2.4615 -14.693 40.497 43.251 0 0 0 -27.777 -41.005 31.202 19.017 0 0 0 -19.561 -4.2259zm56.037 80.326a6.7319 6.3033 0 0 0 0.1193 0.0673 33.551 27.829 0 0 0 -0.45562 0.28743 11.575 12.254 0 0 0 0.33635 -0.3547z"/>
    <path style="fill-rule:evenodd;stroke-width:0;fill:url(#linearGradient4661)" d="m367.35 124.14a43.874 40.64 0 0 0 -9.7911 1.0886 26.853 22.093 0 0 0 -22.359 20.527 1.1792 1.2064 0 0 1 0.003 0.0488 1.1792 1.2064 0 0 1 -1.1803 1.2078 1.1792 1.2064 0 0 1 -0.9204 -0.45562 18.823 18.02 0 0 0 -0.003 -0.003 18.823 18.02 0 0 0 -14.057 -6.0698 18.823 18.02 0 0 0 -18.821 18.02 18.823 18.02 0 0 0 0.27215 2.8805 1.1792 1.2064 0 0 1 0.0276 0.25992 1.1792 1.2064 0 0 1 -1.1773 1.2078 1.1792 1.2064 0 0 1 -0.37916 -0.0642 8.1696 11.604 44.53 0 0 -11.861 4.6265 8.1696 11.604 44.53 0 0 -1.9601 13.185 1.1792 1.2064 0 0 1 0.39753 0.90512 1.1792 1.2064 0 0 1 -0.61158 1.058 11.258 11.774 0 0 0 -5.5408 10.127 11.258 11.774 0 0 0 0.77058 4.2137 1.0322 1.0075 0 0 1 0.003 0.009 11.258 11.774 0 0 0 0 0.003 1.0322 1.0075 0 0 1 0.0703 0.36388 1.0322 1.0075 0 0 1 -1.0335 1.006 1.0322 1.0075 0 0 1 -0.36999 -0.0673 7.7728 7.5626 0 0 0 -0.0305 -0.0125 7.7728 7.5626 0 0 0 -2.5166 -0.42199 7.7728 7.5626 0 0 0 -7.773 7.562 7.7728 7.5626 0 0 0 0.2905 2.0029 7.7728 7.5626 0 0 0 0.006 0.0214 1.1792 1.2064 0 0 1 0.0642 0.37917 1.1792 1.2064 0 0 1 -1.1803 1.2078 1.1792 1.2064 0 0 1 -0.56875 -0.15296 14.325 13.107 0 0 0 -0.009 -0.003 14.325 13.107 0 0 0 -6.9137 -1.6573 14.325 13.107 0 0 0 -14.295 12.451 1.6379 1.6101 0 0 1 0.003 0.0673 1.6379 1.6101 0 0 1 -1.639 1.6115 1.6379 1.6101 0 0 1 -1.639 -1.6115 1.6379 1.6101 0 0 1 0.006 -0.0918 6.0917 6.56 0 0 0 -0.003 0 20.829 21.272 0 0 0 0.006 -0.0703 20.829 21.272 0 0 0 0.16207 -2.2536 20.829 21.272 0 0 0 -20.83 -21.27 20.829 21.272 0 0 0 -17.234 9.3905 1.1792 1.2064 0 0 1 -0.006 0.0125 1.1792 1.2064 0 0 1 -1.0274 0.61767 1.1792 1.2064 0 0 1 -1.1712 -1.0733 3.2117 3.3168 0 0 0 -0.006 0 13.91 14.491 0 0 0 -13.766 -12.546 13.91 14.491 0 0 0 -13.91 14.491 13.91 14.491 0 0 0 0.36387 3.171 1.7418 1.7018 0 0 1 0.006 0.0215 1.7418 1.7018 0 0 1 0.0581 0.43421 1.7418 1.7018 0 0 1 -1.743 1.7032 1.7418 1.7018 0 0 1 -1.6115 -1.0611 3.7967 3.7567 0 0 0 -0.003 0.003 5.8149 9.1633 10.497 0 0 -3.4248 -3.1098 5.8149 9.1633 10.497 0 0 -6.5835 5.2258 5.8149 9.1633 10.497 0 0 -0.006 0.0183 1.0922 1.1209 0 0 1 -1.0182 0.72163 1.0922 1.1209 0 0 1 -1.0947 -1.1192 1.0922 1.1209 0 0 1 0.10083 -0.46785 13.841 13.937 0 0 0 0.9846 -5.1249 13.841 13.937 0 0 0 -13.84 -13.938 13.841 13.937 0 0 0 -10.167 4.5164 1.485 1.659 0 0 1 -1.0458 0.48313 1.485 1.659 0 0 1 -1.4769 -1.5044 14.533 13.591 0 0 0 -3.6785 -7.4763 6.3652 8.007 0 0 1 0.003 -0.009 25.563 24.675 0 0 0 -0.0673 -0.0581 14.533 13.591 0 0 0 -1.587 -1.3821 25.563 24.675 0 0 0 -16.375 -5.764 25.563 24.675 0 0 0 -25.563 24.673 25.563 24.675 0 0 0 4.6632 14.139 1.816 1.8511 0 0 1 0.0764 0.10396 1.816 1.8511 0 0 1 0.34553 1.0794 1.816 1.8511 0 0 1 -1.8163 1.85 1.816 1.8511 0 0 1 -1.1069 -0.38529 8.8115 9.8172 0 0 0 -0.06419 -0.0488 8.8115 9.8172 0 0 0 -5.0974 -1.8255 8.8115 9.8172 0 0 0 -8.8126 9.8186 8.8115 9.8172 0 0 0 2.3637 6.6538 1.923 1.9286 0 0 1 0.01566 0.0183 8.8115 9.8172 0 0 0 0.01252 0.0156 8.8115 9.8172 0 0 0 0.04274 0.0551 16.747 15.736 0 0 0 -0.0031 0.003 1.923 1.9286 0 0 1 0.36388 1.1253 1.923 1.9286 0 0 1 -1.9234 1.9295 1.923 1.9286 0 0 1 -1.5044 -0.73082 16.747 15.736 0 0 0 -0.0063 0.003 7.5394 7.3221 0 0 0 -6.3021 -3.333 7.5394 7.3221 0 0 0 -6.1951 3.1648 1.1792 1.2064 0 0 1 -1.0488 0.65132 1.1792 1.2064 0 0 1 -1.1467 -0.93264 13.564 13.246 0 0 0 -9.6076 -9.947 12.97 9.4442 0 0 0 -5.4857 -0.899 12.97 9.4442 0 0 0 -4.0118 0.47702 16.263 16.636 0 0 0 -11.818 8.6077 15.432 15.667 0 0 0 -2.0426 3.8926 19.693 13.152 55.854 0 0 3.9293 20.05 19.693 13.152 55.854 0 0 19.665 9.2621 1.1792 1.2064 0 0 1 0.55652 -0.14372 1.1792 1.2064 0 0 1 0.85923 0.38223 33.688 18.312 0 0 0 29.013 9.0542 33.688 18.312 0 0 0 27.6 -7.8861 1.285 1.0626 0 0 1 0.003 -0.003 1.285 1.0626 0 0 1 0.9204 -0.32107 1.285 1.0626 0 0 1 0.88065 0.2905 1.285 1.0626 0 0 0 0.003 -0.003 43.194 20.968 0 0 0 35.452 9.0389 43.194 20.968 0 0 0 33.856 -7.984 1.285 1.0626 0 0 0 0.006 0.003 1.285 1.0626 0 0 1 0.7614 -0.20793 1.285 1.0626 0 0 1 0.77669 0.21404 15.715 15.136 0 0 0 8.727 2.59 15.715 15.136 0 0 0 7.6017 -1.8928 15.715 15.136 0 0 0 0.009 -0.003 1.285 1.0626 0 0 1 0.68802 -0.16511 1.285 1.0626 0 0 1 0.92345 0.32718 11.168 10.095 0 0 0 7.5069 2.642 11.168 10.095 0 0 0 9.1673 -4.3666 1.285 1.0626 0 0 1 0.0276 -0.0366 1.285 1.0626 0 0 1 1.1008 -0.51372 1.285 1.0626 0 0 1 0.82562 0.24463 1.285 1.0626 0 0 1 0.003 0.003 21.443 16.595 0 0 0 13.919 4.0057 21.443 16.595 0 0 0 13.176 -3.5532 1.285 1.0626 0 0 1 0.0305 -0.0183 1.285 1.0626 0 0 1 0.76752 -0.21098 1.285 1.0626 0 0 1 0.847 0.26603 1.285 1.0626 0 0 0 0.003 -0.003 35.282 19.67 0 0 0 27.04 7.085 35.282 19.67 0 0 0 26.346 -6.6263 1.285 1.0626 0 0 1 0.006 -0.003 1.285 1.0626 0 0 1 0.82255 -0.24768 1.285 1.0626 0 0 1 0.83785 0.25685 20.324 19.67 0 0 0 0.009 0.006 20.324 19.67 0 0 0 11.118 3.2596 20.324 19.67 0 0 0 7.3449 -1.3516 16.476 6.5177 0 0 1 0.003 0 16.476 6.5177 0 0 1 11.782 -1.9692 16.476 6.5177 0 0 1 13.308 2.6848 16.476 6.5177 0 0 0 0.009 -0.003 10.997 6.5177 0 0 0 7.614 1.8255 10.997 6.5177 0 0 0 8.8493 -2.6634 1.7889 1.5909 0 0 0 0.003 0.003 1.7889 1.5909 0 0 1 1.2262 -0.43421 1.7889 1.5909 0 0 1 1.061 0.30883 38.297 26.186 0 0 0 25.123 6.507 38.297 26.186 0 0 0 33.593 -13.736 1.7889 1.5909 0 0 1 0.0157 -0.0183 1.7889 1.5909 0 0 1 1.4616 -0.67578 1.7889 1.5909 0 0 1 1.3546 0.55346 25.674 28.338 0 0 0 16.998 7.14 25.674 28.338 0 0 0 12.433 -3.5776 1.1792 1.2064 0 0 1 0.003 0 1.1792 1.2064 0 0 1 0.64825 -0.2018 1.1792 1.2064 0 0 1 0.2966 0.0398 14.425 12.878 0 0 0 2.9386 0.29965 14.425 12.878 0 0 0 8.1796 -2.2872 40.743 40.08 0 0 1 0.003 0.003 40.743 40.08 0 0 0 0.0244 -0.0214 14.425 12.878 0 0 0 3.3086 -2.8438 40.743 40.08 0 0 0 12.421 -28.768 40.743 40.08 0 0 0 -40.742 -40.079 40.743 40.08 0 0 0 -2.1099 0.10396 14.451 9.0635 0 0 0 -0.51371 0.0244 40.743 40.08 0 0 0 -0.0459 0.003 14.451 9.0635 0 0 0 -8.7331 2.5258 1.1187 1.0551 0 0 1 -0.62685 0.18346 1.1187 1.0551 0 0 1 -1.1192 -1.0549 1.1187 1.0551 0 0 1 0.29967 -0.7186 3.6872 4.0242 0 0 0 0.9785 -2.7214 3.6872 4.0242 0 0 0 -3.6877 -4.0241 3.6872 4.0242 0 0 0 -2.7398 1.3393 3.6872 4.0242 0 0 0 -0.0215 0.0244 0.96576 1.4404 0 0 1 -0.65132 0.38223 0.96576 1.4404 0 0 1 -0.96627 -1.4402 0.96576 1.4404 0 0 1 0.049 -0.44337 8.384 7.8312 0 0 0 0.003 -0.0125 8.384 7.8312 0 0 0 0.11319 -1.2323 8.384 7.8312 0 0 0 -8.3845 -7.831 8.384 7.8312 0 0 0 -3.966 0.93265 1.1792 1.2064 0 0 1 -0.65131 0.19875 1.1792 1.2064 0 0 1 -1.1773 -1.2048 1.1792 1.2064 0 0 1 0.13449 -0.55957 38.204 38.629 0 0 0 0.009 -0.0214 38.204 38.629 0 0 0 3.229 -15.424 38.204 38.629 0 0 0 -0.37 -5.0148 43.874 40.64 0 0 0 -43.718 -37.715z"/>
   </g>
  </g>
 </g>
</svg>
