<?xml version="1.0" encoding="UTF-8" standalone="no"?>
<!-- Created with Inkscape (http://www.inkscape.org/) -->

<svg
   xmlns:dc="http://purl.org/dc/elements/1.1/"
   xmlns:cc="http://creativecommons.org/ns#"
   xmlns:rdf="http://www.w3.org/1999/02/22-rdf-syntax-ns#"
   xmlns:svg="http://www.w3.org/2000/svg"
   xmlns="http://www.w3.org/2000/svg"
   xmlns:xlink="http://www.w3.org/1999/xlink"
   xmlns:sodipodi="http://sodipodi.sourceforge.net/DTD/sodipodi-0.dtd"
   xmlns:inkscape="http://www.inkscape.org/namespaces/inkscape"
   width="1750"
   height="805"
   viewBox="0 0 463.02084 212.9896"
   version="1.1"
   id="svg8"
   inkscape:version="0.92.1 r15371"
   sodipodi:docname="light.inkscape.svg">
  <defs
     id="defs2">
    <linearGradient
       inkscape:collect="always"
       id="linearGradient4667">
      <stop
         style="stop-color:#6f7c91;stop-opacity:1"
         offset="0"
         id="stop4663" />
      <stop
         style="stop-color:#373e48;stop-opacity:1"
         offset="1"
         id="stop4665" />
    </linearGradient>
    <linearGradient
       inkscape:collect="always"
       id="linearGradient4659">
      <stop
         style="stop-color:#f2f2f2;stop-opacity:1"
         offset="0"
         id="stop4655" />
      <stop
         style="stop-color:#dbdee3;stop-opacity:1"
         offset="1"
         id="stop4657" />
    </linearGradient>
    <linearGradient
       inkscape:collect="always"
       xlink:href="#linearGradient4659"
       id="linearGradient4661"
       x1="25.882517"
       y1="203.09015"
       x2="482.75415"
       y2="203.09015"
       gradientUnits="userSpaceOnUse" />
    <linearGradient
       inkscape:collect="always"
       xlink:href="#linearGradient4667"
       id="linearGradient4669"
       x1="23.09256"
       y1="202.93996"
       x2="484.90698"
       y2="202.93996"
       gradientUnits="userSpaceOnUse" />
  </defs>
  <sodipodi:namedview
     id="base"
     pagecolor="#ffffff"
     bordercolor="#666666"
     borderopacity="1.0"
     inkscape:pageopacity="0.0"
     inkscape:pageshadow="2"
     inkscape:zoom="0.35355339"
     inkscape:cx="616.44259"
     inkscape:cy="131.62572"
     inkscape:document-units="mm"
     inkscape:current-layer="g4702"
     showgrid="false"
     units="px"
     inkscape:snap-nodes="true"
     inkscape:snap-global="false"
     inkscape:snap-bbox="true"
     inkscape:snap-others="false"
     inkscape:snap-bbox-edge-midpoints="true"
     inkscape:window-width="1362"
     inkscape:window-height="725"
     inkscape:window-x="0"
     inkscape:window-y="20"
     inkscape:window-maximized="0"
     inkscape:pagecheckerboard="false" />
  <metadata
     id="metadata5">
    <rdf:RDF>
      <cc:Work
         rdf:about="">
        <dc:format>image/svg+xml</dc:format>
        <dc:type
           rdf:resource="http://purl.org/dc/dcmitype/StillImage" />
        <dc:title />
      </cc:Work>
    </rdf:RDF>
  </metadata>
  <g
     inkscape:label="Layer 1"
     inkscape:groupmode="layer"
     id="layer1"
     transform="translate(0,-84.010397)">
    <g
       id="g4702"
       transform="translate(-22.489353,11.730394)">
      <g
         transform="matrix(1.9086322,0,0,1.9086322,52.002864,-242.08759)"
         id="g4636">
        <path
           transform="matrix(0.26458333,0,0,0.26458333,0,138.24998)"
           inkscape:connector-curvature="0"
           style="opacity:1;fill:#dfc887;fill-opacity:1;fill-rule:evenodd;stroke:#ffffff;stroke-width:0;stroke-miterlimit:4;stroke-dasharray:none;stroke-opacity:1"
           d="m 135,100 a 4.9999997,4.9999997 0 0 0 -5,5 v 5 280 5 a 4.9999981,4.9999981 0 0 1 -5,5 H 124.64648 120.35352 120 110 109.64648 105.35352 105 a 4.9999984,4.9999984 0 0 0 -5,5 v 5 80 5 a 4.9999986,4.9999986 0 0 0 5,5 h 0.35352 4.29296 H 110 650 650.35352 654.64648 655 a 4.9999989,4.9999989 0 0 0 5,-5 v -5 -90 -5 a 4.9999991,4.9999991 0 0 1 5,-5 h 0.35352 4.29296 0.35352 20 0.35352 4.29296 H 695 a 4.9999993,4.9999993 0 0 0 5,-5 v -5 -270 -5 a 4.9999995,4.9999995 0 0 0 -5,-5 H 694.64648 690.35352 690 140 h -0.35352 -4.29296 z"
           id="rect4583" />
        <rect
           style="opacity:1;fill:#e6e6e6;fill-opacity:1;fill-rule:evenodd;stroke:#ffffff;stroke-width:0;stroke-miterlimit:4;stroke-dasharray:none;stroke-opacity:1"
           id="rect4778"
           width="55.5625"
           height="84.666664"
           x="32.48064"
           y="177.70277"
           rx="0.18865755"
           ry="9.9192577e-16"
           transform="rotate(-1.9211164)" />
        <rect
           style="opacity:1;fill:#fdfcf7;fill-opacity:1;fill-rule:evenodd;stroke:#ffffff;stroke-width:0;stroke-miterlimit:4;stroke-dasharray:none;stroke-opacity:1"
           id="rect4778-2"
           width="55.5625"
           height="84.666664"
           x="43.53429"
           y="174.37265"
           rx="0.18865755"
           ry="9.9192587e-16"
           transform="rotate(0.97849889)" />
        <g
           id="g5105"
           style="fill:#ececec">
          <rect
             ry="7.4063746e-16"
             rx="0.18341695"
             y="185.87498"
             x="48.380955"
             height="2.1166658"
             width="39.6875"
             id="rect4928-8-9"
             style="opacity:1;fill:#ececec;fill-opacity:1;fill-rule:evenodd;stroke:#ffffff;stroke-width:0;stroke-miterlimit:4;stroke-dasharray:none;stroke-opacity:1" />
          <rect
             ry="7.4063746e-16"
             rx="0.18341695"
             y="190.10832"
             x="48.380947"
             height="2.1166658"
             width="39.6875"
             id="rect4928-8-3"
             style="opacity:1;fill:#ececec;fill-opacity:1;fill-rule:evenodd;stroke:#ffffff;stroke-width:0;stroke-miterlimit:4;stroke-dasharray:none;stroke-opacity:1" />
          <rect
             ry="7.4063746e-16"
             rx="0.18341695"
             y="194.34166"
             x="48.380943"
             height="2.1166658"
             width="39.6875"
             id="rect4928-8-9-7-1"
             style="opacity:1;fill:#ececec;fill-opacity:1;fill-rule:evenodd;stroke:#ffffff;stroke-width:0;stroke-miterlimit:4;stroke-dasharray:none;stroke-opacity:1" />
          <rect
             ry="7.4063746e-16"
             rx="0.18341695"
             y="198.575"
             x="48.380943"
             height="2.1166658"
             width="39.6875"
             id="rect4928-8-9-9"
             style="opacity:1;fill:#ececec;fill-opacity:1;fill-rule:evenodd;stroke:#ffffff;stroke-width:0;stroke-miterlimit:4;stroke-dasharray:none;stroke-opacity:1" />
          <rect
             ry="7.4063746e-16"
             rx="0.18341695"
             y="202.80833"
             x="48.380939"
             height="2.1166658"
             width="39.6875"
             id="rect4928-8-1"
             style="opacity:1;fill:#ececec;fill-opacity:1;fill-rule:evenodd;stroke:#ffffff;stroke-width:0;stroke-miterlimit:4;stroke-dasharray:none;stroke-opacity:1" />
          <rect
             ry="7.4063746e-16"
             rx="0.18341695"
             y="207.04167"
             x="48.380936"
             height="2.1166658"
             width="39.6875"
             id="rect4928-8-9-7-7"
             style="opacity:1;fill:#ececec;fill-opacity:1;fill-rule:evenodd;stroke:#ffffff;stroke-width:0;stroke-miterlimit:4;stroke-dasharray:none;stroke-opacity:1" />
          <rect
             ry="7.4063746e-16"
             rx="0.18341695"
             y="211.27501"
             x="48.380932"
             height="2.1166658"
             width="39.6875"
             id="rect4928-8-9-6-4"
             style="opacity:1;fill:#ececec;fill-opacity:1;fill-rule:evenodd;stroke:#ffffff;stroke-width:0;stroke-miterlimit:4;stroke-dasharray:none;stroke-opacity:1" />
          <rect
             ry="7.4063746e-16"
             rx="0.18341695"
             y="215.50835"
             x="48.380928"
             height="2.1166658"
             width="39.6875"
             id="rect4928-8-2-0"
             style="opacity:1;fill:#ececec;fill-opacity:1;fill-rule:evenodd;stroke:#ffffff;stroke-width:0;stroke-miterlimit:4;stroke-dasharray:none;stroke-opacity:1" />
          <rect
             ry="7.4063746e-16"
             rx="0.18341695"
             y="219.74168"
             x="48.380924"
             height="2.1166658"
             width="39.6875"
             id="rect4928-8-9-7-3-6"
             style="opacity:1;fill:#ececec;fill-opacity:1;fill-rule:evenodd;stroke:#ffffff;stroke-width:0;stroke-miterlimit:4;stroke-dasharray:none;stroke-opacity:1" />
          <rect
             ry="7.4063746e-16"
             rx="0.18341695"
             y="223.97502"
             x="48.380924"
             height="2.1166658"
             width="39.6875"
             id="rect4928-8-9-63"
             style="opacity:1;fill:#ececec;fill-opacity:1;fill-rule:evenodd;stroke:#ffffff;stroke-width:0;stroke-miterlimit:4;stroke-dasharray:none;stroke-opacity:1" />
          <rect
             ry="7.4063746e-16"
             rx="0.18341695"
             y="228.20836"
             x="48.380917"
             height="2.1166658"
             width="39.6875"
             id="rect4928-8-3-0"
             style="opacity:1;fill:#ececec;fill-opacity:1;fill-rule:evenodd;stroke:#ffffff;stroke-width:0;stroke-miterlimit:4;stroke-dasharray:none;stroke-opacity:1" />
          <rect
             ry="7.4063746e-16"
             rx="0.18341695"
             y="232.4417"
             x="48.380909"
             height="2.1166658"
             width="39.6875"
             id="rect4928-8-9-7-1-1"
             style="opacity:1;fill:#ececec;fill-opacity:1;fill-rule:evenodd;stroke:#ffffff;stroke-width:0;stroke-miterlimit:4;stroke-dasharray:none;stroke-opacity:1" />
          <rect
             ry="7.4063746e-16"
             rx="0.18341695"
             y="236.67503"
             x="48.380909"
             height="2.1166658"
             width="39.6875"
             id="rect4928-8-9-9-5"
             style="opacity:1;fill:#ececec;fill-opacity:1;fill-rule:evenodd;stroke:#ffffff;stroke-width:0;stroke-miterlimit:4;stroke-dasharray:none;stroke-opacity:1" />
          <rect
             ry="7.4063746e-16"
             rx="0.18341695"
             y="240.90837"
             x="48.380909"
             height="2.1166658"
             width="39.6875"
             id="rect4928-8-7"
             style="opacity:1;fill:#ececec;fill-opacity:1;fill-rule:evenodd;stroke:#ffffff;stroke-width:0;stroke-miterlimit:4;stroke-dasharray:none;stroke-opacity:1" />
          <rect
             ry="7.4063746e-16"
             rx="0.18341695"
             y="245.14171"
             x="48.380901"
             height="2.1166658"
             width="39.6875"
             id="rect4928-8-9-7-6"
             style="opacity:1;fill:#ececec;fill-opacity:1;fill-rule:evenodd;stroke:#ffffff;stroke-width:0;stroke-miterlimit:4;stroke-dasharray:none;stroke-opacity:1" />
          <rect
             ry="7.4063746e-16"
             rx="0.18341695"
             y="249.37505"
             x="48.380901"
             height="2.1166658"
             width="39.6875"
             id="rect4928-8-9-6-3"
             style="opacity:1;fill:#ececec;fill-opacity:1;fill-rule:evenodd;stroke:#ffffff;stroke-width:0;stroke-miterlimit:4;stroke-dasharray:none;stroke-opacity:1" />
        </g>
        <rect
           style="opacity:1;fill:#87aade;fill-opacity:1;fill-rule:evenodd;stroke:#ffffff;stroke-width:0;stroke-miterlimit:4;stroke-dasharray:none;stroke-opacity:1"
           id="rect4500"
           width="26.458336"
           height="26.458336"
           x="38.088539"
           y="177.2675"
           rx="1.5650164"
           ry="1.0567998e-14"
           transform="rotate(-0.83031474)" />
        <path
           style="fill:#d7e3f4;fill-opacity:1;stroke-width:0.0606091"
           d="m 45.215561,202.86459 c 0.357507,-2.3104 1.20113,-3.49326 3.16598,-4.43907 0.872223,-0.41985 2.493196,-1.06349 2.607511,-1.03536 0.126118,0.0311 0.247273,-0.24065 0.379565,-0.85117 l 0.08391,-0.3872 -0.248494,-0.30517 c -0.553065,-0.67921 -1.006715,-1.65959 -1.346138,-2.90913 -0.208241,-0.76663 -0.21955,-0.79025 -0.378569,-0.79079 -0.227234,-7.1e-4 -0.367082,-0.19274 -0.547688,-0.75185 -0.08444,-0.26137 -0.287685,-0.68522 -0.451677,-0.94189 -0.254309,-0.39805 -0.299098,-0.51289 -0.304527,-0.78084 -0.0053,-0.26521 0.02053,-0.34306 0.166154,-0.49955 0.09489,-0.10196 0.243816,-0.20212 0.330949,-0.22258 l 0.158427,-0.0372 -0.03527,-0.87411 c -0.02645,-0.65511 -0.01229,-0.98587 0.05719,-1.32018 0.112031,-0.54038 0.360642,-1.10278 0.606787,-1.37266 0.186255,-0.20421 0.129622,-0.2665 -0.117719,-0.12948 -0.110097,0.061 -0.117923,0.0537 -0.08016,-0.0746 0.286503,-0.97385 1.599975,-1.98794 2.985447,-2.30495 0.137214,-0.0315 0.157389,-0.0557 0.101023,-0.12166 -0.108984,-0.12751 0.504667,-0.25226 1.297349,-0.26375 0.582554,-0.008 0.695981,0.007 0.899332,0.12336 0.291288,0.16649 0.307421,0.16553 0.269982,-0.016 -0.03033,-0.14698 -0.02924,-0.14735 0.158839,-0.0547 0.416005,0.20498 1.081978,0.69583 1.459694,1.07586 0.369304,0.37157 0.418571,0.4014 0.665383,0.40287 1.268679,0.008 1.950034,1.32242 2.006795,3.87261 l 0.02095,0.94179 0.259278,-0.004 c 0.212027,-0.003 0.295903,0.0319 0.460273,0.1915 0.176534,0.17148 0.20133,0.23384 0.203775,0.51227 0.0024,0.27137 -0.03817,0.38545 -0.28173,0.79216 -0.156485,0.26132 -0.347365,0.69088 -0.424182,0.95458 -0.158635,0.54454 -0.293237,0.75071 -0.502142,0.76915 -0.132579,0.0117 -0.159653,0.0744 -0.320824,0.74281 -0.303991,1.26081 -0.692624,2.19261 -1.224958,2.93701 l -0.276996,0.38735 0.125574,0.46346 c 0.180963,0.66788 0.242103,0.79929 0.35149,0.75548 0.107597,-0.0431 1.79182,0.56284 2.682638,0.96512 1.103462,0.4983 1.926501,1.13402 2.389249,1.84547 0.333797,0.51318 0.655925,1.42785 0.887777,2.52075 l 0.0417,0.1964 -9.158574,0.13273 -9.158574,0.13273 z"
           id="path4498"
           inkscape:connector-curvature="0" />
        <path
           style="fill:#787e8f;fill-opacity:1;stroke-width:0.02337485"
           d="m 44.374251,186.57972 c -0.602518,-0.0956 -1.080586,-0.52149 -1.277458,-1.13794 l -0.05137,-0.16084 -0.0069,-3.53947 c -0.0038,-1.94671 0.002,-3.54846 0.01303,-3.55944 0.01099,-0.011 0.07419,-0.0264 0.140463,-0.0343 l 0.12049,-0.0143 0.0063,3.56203 0.0063,3.56202 0.05161,0.14139 c 0.08336,0.22837 0.169001,0.36286 0.337378,0.52979 0.255808,0.25361 0.541959,0.369 0.915076,0.369 0.472267,0 0.905435,-0.25946 1.122364,-0.67227 0.166743,-0.31732 0.155798,0.036 0.155874,-5.03119 5.6e-5,-3.7418 -0.0056,-4.59096 -0.0312,-4.68666 -0.0996,-0.37229 -0.38492,-0.67448 -0.741675,-0.78552 -0.184884,-0.0575 -0.483249,-0.0589 -0.667818,-0.003 -0.140827,0.0427 -0.524452,0.0577 -0.560218,0.0219 -0.0273,-0.0273 0.0971,-0.12185 0.283481,-0.21546 0.776706,-0.3901 1.723082,0.0344 1.949798,0.87466 l 0.04987,0.18481 -0.0075,4.63625 c -0.0075,4.62041 -0.0077,4.63676 -0.05611,4.78818 -0.223907,0.70002 -0.756852,1.14135 -1.422202,1.17772 -0.115489,0.006 -0.263759,0.003 -0.32949,-0.008 z"
           id="path4828"
           inkscape:connector-curvature="0" />
        <g
           style="fill:#d4bc80;fill-opacity:1"
           id="g5618">
          <rect
             ry="9.9192556e-16"
             rx="0.18865743"
             y="167.37427"
             x="112.78774"
             height="98.622452"
             width="1.0690781"
             id="rect4830"
             style="opacity:1;fill:#d4bc80;fill-opacity:1;fill-rule:evenodd;stroke:#ffffff;stroke-width:0;stroke-miterlimit:4;stroke-dasharray:none;stroke-opacity:1" />
          <rect
             ry="9.9192556e-16"
             rx="0.18865745"
             y="167.24063"
             x="103.43331"
             height="98.622452"
             width="1.0690781"
             id="rect4830-2"
             style="opacity:1;fill:#d4bc80;fill-opacity:1;fill-rule:evenodd;stroke:#ffffff;stroke-width:0;stroke-miterlimit:4;stroke-dasharray:none;stroke-opacity:1" />
          <rect
             ry="2.3422662e-14"
             rx="0.18341684"
             y="184.56795"
             x="133.61577"
             height="1.6036172"
             width="29.132378"
             id="rect4608"
             style="opacity:1;fill:#d4bc80;fill-opacity:1;fill-rule:evenodd;stroke:#ffffff;stroke-width:0;stroke-miterlimit:4;stroke-dasharray:none;stroke-opacity:1" />
          <rect
             ry="2.3422662e-14"
             rx="0.18341684"
             y="188.64381"
             x="133.61577"
             height="1.6036172"
             width="29.13238"
             id="rect4608-3"
             style="opacity:1;fill:#d4bc80;fill-opacity:1;fill-rule:evenodd;stroke:#ffffff;stroke-width:0;stroke-miterlimit:4;stroke-dasharray:none;stroke-opacity:1" />
          <rect
             ry="2.3422662e-14"
             rx="0.18341684"
             y="192.71968"
             x="133.61577"
             height="1.6036172"
             width="29.132383"
             id="rect4608-3-6"
             style="opacity:1;fill:#d4bc80;fill-opacity:1;fill-rule:evenodd;stroke:#ffffff;stroke-width:0;stroke-miterlimit:4;stroke-dasharray:none;stroke-opacity:1" />
        </g>
      </g>
      <g
         id="g4667"
         transform="translate(-1.4533175e-7,0.23348583)">
        <path
           inkscape:connector-curvature="0"
           style="opacity:1;fill:url(#linearGradient4669);fill-opacity:1;fill-rule:evenodd;stroke:#ffffff;stroke-width:0;stroke-miterlimit:4;stroke-dasharray:none;stroke-opacity:1"
           d="m 366.83001,120.84412 a 31.201535,19.017212 0 0 0 -17.94631,3.48897 25.828431,24.915534 0 0 0 -16.26143,17.57935 22.368916,23.877683 0 0 0 -13.65007,-4.99952 22.368916,23.877683 0 0 0 -22.31286,22.70119 11.813795,14.215555 42.311841 0 0 -10.72985,4.00267 11.813795,14.215555 42.311841 0 0 -3.83755,17.40507 14.85344,14.131325 0 0 0 -5.42762,10.91027 14.85344,14.131325 0 0 0 0.22933,2.39427 9.9609435,10.315178 0 0 0 -1.22618,-0.0856 9.9609435,10.315178 0 0 0 -9.95317,10.0816 17.69109,15.501222 0 0 0 -5.21357,-0.688 17.69109,15.501222 0 0 0 -14.93129,7.18892 23.855635,23.035669 0 0 0 -23.32804,-18.34382 23.855635,23.035669 0 0 0 -17.51515,7.42742 17.103989,16.675423 0 0 0 -16.04739,-10.95002 17.103989,16.675423 0 0 0 -17.1054,16.67425 17.103989,16.675423 0 0 0 0.0244,0.44644 8.6888949,9.2388289 0 0 0 -4.05466,-1.07329 8.6888949,9.2388289 0 0 0 -3.32384,0.70329 17.11045,17.650549 0 0 0 -16.97697,-15.65599 17.11045,17.650549 0 0 0 -9.76665,3.18318 26.935479,24.08525 0 0 0 -24.69182,-14.53072 26.935479,24.08525 0 0 0 -16.683415,5.18299 25.20572,25.815009 0 0 0 -12.326042,22.1569 25.20572,25.815009 0 0 0 3.033348,12.26489 14.619596,13.914269 0 0 0 -0.593221,-0.0276 14.619596,13.914269 0 0 0 -14.619395,13.9161 14.619596,13.914269 0 0 0 0.238519,2.42178 13.028218,13.637508 0 0 0 -4.091349,-0.70023 13.028218,13.637508 0 0 0 -6.250171,1.6879 21.042702,23.026952 0 0 0 -17.337792,-10.04795 21.042702,23.026952 0 0 0 -21.025514,22.60945 21.183742,15.11274 52.886802 0 0 -0.01253,0.31189 21.042702,23.026952 0 0 0 -0.0063,0.10709 21.042702,23.026952 0 0 0 0.0031,0.0581 21.183742,15.11274 52.886802 0 0 7.039075,17.9035 21.183742,15.11274 52.886802 0 0 20.337512,7.43965 35.818024,19.11293 0 0 0 30.553643,9.17342 35.818024,19.11293 0 0 0 28.422362,-7.5222 41.59117,17.449484 0 0 0 36.45217,9.0878 41.59117,17.449484 0 0 0 34.97831,-8.0451 16.443768,10.600019 0 0 0 9.93482,2.1741 16.443768,10.600019 0 0 0 7.78213,-1.2751 12.236218,8.5451696 0 0 0 8.55881,2.4493 12.236218,8.5451696 0 0 0 10.55863,-4.24423 19.672807,11.872058 0 0 0 13.51246,3.26573 19.672807,11.872058 0 0 0 13.699,-3.36665 32.148679,12.018834 0 0 0 28.83822,6.73942 32.148679,12.018834 0 0 0 27.38576,-5.7548 20.456853,25.353937 0 0 0 0.003,0 20.456853,25.353937 0 0 0 11.19159,4.20143 20.456853,25.353937 0 0 0 7.39073,-1.73988 16.583469,8.400881 0 0 1 0.003,0 16.583469,8.400881 0 0 1 11.85819,-2.54105 16.583469,8.400881 0 0 1 13.39627,3.46145 16.583469,8.400881 0 0 0 0.0125,-0.003 11.068168,8.4008816 0 0 0 7.66287,2.35147 11.068168,8.4008816 0 0 0 8.77897,-3.3055 11.068168,8.4008816 0 0 0 0.0183,-0.0157 v -0.003 a 9.8388854,9.3768879 0 0 0 0.74,-0.7828 35.964827,19.553284 0 0 0 27.11361,6.74248 35.964827,19.553284 0 0 0 28.82292,-7.89528 21.711612,15.401861 0 0 0 6.11869,-5.76702 21.711612,15.401861 0 0 0 17.7139,6.52842 21.711612,15.401861 0 0 0 13.94972,-3.59904 21.632656,28.613753 23.060876 0 0 26.67024,-21.7441 21.632656,28.613753 23.060876 0 0 1.87138,-9.76359 40.107397,37.613803 0 0 0 0.42504,-5.1677 40.107397,37.613803 0 0 0 -0.899,-7.70569 40.1074,38.396606 0 0 0 -17.86679,-27.33072 33.551457,27.828808 0 0 0 -22.56359,-7.27453 33.551457,27.828808 0 0 0 -10.61977,1.4647 6.731895,6.3033299 0 0 0 0.0947,-1.0152 6.731895,6.3033299 0 0 0 -6.7333,-6.30214 6.731895,6.3033299 0 0 0 -0.54428,0.0244 11.575219,12.253699 0 0 0 -11.18242,-9.1245 11.575219,12.253699 0 0 0 -2.88658,0.40362 40.496784,43.250975 0 0 0 2.46153,-14.69277 40.496784,43.250975 0 0 0 -27.77714,-41.00526 31.201535,19.017212 0 0 0 -19.56082,-4.22589 z m 56.03744,80.32564 a 6.731895,6.3033299 0 0 0 0.1193,0.0673 33.551457,27.828808 0 0 0 -0.45562,0.28743 11.575219,12.253699 0 0 0 0.33635,-0.3547 z"
           id="path4802-1-7" />
        <path
           inkscape:connector-curvature="0"
           style="opacity:1;fill:url(#linearGradient4661);fill-opacity:1;fill-rule:evenodd;stroke:#ffffff;stroke-width:0;stroke-miterlimit:4;stroke-dasharray:none;stroke-opacity:1"
           d="m 367.34677,124.14349 a 43.874013,40.640387 0 0 0 -9.7911,1.08858 26.853166,22.092806 0 0 0 -22.35872,20.52709 1.1791971,1.2064484 0 0 1 0.003,0.0488 1.1791971,1.2064484 0 0 1 -1.18032,1.20784 1.1791971,1.2064484 0 0 1 -0.9204,-0.45562 18.822702,18.019669 0 0 0 -0.003,-0.003 18.822702,18.019669 0 0 0 -14.05677,-6.06976 18.822702,18.019669 0 0 0 -18.82082,18.01968 18.822702,18.019669 0 0 0 0.27215,2.88046 1.1791972,1.2064485 0 0 1 0.0276,0.25992 1.1791972,1.2064485 0 0 1 -1.17726,1.20783 1.1791972,1.2064485 0 0 1 -0.37916,-0.0642 8.1696369,11.604126 44.530415 0 0 -11.86126,4.62647 8.1696369,11.604126 44.530415 0 0 -1.96006,13.18527 1.1791972,1.2064485 0 0 1 0.39753,0.90512 1.1791972,1.2064485 0 0 1 -0.61158,1.058 11.257715,11.774217 0 0 0 -5.54075,10.12747 11.257715,11.774217 0 0 0 0.77058,4.21366 1.0321682,1.0075267 0 0 1 0.003,0.009 11.257715,11.774217 0 0 0 0,0.003 1.0321682,1.0075267 0 0 1 0.0703,0.36388 1.0321682,1.0075267 0 0 1 -1.03353,1.00602 1.0321682,1.0075267 0 0 1 -0.36999,-0.0673 7.7728027,7.5625942 0 0 0 -0.0305,-0.0125 7.7728027,7.5625942 0 0 0 -2.5166,-0.42199 7.7728027,7.5625942 0 0 0 -7.77295,7.56197 7.7728027,7.5625942 0 0 0 0.2905,2.00287 7.7728027,7.5625942 0 0 0 0.006,0.0214 1.1791976,1.2064488 0 0 1 0.0642,0.37917 1.1791976,1.2064488 0 0 1 -1.18032,1.20783 1.1791976,1.2064488 0 0 1 -0.56875,-0.15296 14.325341,13.107167 0 0 0 -0.009,-0.003 14.325341,13.107167 0 0 0 -6.91371,-1.65733 14.325341,13.107167 0 0 0 -14.29526,12.45141 1.6378684,1.6100792 0 0 1 0.003,0.0673 1.6378684,1.6100792 0 0 1 -1.63898,1.61147 1.6378684,1.6100792 0 0 1 -1.639,-1.61147 1.6378684,1.6100792 0 0 1 0.006,-0.0918 6.0917067,6.5600434 0 0 0 -0.003,0 20.829224,21.271617 0 0 0 0.006,-0.0703 20.829224,21.271617 0 0 0 0.16207,-2.25361 20.829224,21.271617 0 0 0 -20.82982,-21.27014 20.829224,21.271617 0 0 0 -17.23382,9.39053 1.1791975,1.2064488 0 0 1 -0.006,0.0125 1.1791975,1.2064488 0 0 1 -1.02742,0.61767 1.1791975,1.2064488 0 0 1 -1.17115,-1.07329 3.2116598,3.3167504 0 0 0 -0.006,0 13.910189,14.490964 0 0 0 -13.76627,-12.5462 13.910189,14.490964 0 0 0 -13.90999,14.49097 13.910189,14.490964 0 0 0 0.36387,3.17095 1.7418339,1.7018133 0 0 1 0.006,0.0215 1.7418339,1.7018133 0 0 1 0.0581,0.43421 1.7418339,1.7018133 0 0 1 -1.74295,1.7032 1.7418339,1.7018133 0 0 1 -1.61147,-1.06106 3.7966786,3.756658 0 0 0 -0.003,0.003 5.8149366,9.1633212 10.497288 0 0 -3.42475,-3.10978 5.8149366,9.1633212 10.497288 0 0 -6.58347,5.22579 5.8149366,9.1633212 10.497288 0 0 -0.006,0.0183 1.092185,1.1209202 0 0 1 -1.01825,0.72163 1.092185,1.1209202 0 0 1 -1.09468,-1.11915 1.092185,1.1209202 0 0 1 0.10083,-0.46785 13.841004,13.937446 0 0 0 0.9846,-5.12489 13.841004,13.937446 0 0 0 -13.83965,-13.9375 13.841004,13.937446 0 0 0 -10.16722,4.51639 1.4849777,1.6590042 0 0 1 -1.04577,0.48313 1.4849777,1.6590042 0 0 1 -1.47693,-1.50445 14.532904,13.59149 0 0 0 -3.67854,-7.47634 6.3652268,8.0070026 0 0 1 0.003,-0.009 25.562609,24.674791 0 0 0 -0.0673,-0.0581 14.532904,13.59149 0 0 0 -1.58702,-1.38213 25.562609,24.674791 0 0 0 -16.37457,-5.76397 25.562609,24.674791 0 0 0 -25.563297,24.67347 25.562609,24.674791 0 0 0 4.663153,14.13933 1.8159632,1.8511214 0 0 1 0.0764,0.10396 1.8159632,1.8511214 0 0 1 0.345528,1.0794 1.8159632,1.8511214 0 0 1 -1.81633,1.84999 1.8159632,1.8511214 0 0 1 -1.106926,-0.38529 8.8114716,9.8172221 0 0 0 -0.06419,-0.0488 8.8114716,9.8172221 0 0 0 -5.097373,-1.8255 8.8114716,9.8172221 0 0 0 -8.812618,9.81862 8.8114716,9.8172221 0 0 0 2.363695,6.6538 1.9229927,1.9286218 0 0 1 0.01566,0.0183 8.8114716,9.8172221 0 0 0 0.01252,0.0156 8.8114716,9.8172221 0 0 0 0.04274,0.0551 16.746993,15.736389 0 0 0 -0.0031,0.003 1.9229927,1.9286218 0 0 1 0.363876,1.12528 1.9229927,1.9286218 0 0 1 -1.92337,1.92949 1.9229927,1.9286218 0 0 1 -1.504431,-0.73082 16.746993,15.736389 0 0 0 -0.0063,0.003 7.5394285,7.3220548 0 0 0 -6.302148,-3.333 7.5394285,7.3220548 0 0 0 -6.195124,3.16482 1.1791977,1.206449 0 0 1 -1.048826,0.65132 1.1791977,1.206449 0 0 1 -1.146692,-0.93264 13.564242,13.245542 0 0 0 -9.607629,-9.94705 12.970099,9.4441723 0 0 0 -5.48572,-0.899 12.970099,9.4441723 0 0 0 -4.011848,0.47702 16.262665,16.63587 0 0 0 -11.818444,8.60773 15.432378,15.667201 0 0 0 -2.042622,3.8926 19.693244,13.152497 55.854279 0 0 3.929294,20.05007 19.693244,13.152497 55.854279 0 0 19.66479,9.26211 1.1791978,1.2064491 0 0 1 0.556524,-0.14372 1.1791978,1.2064491 0 0 1 0.859232,0.38223 33.688341,18.311922 0 0 0 29.012514,9.05417 33.688341,18.311922 0 0 0 27.599812,-7.88609 1.2849628,1.0625651 0 0 1 0.003,-0.003 1.2849628,1.0625651 0 0 1 0.9204,-0.32107 1.2849628,1.0625651 0 0 1 0.88065,0.2905 1.2849627,1.0625651 0 0 0 0.003,-0.003 43.193765,20.967847 0 0 0 35.45226,9.03888 43.193765,20.967847 0 0 0 33.85609,-7.98395 1.2849628,1.0625652 0 0 0 0.006,0.003 1.2849628,1.0625652 0 0 1 0.7614,-0.20793 1.2849628,1.0625652 0 0 1 0.77669,0.21404 15.715304,15.136077 0 0 0 8.72698,2.58997 15.715304,15.136077 0 0 0 7.60173,-1.89278 15.715304,15.136077 0 0 0 0.009,-0.003 1.2849629,1.0625652 0 0 1 0.68802,-0.16511 1.2849629,1.0625652 0 0 1 0.92345,0.32718 11.168498,10.095065 0 0 0 7.50692,2.64195 11.168498,10.095065 0 0 0 9.16732,-4.36655 1.2849629,1.0625652 0 0 1 0.0276,-0.0366 1.2849629,1.0625652 0 0 1 1.1008,-0.51372 1.2849629,1.0625652 0 0 1 0.82562,0.24463 1.2849629,1.0625652 0 0 1 0.003,0.003 21.442756,16.595108 0 0 0 13.91917,4.00572 21.442756,16.595108 0 0 0 13.1761,-3.55317 1.2849629,1.0625653 0 0 1 0.0305,-0.0183 1.2849629,1.0625653 0 0 1 0.76752,-0.21098 1.2849629,1.0625653 0 0 1 0.847,0.26603 1.2849629,1.0625653 0 0 0 0.003,-0.003 35.281537,19.670393 0 0 0 27.04022,7.08496 35.281537,19.670393 0 0 0 26.3461,-6.62629 1.284963,1.0625653 0 0 1 0.006,-0.003 1.284963,1.0625653 0 0 1 0.82255,-0.24768 1.284963,1.0625653 0 0 1 0.83785,0.25685 20.324472,19.670394 0 0 0 0.009,0.006 20.324472,19.670394 0 0 0 11.1182,3.25962 20.324472,19.670394 0 0 0 7.34487,-1.35155 16.476154,6.5176755 0 0 1 0.003,0 16.476154,6.5176755 0 0 1 11.78174,-1.96924 16.476154,6.5176755 0 0 1 13.3076,2.68477 16.476154,6.5176753 0 0 0 0.009,-0.003 10.996547,6.5176759 0 0 0 7.61395,1.82552 10.996547,6.5176759 0 0 0 8.8493,-2.66335 1.7888774,1.5909466 0 0 0 0.003,0.003 1.7888774,1.5909466 0 0 1 1.22618,-0.43421 1.7888774,1.5909466 0 0 1 1.06105,0.30883 38.296689,26.185524 0 0 0 25.12299,6.50703 38.296689,26.185524 0 0 0 33.59311,-13.7357 1.7888774,1.5909466 0 0 1 0.0157,-0.0183 1.7888774,1.5909466 0 0 1 1.46163,-0.67578 1.7888774,1.5909466 0 0 1 1.3546,0.55346 25.674044,28.338226 0 0 0 16.99838,7.13999 25.674044,28.338226 0 0 0 12.43306,-3.57765 1.1791978,1.2064491 0 0 1 0.003,0 1.1791978,1.2064491 0 0 1 0.64825,-0.2018 1.1791978,1.2064491 0 0 1 0.2966,0.0398 14.425365,12.877923 0 0 0 2.93857,0.29965 14.425365,12.877923 0 0 0 8.17963,-2.28725 40.742938,40.080221 0 0 1 0.003,0.003 40.742938,40.080221 0 0 0 0.0244,-0.0214 14.425365,12.877923 0 0 0 3.30855,-2.84377 40.742938,40.080221 0 0 0 12.42084,-28.76789 40.742938,40.080221 0 0 0 -40.74228,-40.07874 40.742938,40.080221 0 0 0 -2.10989,0.10396 14.450699,9.0634896 0 0 0 -0.51371,0.0244 40.742938,40.080221 0 0 0 -0.0459,0.003 14.450699,9.0634896 0 0 0 -8.7331,2.52575 1.1186557,1.0550946 0 0 1 -0.62685,0.18346 1.1186557,1.0550946 0 0 1 -1.11917,-1.05493 1.1186557,1.0550946 0 0 1 0.29967,-0.7186 3.6872156,4.024228 0 0 0 0.9785,-2.72145 3.6872156,4.024228 0 0 0 -3.68772,-4.02407 3.6872156,4.024228 0 0 0 -2.7398,1.33932 3.6872156,4.024228 0 0 0 -0.0215,0.0244 0.96576476,1.4403784 0 0 1 -0.65132,0.38223 0.96576476,1.4403784 0 0 1 -0.96627,-1.44023 0.96576476,1.4403784 0 0 1 0.049,-0.44337 8.3839996,7.8311888 0 0 0 0.003,-0.0125 8.3839996,7.8311888 0 0 0 0.11319,-1.2323 8.3839996,7.8311888 0 0 0 -8.38452,-7.83105 8.3839996,7.8311888 0 0 0 -3.96597,0.93265 1.179197,1.2064483 0 0 1 -0.65131,0.19875 1.179197,1.2064483 0 0 1 -1.17727,-1.20478 1.179197,1.2064483 0 0 1 0.13449,-0.55957 38.203758,38.629446 0 0 0 0.009,-0.0214 38.203758,38.629446 0 0 0 3.22905,-15.4236 38.203758,38.629446 0 0 0 -0.37,-5.0148 43.874013,40.640387 0 0 0 -43.71753,-37.71506 z"
           id="path4706" />
      </g>
    </g>
  </g>
</svg>
